<?xml version="1.0" encoding="utf-8"?>
<!-- Generator: Adobe Illustrator 16.0.0, SVG Export Plug-In . SVG Version: 6.00 Build 0)  -->
<svg version="1.2" baseProfile="tiny" id="图层_1"
	 xmlns="http://www.w3.org/2000/svg" xmlns:xlink="http://www.w3.org/1999/xlink" x="0px" y="0px" width="220px" height="40px"
	 viewBox="-35 0 220 40" xml:space="preserve">
<g>
	<path fill="#AADDE9" d="M13.3,36.4l-10.5-5l-9.1,5l-9.6-5l-10.5,5l6.6-14.2l6.8-2.3l6.7,2.3L0,19.9l6.8,2.3L13.3,36.4z"/>
	<path fill="#2C5679" d="M13.3,37.1c-0.1,0-0.2,0-0.3-0.1L2.8,32.2L-6,37c-0.2,0.1-0.4,0.1-0.6,0l-9.3-4.8l-10.2,4.8
		c-0.3,0.1-0.6,0.1-0.8-0.1c-0.2-0.2-0.3-0.5-0.1-0.8l6.6-14.2c0.1-0.2,0.2-0.3,0.4-0.4l6.8-2.3c0.1,0,0.3,0,0.4,0l6.5,2.2l6.1-2.2
		c0.1-0.1,0.3-0.1,0.5,0L7,21.5c0.2,0.1,0.3,0.2,0.4,0.4l6.6,14.2c0.1,0.1,0.1,0.2,0.1,0.4C14,36.8,13.7,37.1,13.3,37.1L13.3,37.1
		L13.3,37.1z M-15.9,30.8c0.1,0,0.2,0,0.3,0.1l9.3,4.8l8.8-4.8c0.2-0.1,0.4-0.1,0.6,0l8.8,4.2L6.3,22.7L0,20.6l-6.1,2.2
		c-0.1,0.1-0.3,0.1-0.5,0l-6.5-2.2l-6.3,2.1L-25.1,35l8.8-4.2C-16.1,30.8-16,30.8-15.9,30.8z"/>
	<path fill="#FFFFFF" d="M-14.9,23.3l-3.1-3.1c-1.7-1.7-1.7-4.5,0-6.2c1.7-1.7,4.5-1.7,6.2,0c1.7,1.7,1.7,4.5,0,6.2L-14.9,23.3z
		 M2.3,29.4l-6.7-6.7c-3.7-3.7-3.7-9.7,0-13.5c3.7-3.7,9.7-3.7,13.4,0c3.7,3.7,3.7,9.7,0,13.5L2.3,29.4z"/>
	<path fill="#2C5679" d="M-14.9,23.7c-0.1,0-0.2,0-0.3-0.1l-3.1-3.1c-1.9-1.9-1.9-5,0-6.9c0.9-0.9,2.1-1.4,3.4-1.4
		c1.3,0,2.5,0.5,3.4,1.4c1.9,1.9,1.9,5,0,6.9l-3.1,3.1C-14.6,23.7-14.7,23.7-14.9,23.7z M-14.9,13.1c-1.1,0-2,0.4-2.8,1.2
		c-1.5,1.5-1.5,4,0,5.6l2.8,2.8l2.8-2.8c1.5-1.5,1.5-4.1,0-5.6C-12.8,13.5-13.8,13.1-14.9,13.1z"/>
	<path fill="#78D5DF" d="M-15.9,18.1c-0.6-0.6-0.6-1.5,0-2.1c0.6-0.6,1.5-0.6,2.1,0c0.6,0.6,0.6,1.5,0,2.1
		C-14.4,18.7-15.3,18.7-15.9,18.1z"/>
	<path fill="#2C5679" d="M-14.9,19c-0.5,0-1-0.2-1.4-0.6c-0.4-0.4-0.6-0.8-0.6-1.4s0.2-1,0.6-1.4c0.4-0.4,0.9-0.6,1.4-0.6
		c0.5,0,1,0.2,1.4,0.6c0.4,0.4,0.6,0.8,0.6,1.4c0,0.5-0.2,1-0.6,1.4C-13.9,18.8-14.3,19-14.9,19z M-14.9,16c-0.3,0-0.5,0.1-0.7,0.3
		c-0.2,0.2-0.3,0.4-0.3,0.7c0,0.3,0.1,0.5,0.3,0.7c0.4,0.4,1.1,0.4,1.4,0c0.2-0.2,0.3-0.4,0.3-0.7c0-0.3-0.1-0.5-0.3-0.7
		C-14.3,16.1-14.6,16-14.9,16L-14.9,16z M2.3,30.1c-0.2,0-0.3-0.1-0.5-0.2l-6.7-6.7c-4-4-4-10.4,0-14.4c1.9-1.9,4.5-3,7.2-3
		c2.7,0,5.3,1.1,7.2,3c1.9,1.9,3,4.5,3,7.2c0,2.7-1.1,5.3-3,7.2l-6.7,6.7C2.6,30,2.5,30.1,2.3,30.1L2.3,30.1z M2.3,7.1
		C-0.1,7.1-2.3,8-4,9.7c-3.4,3.4-3.4,9,0,12.5l6.2,6.2l6.2-6.2c3.4-3.4,3.4-9,0-12.5C6.9,8,4.6,7.1,2.3,7.1z"/>
	<path fill="#78D5DF" d="M-1,19.3c-1.8-1.8-1.8-4.8,0-6.6c1.8-1.8,4.8-1.8,6.6,0c1.8,1.8,1.8,4.8,0,6.6C3.8,21.1,0.8,21.1-1,19.3z"
		/>
	<path fill="#2C5679" d="M2.3,21.3c-1.4,0-2.8-0.6-3.8-1.6c-1-1-1.6-2.4-1.6-3.8c0-1.4,0.6-2.8,1.6-3.8c1-1,2.4-1.6,3.8-1.6
		c1.4,0,2.8,0.6,3.8,1.6c2.1,2.1,2.1,5.5,0,7.6C5.1,20.8,3.7,21.3,2.3,21.3L2.3,21.3z M2.3,12c-1.1,0-2.1,0.4-2.8,1.2
		c-0.8,0.8-1.2,1.8-1.2,2.8c0,1.1,0.4,2.1,1.2,2.8c0.7,0.8,1.8,1.2,2.8,1.2s2.1-0.4,2.8-1.2c1.6-1.6,1.6-4.1,0-5.6
		C4.4,12.4,3.3,12,2.3,12z"/>
	<path fill="#2C5679" d="M-0.1,30.6c-0.1,0-0.2-0.1-0.2-0.2c0-0.1,0-0.2,0.2-0.3c0.4-0.1,0.7-0.2,0.7-0.3c0.1-0.1,0.2-0.1,0.3,0
		C1,30,1,30.2,0.9,30.3C0.7,30.4,0.4,30.5-0.1,30.6L-0.1,30.6L-0.1,30.6z M-2.5,30.7L-2.5,30.7c-0.7-0.1-1.3-0.3-1.9-0.6
		c-0.1-0.1-0.2-0.2-0.1-0.3c0.1-0.1,0.2-0.2,0.3-0.1c0.6,0.3,1.2,0.4,1.8,0.5c0.1,0,0.2,0.1,0.2,0.3C-2.3,30.7-2.4,30.7-2.5,30.7z
		 M-6.3,28.8c-0.1,0-0.1,0-0.2-0.1c-0.4-0.5-0.8-1-1.2-1.6c-0.1-0.1,0-0.2,0.1-0.3c0.1-0.1,0.2,0,0.3,0.1c0.3,0.6,0.7,1.1,1.1,1.5
		c0.1,0.1,0.1,0.2,0,0.3C-6.2,28.8-6.2,28.8-6.3,28.8z M-8.8,25.3c0,0-0.1,0-0.1,0c-0.5-0.4-1-0.6-1.6-0.8c-0.1,0-0.2-0.2-0.2-0.3
		c0-0.1,0.2-0.2,0.3-0.2c0.7,0.2,1.3,0.5,1.8,0.9c0.1,0.1,0.1,0.2,0,0.3C-8.7,25.3-8.8,25.3-8.8,25.3L-8.8,25.3z M-13.8,24.3
		c-0.1,0-0.2-0.1-0.2-0.1c0-0.1,0-0.2,0.1-0.3c0,0,0.3-0.1,1-0.1c0.1,0,0.2,0.1,0.2,0.2c0,0.1-0.1,0.2-0.2,0.2H-13
		C-13.6,24.2-13.7,24.2-13.8,24.3C-13.8,24.3-13.8,24.3-13.8,24.3L-13.8,24.3z"/>
</g>
<g>
	<path d="M21.8,22.3l2.2,0.5c-0.5,1.5-0.8,3.2-1.1,5l-2.2-0.5C20.9,25.5,21.3,23.9,21.8,22.3z M26,18.7c1,1.1,1.8,2.4,2.3,3.8
		c0.5,1.1,0.8,2.6,0.8,4.7c0,1.2-0.2,2-0.7,2.5c-0.6,0.6-1.3,0.9-2.3,0.9c-0.8,0-1.5-0.1-2-0.2l-0.3-2.4c0.7,0.1,1.3,0.2,1.8,0.2
		c0.3,0,0.5-0.1,0.7-0.3c0.2-0.2,0.3-0.5,0.3-0.9c0-1.3-0.1-2.4-0.4-3.4c-0.5-1.4-1.2-2.7-2.1-3.7L26,18.7z M30.4,21.3
		c1,0.8,1.9,1.8,2.8,3.1l-1.9,1.5c-0.9-1.3-1.8-2.3-2.7-3.2L30.4,21.3z"/>
	<path d="M46.7,19.2l0.2,2c-0.9,0-1.7,0-2.5,0c-0.1,0.3-0.3,0.6-0.4,1l-2.1-0.7c0-0.1,0.1-0.1,0.1-0.2c-0.8,0-1.5,0-2.3,0.1
		c0,0.2,0.1,0.5,0.1,0.7l-2.3,0.2c0-0.3-0.1-0.5-0.1-0.8c-0.7,0-1.5,0.1-2.2,0.2l-0.2-2c0.7-0.1,1.4-0.1,2.1-0.1
		c0-0.3-0.1-0.6-0.1-0.8l2.3-0.2c0,0.3,0.1,0.6,0.1,0.9c1.2-0.1,2.4-0.1,3.6-0.1c0.2-0.4,0.4-0.7,0.5-1.1l2.1,0.7
		c-0.1,0.1-0.1,0.2-0.2,0.3C45.8,19.2,46.2,19.2,46.7,19.2z M35.8,22c0.5,0,1.3,0.3,2.5,0.8c0.8,0.4,1.2,0.9,1.2,1.4
		c0,0.4-0.2,0.7-0.6,1c-0.5,0.3-0.8,0.6-1,0.7c-0.2,0.1-0.3,0.3-0.3,0.4c0,0.2,0.6,0.4,1.9,0.6l-0.8,1.6l0.5,1.6
		c-1,0.4-2.2,0.7-3.4,0.9l-0.5-2c0.8-0.2,1.6-0.3,2.4-0.6c-0.7-0.2-1.3-0.5-2-1c-0.3-0.4-0.5-0.7-0.5-1.1c0-0.3,0.3-0.7,0.8-1
		c0.2-0.1,0.5-0.3,1-0.6c0.2-0.1,0.2-0.2,0.2-0.3c0-0.1-0.2-0.2-0.5-0.3c-0.5-0.1-1-0.3-1.6-0.4L35.8,22z M44,22.3
		c0.7,0,1.4,0.2,1.9,0.7c0.5,0.5,0.7,1.1,0.7,1.8v0.5c-0.1,1-0.3,1.8-0.6,2.6l-2.2-0.4c0.4-0.9,0.6-1.6,0.6-2.2
		c0-0.3-0.1-0.6-0.2-0.7c-0.2-0.1-0.4-0.2-0.8-0.2c-0.1,0-0.3,0-0.4,0c-0.6,1.4-0.9,2.6-0.9,3.7c0,0.4,0.6,0.6,1.8,0.6
		c0.8,0,1.7-0.2,2.7-0.5l0.5,2.1c-1.2,0.3-2.3,0.4-3.3,0.4H43c-0.8,0-1.5-0.2-2.3-0.7c-0.6-0.4-0.9-1-0.9-1.7c0-1.2,0.2-2.5,0.6-3.8
		L39.8,23C41.2,22.5,42.7,22.3,44,22.3z"/>
	<path d="M50.6,18.8l0.7,0.3c1.3-0.4,2.8-0.7,4.3-0.7c0.9,0,1.7,0.1,2.4,0.2c0.7,0.3,1.4,0.8,2.1,1.6c0.7,1,1.1,2.5,1.1,4.3v1
		c0,1.4-0.4,2.5-1.1,3.3c-1.1,1.4-2.6,2.1-4.4,2.1h-1.3c-1.7,0-3-0.4-4-1.1c-1.1-1.1-1.6-2.6-1.6-4.5C48.7,23,49.3,20.9,50.6,18.8z
		 M53.8,29.2c0-0.7,0-1.3,0-1.9c-0.7,0.1-1.3,0.3-2,0.6l-0.6-1.8c0.8-0.3,1.7-0.5,2.5-0.7c0-0.2,0-0.3,0-0.4c-0.7,0-1.4,0-2.1-0.1
		l0.3-1.8c0.6,0,1.1,0,1.7,0c0-0.1,0-0.2,0-0.3c-0.7,0.1-1.4,0.1-2.2,0.2l-0.1-1.1C51,23,50.8,24,50.7,24.9c0,1.7,0.3,2.8,0.9,3.4
		C52.3,28.8,53,29.1,53.8,29.2z M55.5,20.1c-1.1,0-2.3,0.3-3.7,0.8c-0.1,0.1-0.1,0.3-0.2,0.4c0.6-0.1,1.2-0.1,1.8-0.2
		c0-0.2,0-0.5-0.1-0.7l2-0.2c0,0.2,0.1,0.4,0.1,0.8c0.8,0,1.6-0.1,2.4-0.1C57.3,20.5,56.5,20.2,55.5,20.1z M58,21.2l0.2,1.6
		c-0.9,0-1.7,0-2.6,0.1c0,0.2,0,0.3,0,0.5c0.8,0,1.6,0.1,2.3,0.1l-0.2,1.8c-0.7,0-1.4-0.1-2.1-0.1c0,0.1,0,0.1,0,0.2
		c0,0,0.1,0,0.1,0c0.8,0,1.5,0.1,2,0.4c0.5,0.3,0.8,0.7,0.8,1.2v0.3c0,0.1,0,0.2,0,0.3c0.3-0.6,0.5-1.3,0.5-2.2c0-1.7-0.3-3-0.8-3.8
		C58.2,21.4,58.1,21.3,58,21.2z M57.4,28.8l-1-0.2c0.2-0.5,0.4-1,0.4-1.3c0-0.1-0.1-0.1-0.4-0.2c-0.2,0-0.4,0-0.6,0
		c0,0.9,0.1,1.6,0.1,2.1C56.5,29.1,57,29,57.4,28.8z"/>
	<path d="M62.8,21.4c0.2,0,0.4,0,0.6,0c0-0.5-0.1-1-0.1-1.5l2.2-0.2c0.1,0.6,0.1,1.3,0.2,1.9c0.4,0,0.7,0.1,1.1,0.1l0,0.4
		c0.3-0.1,0.6-0.2,0.9-0.3c0.2-0.6,0.3-1.3,0.5-2l2.3,0.5c-0.1,0.3-0.3,0.7-0.4,1c0.3,0,0.5-0.1,0.8-0.1c0.2-0.8,0.4-1.6,0.6-2.4
		l2.1,0.4c-0.2,0.7-0.3,1.4-0.5,2.1c0.4,0.1,0.8,0.3,1.2,0.5c0.7,0.5,1,1.1,1,1.8V24c-0.1,0.9-0.3,1.8-0.7,2.6l-2.2-0.4
		c0.4-0.8,0.6-1.6,0.6-2.1c0-0.3-0.2-0.6-0.5-0.7c-0.3,1.2-0.5,2.3-0.7,3.5l-2.1-0.4c0.2-1.1,0.4-2.2,0.7-3.2
		c-0.3,0-0.6,0.1-0.9,0.2c-0.3,1.2-0.4,2.4-0.4,3.6c0,0.5,0.1,0.9,0.3,1.1c0.2,0.3,0.6,0.4,1,0.4c0.7,0,2-0.3,3.7-0.8l0.5,2.2
		c-1.9,0.5-3.2,0.7-4.1,0.7H70c-0.8,0-1.5-0.2-2.1-0.6c-0.6-0.5-1-1.2-1.1-2.2c-1.1,0.5-2.3,0.9-3.7,1.1l-0.5-2
		c0.4-0.1,0.8-0.2,1.2-0.3c-0.1-1.1-0.2-2.2-0.3-3.2c-0.3,0-0.7,0-1,0L62.8,21.4z M65.8,23.6c0.1,0.8,0.1,1.5,0.2,2.3
		c0.2-0.1,0.3-0.1,0.5-0.2l0.3,1.1c0-0.8,0.1-1.7,0.3-2.7c-0.2,0.1-0.4,0.2-0.6,0.3l-0.3-0.8C66.1,23.6,66,23.6,65.8,23.6z"/>
	<path d="M78.6,18.8l0.7,0.3c1.3-0.4,2.8-0.7,4.3-0.7c0.9,0,1.7,0.1,2.4,0.2c0.7,0.3,1.4,0.8,2.1,1.6c0.7,1,1.1,2.5,1.1,4.3v1
		c0,1.4-0.4,2.5-1.1,3.3c-1.1,1.4-2.6,2.1-4.4,2.1h-1.3c-1.7,0-3-0.4-4-1.1c-1.1-1.1-1.6-2.6-1.6-4.5C76.7,23,77.3,20.9,78.6,18.8z
		 M83.5,20.1c-0.4,0-0.9,0-1.4,0.1l0.4,0.2c0,0.1-0.1,0.2-0.1,0.2c0.5-0.1,1-0.1,1.6-0.1c0.6,0,1.1,0.1,1.5,0.4
		c0.4,0.3,0.6,0.8,0.6,1.4c0,0.3-0.2,0.7-0.6,1.1c-0.1,0.1-0.2,0.2-0.3,0.3c0.5,0.1,1,0.1,1.5,0.2l-0.3,1.8
		c-1.1-0.2-2.2-0.3-3.3-0.5c-0.1,0.1-0.2,0.1-0.3,0.2c0.9,0.1,1.8,0.2,2.6,0.3l-0.2,1.7c-1.4-0.1-2.7-0.3-3.9-0.4l0.1-0.8
		c-0.3,0.2-0.6,0.4-1,0.6l-1.1-1.5c0.3-0.1,0.6-0.3,0.9-0.5c-0.1,0-0.3,0-0.4,0l0.3-1.8c1,0.1,1.9,0.2,2.8,0.3
		c0.2-0.1,0.4-0.2,0.5-0.4c0.3-0.1,0.4-0.3,0.4-0.4c0-0.3-0.1-0.4-0.4-0.4c-0.7,0.1-1.4,0.2-2.1,0.5c-0.1,0.1-0.1,0.3-0.2,0.4
		l-1.8-0.6c0.3-0.6,0.6-1.2,0.8-1.7c-0.1,0.1-0.3,0.1-0.4,0.2c-0.6,1.2-1,2.5-1.1,4c0,1.7,0.3,2.8,0.9,3.4c0.3,0.2,0.6,0.4,1,0.6
		l0.3-1.5c1.6,0.1,3.1,0.2,4.6,0.3l-0.1,1c0.4-0.2,0.8-0.5,1-0.9c0.4-0.6,0.7-1.5,0.7-2.5c0-1.7-0.3-3-0.8-3.8
		C85.8,20.7,84.8,20.2,83.5,20.1z M83.4,29.2c-0.8-0.1-1.6-0.1-2.4-0.2c0.4,0.1,0.9,0.2,1.3,0.2H83.4z"/>
	<path d="M102.4,26.3l0.2,2c-0.8,0-1.5,0-2.2,0c0.1,0.8,0.2,1.6,0.3,2.4L98.5,31c-0.1-0.9-0.2-1.8-0.3-2.6c-1,0-2,0.1-3,0.2
		c0.2,0.5,0.5,1.1,0.9,1.5l-1.8,0.9c-0.4-0.6-0.8-1.2-1-2l0.9-0.4c-0.9,0.1-1.8,0.1-2.7,0.2l-0.2-2c2.2-0.2,4.5-0.4,6.8-0.4
		c0-0.3-0.1-0.5-0.1-0.8l2.1-0.2c0,0.3,0.1,0.6,0.1,1C100.9,26.3,101.7,26.3,102.4,26.3z M98.6,18.4c1.2,0,2.1,0.2,2.7,0.6
		c0.6,0.4,0.8,1,0.8,1.8c0,0.8-0.2,1.3-0.7,1.6c-0.6,0.4-1.4,0.6-2.6,0.6c-2,0-3.7,0-5.3-0.1c0.1,0.2,0.2,0.4,0.4,0.5
		c0.3,0.1,0.7,0.2,1.4,0.2c1.7,0,3.9-0.3,6.8-0.8l0.3,1.9c-2.6,0.5-5,0.8-7.2,0.8c-1.3,0-2.2-0.2-2.8-0.7c-0.6-0.5-0.9-1.1-0.9-1.8
		c0-1.3,0.2-2.8,0.5-4.4l1.4,0.2C95.2,18.5,96.8,18.4,98.6,18.4z M93.8,20.6c0,0.2,0,0.3-0.1,0.4c1.5,0.1,3,0.1,4.5,0.1
		c0.6,0,1.2,0,1.5-0.1c0.2-0.1,0.3-0.2,0.3-0.3c0-0.2-0.1-0.3-0.3-0.4c-0.3-0.1-0.8-0.2-1.6-0.2C96.9,20.2,95.5,20.3,93.8,20.6z"/>
	<path d="M109.5,18.4l0.5,1.6c-0.9,0.2-1.8,0.5-2.7,0.7c0,0,0,0.1,0,0.1c0.4-0.1,0.8-0.1,1.2-0.1c0.5,0,1,0.1,1.4,0.4
		c0.4,0.3,0.6,1,0.6,2.1c0,2.1-0.2,4.6-0.6,7.5l-1.9-0.3c0.2-1.5,0.4-3,0.5-4.4c-0.5,0.1-1.1,0.2-1.7,0.3c0,0.1,0,0.3,0,0.4
		c0.5,0.1,0.9,0.2,1.3,0.3l-0.4,1.5c-0.3-0.1-0.6-0.2-0.9-0.3c0,0.6,0,1.2-0.1,1.8l-1.9-0.2c0-1.2,0-2.3,0.1-3.4c-0.1,0-0.1,0-0.2,0
		l-0.4-1.5c0.2,0,0.4,0,0.6-0.1c0.1-1.6,0.3-3.2,0.5-4.7l0.4,0.1l-0.3-0.9C107,19,108.3,18.7,109.5,18.4z M107,24.7
		c0.6-0.1,1.1-0.2,1.7-0.2c0-0.3,0-0.5,0-0.7v-0.1l-0.2,0.8c-0.5-0.2-0.9-0.4-1.3-0.4l0.4-1.3c0.4,0.1,0.8,0.2,1.1,0.3
		c-0.1-0.4-0.3-0.5-0.5-0.5c-0.3,0-0.6,0.1-0.9,0.2C107.1,23.4,107.1,24,107,24.7z M111,22.9l1.3,0.1c0.2,0,0.4-0.1,0.6-0.2
		c0.4-0.1,0.8-0.2,1.2-0.2c0.6,0,1.2,0.2,1.7,0.5c0.4,0.4,0.7,0.9,0.7,1.7c0,0.2,0,0.4-0.1,0.6c-0.2,1.4-0.3,2.3-0.3,2.7
		c0,0.2,0,0.3,0.1,0.3c0.3,0,0.6-0.1,0.8-0.3l0.5,2c-0.5,0.2-1,0.3-1.8,0.3c-0.6,0-1.1-0.2-1.4-0.5c-0.3-0.3-0.5-0.8-0.5-1.3
		c0-0.5,0.1-1.5,0.3-3.1c0-0.2,0.1-0.3,0.1-0.5s0-0.3,0-0.3c0-0.1-0.1-0.1-0.1-0.1c-0.1,0-0.3,0-0.5,0.1c-0.2,0-0.4,0.1-0.7,0.2
		c-0.2,1.8-0.3,3.6-0.3,5.5l-2.1-0.2C110.5,27.6,110.7,25.2,111,22.9z M114.6,18.3c0.2,0.7,0.4,1.3,0.7,1.9c0.7,0.1,1.3,0.2,2,0.3
		l-0.4,2.1c-2.4-0.3-4.4-0.5-6.1-0.6l0.4-2.1c0.6,0,1.1,0,1.7,0c-0.1-0.3-0.2-0.5-0.2-0.8L114.6,18.3z"/>
	<path d="M127.8,21.3c-2.5-0.3-5.1-0.5-7.6-0.7l0.4-2.2c3.3,0.2,6.5,0.5,9.7,0.9l-0.4,2.2c-0.5-0.1-1-0.1-1.5-0.2
		c0.1,0.7,0.2,1.5,0.3,2.3c0.7,0,1.4,0,2.2,0l0.2,2.3c-0.7,0-1.4,0-2.1,0c0.2,1.4,0.4,2.9,0.6,4.4l-2.4,0.3
		c-0.2-1.6-0.5-3.1-0.6-4.6c-1.2,0.1-2.4,0.1-3.6,0.2c-0.4,1.3-0.7,2.7-0.9,4.1l-2.3-0.5c0.2-1.1,0.4-2.2,0.7-3.3
		c-0.5,0-0.9,0.1-1.4,0.2l-0.2-2.2c0.8-0.1,1.5-0.2,2.3-0.3c0.3-0.9,0.6-1.9,1-2.7l2.4,0.5c-0.3,0.6-0.5,1.3-0.7,2
		c0.9-0.1,1.7-0.1,2.6-0.2c-0.1-0.8-0.2-1.5-0.3-2.2L127.8,21.3z"/>
	<path d="M137.6,18.1l2.2,0.5c-0.4,0.9-0.7,1.7-1.1,2.6c0.2,0,0.4,0,0.6-0.1c0.6-0.1,1.2-0.1,2-0.3c-0.4-0.4-0.9-0.8-1.4-1.1
		l1.4-1.3c0.7,0.4,1.4,0.9,1.9,1.5l-0.7,0.7c0.6-0.1,1.2-0.2,1.8-0.3l0.4,2.1c-1,0.2-2.3,0.4-4.1,0.6c-1.1,0.1-2,0.2-2.7,0.3
		c-0.1,0.2-0.1,0.4-0.2,0.6c1-0.2,2-0.3,3-0.3c1.3,0,2.3,0.2,3,0.5c0.7,0.3,1.1,0.8,1.1,1.4c0,0.7-0.2,1.3-0.7,1.6
		c-0.2,0.2-0.5,0.4-0.8,0.7c0.8,0.1,1.5,0.3,2.3,0.3l-0.4,2.2c-1.6-0.2-3-0.4-4.4-0.8c-0.9,0.6-2,1.2-3.2,1.8l-0.9-1.8
		c0.4-0.3,0.8-0.5,1.3-0.8c-0.6-0.2-1.1-0.4-1.6-0.6c-0.3,0.9-0.6,1.8-0.9,2.7l-2.2-0.5c0.8-2.5,1.6-4.8,2.4-6.9
		c-0.7-0.1-1.3-0.3-1.7-0.6c-0.5-0.4-0.7-0.9-0.7-1.6c0-0.9,0.3-1.7,0.9-2.6l2.3,0.5c-0.4,0.4-0.7,1-0.9,1.7c0,0.4,0.3,0.6,0.9,0.6
		C136.8,20.2,137.2,19.1,137.6,18.1z M140.3,27.2c0.3-0.2,0.7-0.4,1-0.7c0.4-0.3,0.7-0.5,0.7-0.6c0-0.1-0.6-0.2-1.7-0.2
		c-0.9,0-1.9,0.2-2.9,0.5C138.3,26.6,139.3,26.9,140.3,27.2z"/>
	<path d="M158.4,18.5l0.2,2.2c-1,0-2,0-2.9,0.1c0.4,0.2,0.7,0.4,1.1,0.6c0.8,0.4,1.2,0.9,1.2,1.6c0,0.4-0.1,0.7-0.3,0.9
		c0.6,0.7,0.9,1.4,0.9,2c0,0.8-0.5,1.3-1.2,1.5c-0.9,0.2-2.1,0.4-3.4,0.4c0.1,1,0.3,2,0.4,3.1l-2.6,0.3c-0.2-1.1-0.4-2.2-0.5-3.3
		c-1.2,0-2-0.1-2.6-0.3c-0.9-0.3-1.4-0.8-1.4-1.4c0-0.8,0.4-1.5,1.1-2.2c-0.2-0.2-0.3-0.5-0.3-0.8c0-0.4,0.3-0.8,0.8-1.3
		c0.3-0.2,0.5-0.4,0.8-0.5c-0.7,0.1-1.5,0.2-2.2,0.3l-0.2-2.2C151.1,18.8,154.8,18.5,158.4,18.5z M148.2,27.9l2.4,0.3
		c-0.3,0.9-0.4,1.8-0.4,2.7l-2.4-0.3C147.8,29.7,148,28.8,148.2,27.9z M150.2,24.6c-0.1,0.2-0.2,0.3-0.2,0.4c0,0.3,0.1,0.6,0.4,0.7
		c0.3,0.1,1.2,0.2,2.6,0.2c0.9,0,1.8-0.1,2.4-0.3c0.3-0.1,0.4-0.3,0.4-0.7c0-0.1-0.1-0.2-0.3-0.4c-1,0.1-2.3,0.2-4.1,0.2
		C150.9,24.7,150.5,24.7,150.2,24.6z M151.4,22.9c2,0,3.2-0.1,3.7-0.3c0.2,0,0.3-0.1,0.3-0.2c0-0.2-0.8-0.6-2.5-1.1
		c-1.3,0.5-2.1,0.9-2.4,1.2C150.6,22.8,150.8,22.9,151.4,22.9z M155.4,27.8c1.3,0.2,2.5,0.4,3.7,0.7l-0.7,2.1
		c-1.2-0.3-2.5-0.5-3.7-0.7L155.4,27.8z"/>
	<path d="M163.7,18.9l1.3,1.3c-1.2,0.9-1.9,1.6-2.1,1.9c-0.2,0.3-0.4,0.5-0.4,0.8c0,0.1,0.1,0.2,0.3,0.2c0,0,0.1,0,0.1,0
		c0.4-0.5,0.9-1,1.6-1.5l1.3,1.4c-1,0.6-1.7,1.4-2.2,2.4c0,0.3,0.1,0.4,0.3,0.4c0.3,0,0.7-0.2,1.3-0.5l0.5,2
		c-1.1,0.3-1.8,0.4-2.3,0.4l-0.2,0c-0.5,0-1-0.2-1.3-0.5c-0.3-0.3-0.4-0.7-0.4-1.1c0-0.4,0.1-0.9,0.3-1.4c-0.3-0.1-0.5-0.2-0.7-0.4
		c-0.4-0.4-0.5-0.8-0.5-1.3c0-0.4,0.2-1,0.6-1.8C161.7,20.5,162.6,19.7,163.7,18.9z M165.2,28l0.6,1.9c-1.1,0.4-2.4,0.7-3.9,0.9
		l-0.5-2C162.7,28.6,164,28.3,165.2,28z M169.7,18.2c0.2,0.7,0.5,1.3,0.9,1.8c0.9,0.1,1.7,0.1,2.5,0.2l-0.2,2.1
		c-0.7,0-1.3-0.1-2-0.1c0.8,0.7,1.6,1.5,2.2,2.4l-1.4,1.4c-0.2-0.2-0.4-0.4-0.5-0.6c-1.1,0.3-2.1,0.5-2.9,0.5l-0.3,0
		c-1.5,0-2.2-0.7-2.2-2c0-0.6,0.2-1.2,0.5-1.9c-0.3,0-0.6,0-0.9-0.1l0.3-2.1c0.7,0,1.5,0.1,2.2,0.1c-0.1-0.3-0.2-0.5-0.3-0.8
		L169.7,18.2z M166.3,26l2.1,0.2c-0.3,1.3-0.4,2.7-0.4,4.3l-2.1-0.2C165.9,28.8,166.1,27.4,166.3,26z M169.7,23.7
		c-0.2-0.2-0.4-0.4-0.6-0.6l1-1c-0.5,0-1-0.1-1.4-0.1c-0.3,0.5-0.5,0.9-0.6,1.4c0,0.3,0.1,0.5,0.3,0.5
		C168.7,23.9,169.2,23.8,169.7,23.7z M169.1,26l2.1,0.5c-0.3,0.6-0.4,1.1-0.4,1.6c0,0.2,0,0.3,0.1,0.4c0.1,0.1,0.2,0.2,0.3,0.2
		c0.5,0,1-0.2,1.5-0.3l0.4,2c-0.6,0.2-1.3,0.3-1.8,0.3h-0.4c-0.7,0-1.2-0.2-1.7-0.7c-0.4-0.4-0.5-0.9-0.5-1.6
		C168.7,27.4,168.8,26.7,169.1,26z"/>
</g>
</svg>
