<?xml version="1.0" encoding="utf-8"?>
<!-- Generator: Adobe Illustrator 16.0.0, SVG Export Plug-In . SVG Version: 6.00 Build 0)  -->
<!DOCTYPE svg PUBLIC "-//W3C//DTD SVG 1.1//EN" "http://www.w3.org/Graphics/SVG/1.1/DTD/svg11.dtd">
<svg version="1.1" id="图层_1" xmlns="http://www.w3.org/2000/svg" xmlns:xlink="http://www.w3.org/1999/xlink" x="0px" y="0px"
	 width="150px" height="40px" viewBox="0 0 150 40" enable-background="new 0 0 150 40" xml:space="preserve">
<g>
	<g>
		<path fill="#AADDE9" d="M54.155,38.953l-10.536-4.955l-9.124,4.955l-9.636-4.955l-10.536,4.955l6.599-14.244l6.793-2.307
			l6.698,2.307l6.346-2.307l6.799,2.307L54.155,38.953z"/>
		<path fill="#2C5679" d="M54.155,39.637c-0.099,0-0.2-0.023-0.289-0.064l-10.224-4.816l-8.817,4.799
			c-0.2,0.105-0.436,0.109-0.636,0.006l-9.341-4.811l-10.23,4.814c-0.259,0.123-0.565,0.072-0.771-0.135
			c-0.207-0.199-0.26-0.512-0.135-0.771l6.598-14.244c0.076-0.17,0.223-0.301,0.4-0.357l6.793-2.309
			c0.141-0.047,0.299-0.047,0.441,0l6.469,2.225l6.122-2.225c0.147-0.053,0.306-0.053,0.454-0.006l6.792,2.307
			c0.177,0.059,0.325,0.189,0.401,0.359l6.551,14.168c0.07,0.105,0.118,0.24,0.118,0.375c0,0.379-0.306,0.686-0.683,0.686H54.155z
			 M24.859,33.314c0.106,0,0.211,0.023,0.312,0.078l9.318,4.795l8.806-4.791c0.194-0.105,0.418-0.111,0.618-0.018l8.835,4.162
			l-5.686-12.279l-6.293-2.137l-6.122,2.227c-0.147,0.053-0.306,0.053-0.453,0.006l-6.475-2.232l-6.297,2.137l-5.686,12.279
			l8.834-4.162C24.659,33.338,24.759,33.314,24.859,33.314z"/>
		<path fill="#FFFFFF" d="M25.949,25.805l-3.114-3.121c-1.719-1.719-1.719-4.515,0-6.233c1.719-1.719,4.515-1.719,6.234,0
			c1.719,1.718,1.719,4.514,0,6.233L25.949,25.805z M43.089,31.914l-6.722-6.729c-3.714-3.715-3.714-9.735,0-13.45
			c3.714-3.714,9.736-3.714,13.45,0c3.715,3.714,3.715,9.735,0,13.45L43.089,31.914z"/>
		<path fill="#2C5679" d="M25.949,26.256c-0.118,0-0.236-0.047-0.324-0.135l-3.12-3.119c-1.896-1.896-1.896-4.979,0-6.875
			c0.918-0.918,2.143-1.424,3.438-1.424c1.301,0,2.52,0.506,3.438,1.424c1.896,1.896,1.896,4.98,0,6.875l-3.119,3.119
			C26.184,26.209,26.066,26.256,25.949,26.256z M25.949,15.615c-1.054,0-2.049,0.412-2.797,1.16c-1.542,1.542-1.542,4.049,0,5.592
			l2.797,2.795l2.796-2.795c1.542-1.543,1.542-4.05,0-5.592C27.996,16.027,27.008,15.615,25.949,15.615z"/>
		<path fill="#78D5DF" d="M24.906,20.613c-0.577-0.578-0.577-1.513,0-2.089c0.577-0.578,1.512-0.578,2.09,0
			c0.577,0.576,0.577,1.514,0,2.089C26.419,21.189,25.483,21.189,24.906,20.613z"/>
		<path fill="#2C5679" d="M25.949,21.502c-0.519,0-1.001-0.201-1.366-0.564c-0.365-0.365-0.565-0.849-0.565-1.367s0.2-1,0.565-1.365
			c0.365-0.365,0.854-0.564,1.366-0.564c0.512,0,1,0.199,1.365,0.564c0.365,0.364,0.565,0.848,0.565,1.365s-0.2,1-0.565,1.367
			C26.955,21.301,26.466,21.502,25.949,21.502z M25.949,18.545c-0.271,0-0.531,0.106-0.725,0.302c-0.194,0.194-0.3,0.446-0.3,0.723
			c0,0.271,0.106,0.53,0.3,0.726c0.389,0.388,1.06,0.388,1.449,0c0.194-0.195,0.3-0.448,0.3-0.726c0-0.276-0.106-0.528-0.3-0.723
			C26.484,18.653,26.225,18.545,25.949,18.545L25.949,18.545z M43.089,32.596c-0.177,0-0.348-0.064-0.482-0.199l-6.722-6.729
			c-3.974-3.973-3.974-10.442,0-14.416c1.925-1.924,4.485-2.983,7.205-2.983c2.72,0,5.28,1.06,7.205,2.983
			c1.924,1.924,2.984,4.485,2.984,7.205c0,2.718-1.06,5.279-2.984,7.205l-6.723,6.734C43.442,32.525,43.266,32.596,43.089,32.596
			L43.089,32.596z M43.089,9.635c-2.36,0-4.574,0.918-6.246,2.584c-3.443,3.443-3.443,9.042,0,12.484l6.246,6.246l6.245-6.246
			c3.443-3.441,3.443-9.041,0-12.484C47.669,10.553,45.449,9.635,43.089,9.635z"/>
		<path fill="#78D5DF" d="M39.787,21.766c-1.825-1.825-1.825-4.78,0-6.603c1.825-1.826,4.78-1.826,6.604,0
			c1.825,1.823,1.825,4.779,0,6.603C44.572,23.59,41.611,23.59,39.787,21.766z"/>
		<path fill="#2C5679" d="M43.089,23.814c-1.43,0-2.772-0.561-3.785-1.566c-1.012-1.012-1.565-2.353-1.565-3.783
			c0-1.432,0.559-2.772,1.565-3.786c1.013-1.013,2.355-1.565,3.785-1.565c1.431,0,2.772,0.559,3.785,1.565
			c2.089,2.09,2.089,5.481,0,7.569C45.867,23.262,44.52,23.814,43.089,23.814L43.089,23.814z M43.089,14.473
			c-1.065,0-2.066,0.418-2.819,1.165c-0.754,0.754-1.166,1.754-1.166,2.819c0,1.064,0.417,2.066,1.166,2.82
			c0.748,0.752,1.754,1.166,2.819,1.166s2.066-0.414,2.82-1.166c1.554-1.555,1.554-4.085,0-5.64
			C45.161,14.891,44.154,14.473,43.089,14.473z"/>
		<path fill="#2C5679" d="M40.675,33.154c-0.106,0-0.194-0.068-0.223-0.176c-0.03-0.123,0.046-0.246,0.17-0.271
			c0.424-0.1,0.671-0.223,0.73-0.281c0.094-0.09,0.235-0.082,0.324,0.012c0.089,0.094,0.083,0.234-0.012,0.324
			c-0.153,0.141-0.494,0.287-0.942,0.393H40.675z M38.286,33.252h-0.03c-0.67-0.098-1.307-0.277-1.901-0.555
			c-0.111-0.055-0.165-0.189-0.111-0.301c0.052-0.111,0.188-0.164,0.3-0.111c0.553,0.26,1.153,0.43,1.777,0.52
			c0.124,0.018,0.211,0.129,0.194,0.258C38.499,33.166,38.398,33.252,38.286,33.252z M34.513,31.314
			c-0.06,0-0.118-0.023-0.166-0.072c-0.436-0.459-0.824-0.994-1.159-1.596c-0.059-0.111-0.023-0.246,0.088-0.313
			c0.112-0.059,0.247-0.021,0.312,0.09c0.317,0.564,0.683,1.076,1.094,1.508c0.089,0.086,0.083,0.234-0.012,0.322
			C34.625,31.295,34.572,31.314,34.513,31.314z M31.97,27.854c-0.048,0-0.101-0.02-0.142-0.049c-0.454-0.359-1-0.629-1.63-0.813
			c-0.124-0.035-0.188-0.158-0.159-0.283c0.036-0.123,0.159-0.193,0.283-0.158c0.688,0.195,1.288,0.494,1.789,0.889
			c0.1,0.078,0.117,0.225,0.035,0.318C32.105,27.822,32.034,27.854,31.97,27.854L31.97,27.854z M26.973,26.762
			c-0.089,0-0.177-0.053-0.212-0.141c-0.047-0.111,0.006-0.24,0.117-0.295c0.042-0.018,0.283-0.105,1.001-0.094
			c0.124,0,0.224,0.105,0.224,0.229c0,0.125-0.106,0.225-0.229,0.225h-0.112c-0.53,0-0.701,0.061-0.701,0.061
			C27.025,26.762,26.996,26.762,26.973,26.762L26.973,26.762z"/>
	</g>
	<g>
		<path d="M66.208,39.604c-0.029,0.061-0.059,0.092-0.087,0.092c-0.035,0-0.072-0.031-0.109-0.092l-1.267-3.186l-1.525,3.186
			c-0.03,0.061-0.064,0.092-0.105,0.092c-0.029,0-0.06-0.031-0.092-0.092l-1.643-4.082c-0.123-0.309-0.2-0.504-0.232-0.584
			c-0.032-0.082-0.073-0.166-0.124-0.248c-0.051-0.084-0.109-0.145-0.173-0.182s-0.151-0.059-0.262-0.059v-0.178h2.132v0.178
			c-0.189,0-0.329,0.025-0.419,0.074c-0.09,0.047-0.135,0.154-0.135,0.32c0,0.119,0.079,0.391,0.238,0.811
			c0.159,0.422,0.3,0.766,0.422,1.033l0.594,1.504l1.054-2.295c-0.164-0.563-0.308-0.943-0.433-1.145
			c-0.126-0.203-0.327-0.303-0.604-0.303v-0.18h2.395v0.18c-0.463,0-0.695,0.119-0.695,0.354c0,0.148,0.065,0.389,0.197,0.717
			l1,2.598l0.966-2.361c0.204-0.492,0.306-0.814,0.306-0.971c0-0.225-0.174-0.336-0.521-0.336v-0.18h1.451v0.18
			c-0.093,0.033-0.175,0.092-0.245,0.18c-0.07,0.088-0.122,0.17-0.155,0.246c-0.034,0.078-0.08,0.188-0.138,0.326L66.208,39.604z"/>
		<path d="M74.429,36.758c0,0.52-0.108,1.004-0.326,1.453c-0.217,0.451-0.526,0.811-0.926,1.08c-0.401,0.27-0.867,0.404-1.396,0.404
			c-0.734,0-1.342-0.266-1.823-0.799c-0.481-0.531-0.721-1.166-0.721-1.906c0-0.527,0.1-1.008,0.3-1.439
			c0.199-0.43,0.492-0.77,0.878-1.018c0.386-0.248,0.841-0.371,1.366-0.371c0.516,0,0.974,0.107,1.375,0.326
			c0.4,0.215,0.713,0.523,0.938,0.918C74.316,35.805,74.429,36.254,74.429,36.758z M73.336,37.314c0-0.697-0.131-1.336-0.393-1.92
			c-0.262-0.582-0.698-0.873-1.307-0.873c-0.414,0-0.735,0.17-0.964,0.514c-0.229,0.342-0.343,0.779-0.343,1.313
			c0,0.879,0.144,1.596,0.433,2.152c0.288,0.559,0.699,0.838,1.232,0.838c0.434,0,0.767-0.195,0.997-0.592
			C73.221,38.354,73.336,37.877,73.336,37.314z"/>
		<path d="M79.8,38.512c0,0.143,0.055,0.234,0.164,0.275c0.109,0.043,0.316,0.064,0.623,0.064v0.195
			c-0.624,0.176-1.219,0.402-1.788,0.684v-0.879c-0.16,0.25-0.378,0.453-0.655,0.607c-0.277,0.156-0.562,0.234-0.853,0.234
			c-0.463,0-0.861-0.123-1.194-0.367c-0.334-0.244-0.585-0.568-0.752-0.971c-0.167-0.4-0.251-0.826-0.251-1.275
			c0-0.475,0.104-0.938,0.313-1.385c0.208-0.449,0.502-0.816,0.883-1.105c0.38-0.285,0.811-0.43,1.292-0.43
			c0.276,0,0.526,0.051,0.747,0.154c0.222,0.102,0.378,0.207,0.472,0.313v-1.686c0-0.234-0.014-0.396-0.043-0.482
			c-0.03-0.086-0.095-0.145-0.194-0.172c-0.101-0.027-0.279-0.043-0.535-0.043v-0.213c0.615-0.154,0.955-0.244,1.022-0.27
			l0.752-0.25v7H79.8z M78.799,36.025c0-0.455-0.104-0.82-0.31-1.094c-0.207-0.273-0.516-0.41-0.928-0.41
			c-0.312,0-0.576,0.104-0.797,0.313c-0.219,0.207-0.383,0.48-0.49,0.818c-0.108,0.338-0.162,0.693-0.162,1.07
			c0,0.752,0.149,1.34,0.451,1.764c0.301,0.424,0.7,0.637,1.195,0.637c0.307,0,0.555-0.1,0.75-0.297
			c0.193-0.199,0.29-0.41,0.29-0.635V36.025z"/>
		<path d="M81.771,36.313c0.01,0.652,0.176,1.246,0.502,1.777s0.797,0.797,1.412,0.797c0.367,0,0.707-0.119,1.021-0.355
			c0.313-0.238,0.57-0.535,0.771-0.895l0.196,0.068c-0.2,0.566-0.521,1.039-0.961,1.42c-0.44,0.379-0.944,0.57-1.513,0.57
			c-0.655,0-1.192-0.262-1.61-0.783c-0.419-0.52-0.627-1.145-0.627-1.871c0-0.559,0.099-1.057,0.295-1.492
			c0.195-0.436,0.476-0.773,0.836-1.02c0.361-0.246,0.784-0.367,1.269-0.367c0.623,0,1.121,0.199,1.492,0.6
			c0.373,0.398,0.566,0.914,0.584,1.551H81.771z M84.241,35.938c-0.021-0.393-0.125-0.715-0.309-0.977
			c-0.186-0.258-0.459-0.389-0.82-0.389c-0.74,0-1.176,0.455-1.308,1.363h2.437V35.938z"/>
		<path d="M90.954,38.512c0,0.143,0.055,0.234,0.162,0.275c0.109,0.043,0.318,0.064,0.623,0.064v0.195
			c-0.623,0.176-1.219,0.402-1.786,0.684v-0.879c-0.16,0.25-0.38,0.453-0.656,0.607c-0.276,0.156-0.562,0.234-0.853,0.234
			c-0.463,0-0.86-0.123-1.195-0.367c-0.333-0.244-0.583-0.568-0.752-0.971c-0.167-0.4-0.25-0.826-0.25-1.275
			c0-0.475,0.104-0.938,0.313-1.385c0.209-0.449,0.502-0.816,0.881-1.105c0.381-0.285,0.813-0.43,1.293-0.43
			c0.275,0,0.525,0.051,0.746,0.154c0.223,0.102,0.381,0.207,0.474,0.313v-1.686c0-0.234-0.015-0.396-0.044-0.482
			s-0.096-0.145-0.194-0.172c-0.101-0.027-0.278-0.043-0.535-0.043v-0.213c0.614-0.154,0.955-0.244,1.022-0.27l0.752-0.25V38.512z
			 M89.953,36.025c0-0.455-0.104-0.82-0.312-1.094s-0.516-0.41-0.927-0.41c-0.312,0-0.577,0.104-0.797,0.313
			c-0.22,0.207-0.386,0.48-0.492,0.818c-0.108,0.338-0.163,0.693-0.163,1.07c0,0.752,0.152,1.34,0.453,1.764
			s0.699,0.637,1.195,0.637c0.306,0,0.556-0.1,0.749-0.297c0.192-0.199,0.29-0.41,0.29-0.635v-2.166H89.953z"/>
		<path d="M93.012,35.756c0-0.34-0.024-0.572-0.075-0.701c-0.052-0.129-0.156-0.193-0.317-0.193c-0.093,0-0.261,0.029-0.503,0.088
			v-0.162l1.902-0.625v4.459c0,0.27,0.062,0.459,0.186,0.574c0.123,0.115,0.357,0.186,0.705,0.213v0.16h-2.793v-0.16
			c0.351-0.027,0.588-0.098,0.709-0.213c0.125-0.115,0.188-0.307,0.188-0.574L93.012,35.756L93.012,35.756z M92.815,32.121
			c0-0.168,0.061-0.313,0.178-0.43s0.262-0.178,0.431-0.178c0.164,0,0.304,0.059,0.42,0.176c0.116,0.115,0.175,0.26,0.175,0.432
			c0,0.166-0.059,0.307-0.175,0.42s-0.256,0.172-0.42,0.172c-0.169,0-0.313-0.059-0.431-0.174
			C92.875,32.424,92.815,32.285,92.815,32.121z"/>
		<path d="M96.972,37.852c0,0.811,0.174,1.215,0.521,1.215c0.115,0,0.229-0.023,0.336-0.07c0.137-0.053,0.285-0.172,0.449-0.357
			l0.146,0.127c-0.47,0.621-0.978,0.932-1.521,0.932c-0.379,0-0.629-0.121-0.75-0.363s-0.182-0.67-0.182-1.285V34.65h-0.359
			c-0.141,0-0.227-0.008-0.258-0.021c-0.033-0.016-0.049-0.063-0.049-0.141c0.213-0.154,0.405-0.32,0.577-0.494
			c0.172-0.176,0.38-0.412,0.623-0.713c0.242-0.299,0.397-0.488,0.465-0.566v1.561h1.162v0.375h-1.161V37.852z"/>
		<path d="M103.327,38.154c0,0.334,0.041,0.555,0.126,0.662c0.084,0.107,0.286,0.162,0.606,0.162v0.162
			c-0.271,0.082-0.824,0.268-1.664,0.555v-1.021l-0.25,0.271c-0.438,0.5-0.939,0.752-1.502,0.752c-0.461,0-0.807-0.15-1.035-0.449
			c-0.228-0.299-0.342-0.709-0.342-1.232v-2.707c0-0.359-0.047-0.594-0.137-0.697c-0.09-0.105-0.296-0.158-0.616-0.158v-0.18h1.753
			v3.686c0,0.693,0.293,1.039,0.879,1.039c0.297,0,0.606-0.125,0.93-0.375c0.109-0.09,0.178-0.186,0.205-0.287
			c0.029-0.1,0.045-0.279,0.045-0.539v-2.469c0-0.266-0.018-0.457-0.053-0.572c-0.035-0.113-0.112-0.191-0.233-0.236
			s-0.313-0.066-0.574-0.066v-0.178h1.862V38.154z"/>
		<path d="M106.483,39.066c0,0.195-0.069,0.354-0.205,0.479c-0.135,0.125-0.301,0.186-0.496,0.186c-0.184,0-0.34-0.068-0.471-0.203
			c-0.129-0.137-0.195-0.289-0.195-0.461c0-0.184,0.064-0.346,0.193-0.484c0.129-0.141,0.285-0.211,0.473-0.211
			c0.191,0,0.355,0.066,0.494,0.199C106.413,38.703,106.483,38.869,106.483,39.066z"/>
		<path d="M112.138,37.816c-0.283,0.586-0.607,1.045-0.975,1.379s-0.83,0.5-1.391,0.5c-0.414,0-0.791-0.119-1.129-0.355
			c-0.341-0.236-0.606-0.561-0.799-0.967c-0.191-0.406-0.287-0.85-0.287-1.33c0-0.814,0.232-1.5,0.696-2.053
			c0.465-0.553,1.114-0.828,1.951-0.828c0.245,0,0.501,0.043,0.771,0.129c0.268,0.086,0.496,0.217,0.688,0.391
			c0.189,0.174,0.295,0.383,0.313,0.627c0,0.143-0.055,0.264-0.162,0.367c-0.11,0.102-0.234,0.152-0.375,0.152
			c-0.135,0-0.258-0.053-0.369-0.16c-0.111-0.105-0.168-0.227-0.168-0.359c0-0.242-0.076-0.438-0.228-0.584
			s-0.379-0.221-0.683-0.221c-0.479,0-0.854,0.209-1.123,0.625c-0.268,0.416-0.402,0.895-0.402,1.434
			c0,0.592,0.167,1.121,0.499,1.59c0.332,0.467,0.78,0.701,1.347,0.701c0.613,0,1.17-0.383,1.664-1.146L112.138,37.816z"/>
		<path d="M118.063,36.758c0,0.52-0.107,1.004-0.324,1.453c-0.219,0.451-0.526,0.811-0.928,1.08c-0.4,0.27-0.865,0.404-1.396,0.404
			c-0.733,0-1.343-0.266-1.822-0.799c-0.481-0.531-0.721-1.166-0.721-1.906c0-0.527,0.099-1.008,0.299-1.439
			c0.199-0.43,0.492-0.77,0.878-1.018c0.387-0.248,0.842-0.371,1.366-0.371c0.517,0,0.974,0.107,1.375,0.326
			c0.399,0.215,0.713,0.523,0.937,0.918C117.95,35.805,118.063,36.254,118.063,36.758z M116.971,37.314
			c0-0.697-0.131-1.336-0.394-1.92c-0.262-0.582-0.697-0.873-1.307-0.873c-0.414,0-0.734,0.17-0.963,0.514
			c-0.229,0.342-0.345,0.779-0.345,1.313c0,0.879,0.146,1.596,0.433,2.152c0.289,0.559,0.7,0.838,1.233,0.838
			c0.435,0,0.767-0.195,0.996-0.592C116.856,38.354,116.971,37.877,116.971,37.314z"/>
		<path d="M119.317,35.756c0-0.318-0.047-0.531-0.144-0.635c-0.094-0.104-0.291-0.154-0.592-0.154V34.77l1.735-0.607v0.771
			c0,0.07,0.019,0.107,0.053,0.107c0.023,0,0.054-0.018,0.092-0.053c0.037-0.035,0.081-0.078,0.131-0.133
			c0.051-0.055,0.096-0.102,0.135-0.139c0.502-0.369,0.979-0.555,1.437-0.555c0.298,0,0.56,0.092,0.78,0.279
			c0.222,0.186,0.367,0.428,0.438,0.721c0.232-0.27,0.518-0.506,0.854-0.703c0.338-0.197,0.66-0.297,0.97-0.297
			c0.633,0,1.041,0.199,1.226,0.602c0.186,0.398,0.277,0.951,0.277,1.654v2.201c0,0.264,0.054,0.453,0.162,0.57
			c0.107,0.119,0.299,0.189,0.572,0.217v0.162h-2.486v-0.162c0.285-0.027,0.48-0.098,0.589-0.217
			c0.108-0.117,0.162-0.309,0.162-0.57v-2.398c0-0.568-0.062-0.947-0.185-1.143c-0.125-0.193-0.373-0.291-0.746-0.291
			c-0.528,0-0.951,0.238-1.271,0.717v3.115c0,0.264,0.055,0.453,0.163,0.57c0.108,0.119,0.306,0.189,0.589,0.217v0.162h-2.486
			v-0.162c0.276-0.027,0.469-0.098,0.574-0.217c0.105-0.117,0.158-0.309,0.158-0.57v-2.451c0-0.42-0.048-0.754-0.145-1.006
			c-0.1-0.25-0.317-0.375-0.66-0.375c-0.26,0-0.518,0.064-0.774,0.193c-0.259,0.131-0.46,0.299-0.604,0.506v3.133
			c0,0.264,0.055,0.453,0.162,0.57c0.11,0.119,0.307,0.189,0.59,0.217v0.162h-2.487v-0.162c0.276-0.027,0.469-0.098,0.575-0.217
			c0.105-0.117,0.158-0.309,0.158-0.57V35.756L119.317,35.756z"/>
	</g>
	<g>
		<path d="M66.293,11.301c1.052,0.423,1.578,0.896,1.578,1.421l-0.947,4.499l0.315,0.236v0.316l2.21-0.553l0.631,1.421
			c-0.474,0.421-1.631,0.71-3.473,0.868v1.814l0.631,2.605h0.315c0.789-1.895,1.421-2.867,1.895-2.922l0.316,0.316v0.869
			l-1.579,3.865c1.105,1.367,2.261,2.314,3.473,2.842l0.315-4.34h0.631c0.367,3.156,0.79,4.918,1.263,5.287V30.4l-0.947,0.867
			h-1.262c-1.527-0.896-3-2.264-4.42-4.104l-1.894,0.553h-0.631l-0.632-0.553l2.21-1.734l-1.578-5.289
			c-1.895,0.105-2.842,0.394-2.842,0.867v2.055h0.631l1.263-0.869h0.631v0.553c-1.685,1.578-2.525,2.684-2.525,3.314l0.315,3.473
			l-0.947,0.553c-2.525-0.789-3.788-1.369-3.788-1.736c0-0.686,0.947-2.156,2.841-4.42l0.316-2.604
			c-0.684,0.209-1.42,1.184-2.21,2.918l-0.315,0.318h-0.316c-1.315-0.422-2.052-0.922-2.209-1.5v-0.316
			c0-0.58,0.841-0.869,2.525-0.869c0.052-0.314,0.999-0.895,2.841-1.735l0.631-3.236h0.947l-0.316,2.052v0.316
			c2.315,0,3.578-1.867,3.789-5.604l-0.947-2.053l0.315-0.314h0.95V11.301z M65.03,13.67l0.315,0.236v1.184l-0.947,0.947h-2.21
			l-1.894-1.5C61.031,13.959,62.609,13.67,65.03,13.67z M70.397,14.854c1.473,0.158,2.21,0.447,2.21,0.869v0.314l-1.263,1.185
			l-1.578-1.814L70.397,14.854z"/>
		<path d="M80.735,10.75h0.631c0.578,0,1.025,0.922,1.341,2.762c-0.685,1.158-1.578,1.736-2.683,1.736l-2.053,4.5l0.395,1.419
			c1.685-1.419,3.025-2.13,4.025-2.13c0.896,1.053,1.342,2.341,1.342,3.865c-0.473,4.104-2.158,6.156-5.051,6.156h-0.316
			c-1.157,0-1.842-1.842-2.051-5.523c0-2.156,0.895-5.023,2.684-8.602C78.999,13.459,79.577,12.065,80.735,10.75z M78.999,23.535
			l2.684,0.709l0.395-0.314v-2.445l-0.711-0.711h-0.314C80.629,20.826,79.944,21.746,78.999,23.535z M78.999,24.955v0.316
			l0.395,1.734c1.156,0,1.815-0.342,1.973-1.023v-0.711l-0.314,0.395h-0.314l-1.026-0.711H78.999z M88.312,16.985h3.867
			c0.684,0.21,1.025,0.895,1.025,2.053v7.259c0,2.789-2.262,4.184-6.787,4.184c-1.578,0-2.814-0.947-3.709-2.84l0.395-0.316h0.316
			l1.341,1.42h0.71c4.262-0.789,6.393-1.945,6.393-3.473l0.315-2.051l-0.315-3.472v-2.053h-3.551V16.985z M88.469,14.538v1.736
			l0.316,1.736l-2.999,2.447l-0.711-0.711v-0.315c1.421-1.683,2.341-3.314,2.763-4.894H88.469z M86.103,22.902
			c1.683,0,2.92,0.553,3.709,1.66v0.393l-0.632,0.711h-0.711l-3.394-2.445l0.396-0.316h0.632V22.902z"/>
		<path d="M103.78,12.644c0.367,0,1.734,1.396,4.103,4.183c1.579-1.578,3.209-2.367,4.896-2.367l0.867,1.5
			c-0.315,1.053-1.475,2.446-3.474,4.183l0.315,1.815l-0.315,0.867h-0.867c-0.788-0.367-1.185-0.973-1.185-1.814h-0.237
			c-0.894,0.633-1.787,0.947-2.683,0.947l-0.236-0.314h-0.632v0.314c3.366,1.578,6.287,2.367,8.761,2.367l1.421-0.316
			c0,0.424,0.289,0.633,0.868,0.633v0.631c0,0.949-1.553,1.527-4.656,1.736c-2.736-0.264-5.341-1.342-7.813-3.234
			c-0.842,1.262-1.605,2.947-2.288,5.051l-2.054,1.814h-0.551c-0.58-0.158-0.869-0.867-0.869-2.131l0.553-6.551
			c-0.789,0-1.368-0.5-1.735-1.5v-0.632c1.735-0.946,2.604-1.946,2.604-2.999c0-1.21,0.287-1.814,0.867-1.814h0.553v0.314
			l-0.235,2.131h0.235l1.736-0.947l0.631,0.947v0.553c-2.523,2.21-3.787,4.21-3.787,5.998l-0.314,2.998l2.919-4.498l-0.552-2.05
			l0.868-0.316l1.735,0.63v-0.63h0.235l-0.868-4.814l0.316-0.314h0.314c0.789,2.42,1.368,3.63,1.736,3.63l0.868-0.868v-0.316
			l-2.604-3.313l-0.314,0.315h-0.553v-0.947C102.358,13.09,102.833,12.801,103.78,12.644z M106.147,20.458h1.104v-0.946h-0.237
			L106.147,20.458z M108.752,18.01l0.868,1.263c1.631-0.841,2.499-1.551,2.604-2.131v-0.316h-0.316
			C110.962,16.827,109.909,17.221,108.752,18.01z"/>
		<path d="M126.036,13.907h0.553l-0.553,1.736l1.42-0.314l0.632,0.551l-2.052,4.42h3.787l0.554,0.554
			c-0.265,0.789-0.947,1.184-2.054,1.184h-1.42l0.238-0.316v-0.314l-0.238-0.236h-0.314c-0.686,0-2.236,0.867-4.656,2.604
			c-0.896,0.58-1.764,0.869-2.604,0.869l0.313,0.313v2.527l2.844-0.238h0.631l0.552,0.553v0.316c0,0.262-1.341,0.631-4.024,1.104
			c-1.578,0-2.367-1.42-2.367-4.262v-2.367c0-5.05,0.578-7.576,1.735-7.576l0.632,1.184l-0.314,2.053v3.789l0.314,1.42h0.867
			c0.842,0,1.789-0.475,2.844-1.42h-0.869l-1.975,0.236c0-0.367,1.553-1.025,4.657-1.974l1.735-4.104h-0.867
			c-0.526,0.264-1.211,1.133-2.053,2.604l-0.315,0.315h-0.313l-0.238-0.315v-0.236C123.116,17.722,124.09,16.168,126.036,13.907z
			 M127.456,11.301h2.921c2.313,1.632,3.474,2.791,3.474,3.473l-0.554,3.473l0.868,8.998v1.736c0,0.945-1.264,1.709-3.788,2.289
			c-2.054,0-3.788-0.869-5.209-2.605v-0.553h0.868l1.736,1.105h2.604c0.945,0,1.421-0.186,1.421-0.553l0.313-1.422l-0.313-3.471
			v-8.129c-0.315-2.313-1.869-3.472-4.655-3.472l-3.158,1.104V13.04C123.983,12.513,125.142,11.934,127.456,11.301z M124.853,22.588
			h2.053l0.552,0.553c-0.21,0.789-0.604,1.184-1.183,1.184v0.631c0.576,0,0.867,0.186,0.867,0.553v0.553l-0.867,0.869h-0.869
			c-0.737-0.316-1.105-0.975-1.105-1.975l0.869-0.867l-0.869-0.947L124.853,22.588z"/>
	</g>
</g>
</svg>
