<?xml version="1.0" encoding="utf-8"?>
<!-- Generator: Adobe Illustrator 16.0.0, SVG Export Plug-In . SVG Version: 6.00 Build 0)  -->
<svg version="1.2" baseProfile="tiny" id="图层_1"
	 xmlns="http://www.w3.org/2000/svg" xmlns:xlink="http://www.w3.org/1999/xlink" x="0px" y="0px" width="230px" height="40px"
	 viewBox="-40 0 230 40" xml:space="preserve">
<g>
	<path fill="#AADDE9" d="M7.9,35.8l-10.5-5l-9.1,5l-9.6-5l-10.5,5l6.6-14.2l6.8-2.3l6.7,2.3l6.3-2.3l6.8,2.3L7.9,35.8z"/>
	<path fill="#2C5679" d="M7.9,36.5c-0.1,0-0.2,0-0.3-0.1l-10.2-4.8l-8.8,4.8c-0.2,0.1-0.4,0.1-0.6,0l-9.3-4.8l-10.2,4.8
		c-0.3,0.1-0.6,0.1-0.8-0.1c-0.2-0.2-0.3-0.5-0.1-0.8l6.6-14.2c0.1-0.2,0.2-0.3,0.4-0.4l6.8-2.3c0.1,0,0.3,0,0.4,0l6.5,2.2l6.1-2.2
		c0.1-0.1,0.3-0.1,0.5,0l6.8,2.3c0.2,0.1,0.3,0.2,0.4,0.4l6.6,14.2c0.1,0.1,0.1,0.2,0.1,0.4C8.6,36.2,8.3,36.5,7.9,36.5L7.9,36.5
		L7.9,36.5z M-21.4,30.2c0.1,0,0.2,0,0.3,0.1l9.3,4.8l8.8-4.8c0.2-0.1,0.4-0.1,0.6,0l8.8,4.2L0.8,22.1L-5.5,20l-6.1,2.2
		c-0.1,0.1-0.3,0.1-0.5,0l-6.5-2.2l-6.3,2.1l-5.7,12.3l8.8-4.2C-21.6,30.2-21.5,30.2-21.4,30.2z"/>
	<path fill="#FFFFFF" d="M-20.3,22.7l-3.1-3.1c-1.7-1.7-1.7-4.5,0-6.2c1.7-1.7,4.5-1.7,6.2,0c1.7,1.7,1.7,4.5,0,6.2L-20.3,22.7z
		 M-3.2,28.8L-9.9,22c-3.7-3.7-3.7-9.7,0-13.5c3.7-3.7,9.7-3.7,13.4,0c3.7,3.7,3.7,9.7,0,13.5L-3.2,28.8z"/>
	<path fill="#2C5679" d="M-20.3,23.1c-0.1,0-0.2,0-0.3-0.1l-3.1-3.1c-1.9-1.9-1.9-5,0-6.9c0.9-0.9,2.1-1.4,3.4-1.4
		c1.3,0,2.5,0.5,3.4,1.4c1.9,1.9,1.9,5,0,6.9L-20,23C-20.1,23.1-20.2,23.1-20.3,23.1z M-20.3,12.5c-1.1,0-2,0.4-2.8,1.2
		c-1.5,1.5-1.5,4,0,5.6l2.8,2.8l2.8-2.8c1.5-1.5,1.5-4.1,0-5.6C-18.3,12.9-19.3,12.5-20.3,12.5z"/>
	<path fill="#78D5DF" d="M-21.4,17.5c-0.6-0.6-0.6-1.5,0-2.1c0.6-0.6,1.5-0.6,2.1,0c0.6,0.6,0.6,1.5,0,2.1
		C-19.9,18-20.8,18-21.4,17.5z"/>
	<path fill="#2C5679" d="M-20.3,18.4c-0.5,0-1-0.2-1.4-0.6c-0.4-0.4-0.6-0.8-0.6-1.4s0.2-1,0.6-1.4c0.4-0.4,0.9-0.6,1.4-0.6
		c0.5,0,1,0.2,1.4,0.6c0.4,0.4,0.6,0.8,0.6,1.4c0,0.5-0.2,1-0.6,1.4C-19.3,18.2-19.8,18.4-20.3,18.4z M-20.3,15.4
		c-0.3,0-0.5,0.1-0.7,0.3c-0.2,0.2-0.3,0.4-0.3,0.7c0,0.3,0.1,0.5,0.3,0.7c0.4,0.4,1.1,0.4,1.4,0c0.2-0.2,0.3-0.4,0.3-0.7
		c0-0.3-0.1-0.5-0.3-0.7C-19.8,15.5-20.1,15.4-20.3,15.4L-20.3,15.4z M-3.2,29.5c-0.2,0-0.3-0.1-0.5-0.2l-6.7-6.7
		c-4-4-4-10.4,0-14.4c1.9-1.9,4.5-3,7.2-3c2.7,0,5.3,1.1,7.2,3c1.9,1.9,3,4.5,3,7.2c0,2.7-1.1,5.3-3,7.2l-6.7,6.7
		C-2.8,29.4-3,29.5-3.2,29.5L-3.2,29.5z M-3.2,6.5c-2.4,0-4.6,0.9-6.2,2.6c-3.4,3.4-3.4,9,0,12.5l6.2,6.2L3,21.6
		c3.4-3.4,3.4-9,0-12.5C1.4,7.4-0.8,6.5-3.2,6.5z"/>
	<path fill="#78D5DF" d="M-6.5,18.6c-1.8-1.8-1.8-4.8,0-6.6c1.8-1.8,4.8-1.8,6.6,0c1.8,1.8,1.8,4.8,0,6.6
		C-1.7,20.4-4.7,20.4-6.5,18.6z"/>
	<path fill="#2C5679" d="M-3.2,20.7c-1.4,0-2.8-0.6-3.8-1.6c-1-1-1.6-2.4-1.6-3.8c0-1.4,0.6-2.8,1.6-3.8c1-1,2.4-1.6,3.8-1.6
		c1.4,0,2.8,0.6,3.8,1.6c2.1,2.1,2.1,5.5,0,7.6C-0.4,20.1-1.8,20.7-3.2,20.7L-3.2,20.7z M-3.2,11.3c-1.1,0-2.1,0.4-2.8,1.2
		c-0.8,0.8-1.2,1.8-1.2,2.8c0,1.1,0.4,2.1,1.2,2.8c0.7,0.8,1.8,1.2,2.8,1.2s2.1-0.4,2.8-1.2c1.6-1.6,1.6-4.1,0-5.6
		C-1.1,11.7-2.1,11.3-3.2,11.3z"/>
	<path fill="#2C5679" d="M-5.6,30c-0.1,0-0.2-0.1-0.2-0.2c0-0.1,0-0.2,0.2-0.3c0.4-0.1,0.7-0.2,0.7-0.3c0.1-0.1,0.2-0.1,0.3,0
		c0.1,0.1,0.1,0.2,0,0.3C-4.8,29.8-5.1,29.9-5.6,30L-5.6,30L-5.6,30z M-8,30.1L-8,30.1c-0.7-0.1-1.3-0.3-1.9-0.6
		c-0.1-0.1-0.2-0.2-0.1-0.3c0.1-0.1,0.2-0.2,0.3-0.1c0.6,0.3,1.2,0.4,1.8,0.5c0.1,0,0.2,0.1,0.2,0.3C-7.8,30-7.9,30.1-8,30.1z
		 M-11.8,28.2c-0.1,0-0.1,0-0.2-0.1c-0.4-0.5-0.8-1-1.2-1.6c-0.1-0.1,0-0.2,0.1-0.3c0.1-0.1,0.2,0,0.3,0.1c0.3,0.6,0.7,1.1,1.1,1.5
		c0.1,0.1,0.1,0.2,0,0.3C-11.7,28.2-11.7,28.2-11.8,28.2z M-14.3,24.7c0,0-0.1,0-0.1,0c-0.5-0.4-1-0.6-1.6-0.8
		c-0.1,0-0.2-0.2-0.2-0.3c0-0.1,0.2-0.2,0.3-0.2c0.7,0.2,1.3,0.5,1.8,0.9c0.1,0.1,0.1,0.2,0,0.3C-14.2,24.7-14.3,24.7-14.3,24.7
		L-14.3,24.7z M-19.3,23.6c-0.1,0-0.2-0.1-0.2-0.1c0-0.1,0-0.2,0.1-0.3c0,0,0.3-0.1,1-0.1c0.1,0,0.2,0.1,0.2,0.2
		c0,0.1-0.1,0.2-0.2,0.2h-0.1C-19.1,23.5-19.2,23.6-19.3,23.6C-19.3,23.6-19.3,23.6-19.3,23.6L-19.3,23.6z"/>
</g>
<g>
	<path fill="#2C5679" d="M13.4,21l2.5,0.6c-0.5,1.8-1,3.7-1.3,5.7l-2.5-0.6C12.4,24.7,12.8,22.8,13.4,21z M18.2,16.9
		c1.2,1.3,2,2.8,2.6,4.3c0.6,1.2,0.9,3,0.9,5.4c0,1.3-0.3,2.3-0.8,2.9c-0.7,0.7-1.5,1-2.6,1c-0.9,0-1.7-0.1-2.3-0.2l-0.3-2.7
		c0.8,0.1,1.5,0.2,2.1,0.2c0.3,0,0.6-0.1,0.8-0.3c0.2-0.2,0.3-0.5,0.3-1c0-1.5-0.2-2.8-0.5-3.8c-0.6-1.6-1.4-3-2.4-4.2L18.2,16.9z
		 M23.2,19.8c1.1,0.9,2.2,2.1,3.2,3.6l-2.1,1.7c-1-1.5-2-2.7-3.1-3.6L23.2,19.8z"/>
	<path fill="#2C5679" d="M41.9,17.4l0.2,2.3c-1,0-1.9,0-2.9,0c-0.2,0.4-0.3,0.7-0.5,1.1l-2.4-0.8c0-0.1,0.1-0.1,0.1-0.2
		c-0.9,0-1.8,0.1-2.7,0.1c0,0.3,0.1,0.5,0.1,0.8l-2.6,0.3c-0.1-0.3-0.1-0.6-0.1-0.9c-0.8,0.1-1.7,0.1-2.5,0.2l-0.2-2.3
		c0.8-0.1,1.6-0.1,2.4-0.2c0-0.3-0.1-0.7-0.1-1l2.6-0.3c0.1,0.4,0.1,0.7,0.2,1.1c1.3-0.1,2.7-0.1,4.1-0.1c0.2-0.4,0.4-0.8,0.6-1.2
		l2.5,0.8c-0.1,0.1-0.1,0.3-0.2,0.4C40.8,17.4,41.3,17.4,41.9,17.4z M29.4,20.6c0.6,0,1.5,0.3,2.9,0.9c0.9,0.4,1.4,1,1.4,1.6
		c0,0.4-0.2,0.8-0.7,1.1c-0.6,0.4-1,0.6-1.2,0.8c-0.3,0.1-0.4,0.3-0.4,0.4c0,0.2,0.7,0.4,2.2,0.7l-0.9,1.8l0.6,1.8
		c-1.2,0.5-2.5,0.8-3.9,1.1l-0.6-2.3c0.9-0.2,1.8-0.4,2.7-0.6c-0.8-0.2-1.5-0.6-2.3-1.1c-0.4-0.4-0.5-0.8-0.5-1.3
		c0-0.4,0.3-0.8,0.9-1.1c0.2-0.2,0.6-0.4,1.1-0.7c0.2-0.1,0.3-0.2,0.3-0.3c0-0.1-0.2-0.3-0.6-0.4c-0.6-0.1-1.2-0.3-1.8-0.5
		L29.4,20.6z M38.8,21c0.9,0,1.6,0.3,2.1,0.8c0.6,0.6,0.8,1.3,0.8,2.1v0.5c-0.1,1.1-0.3,2.1-0.7,3l-2.6-0.5c0.5-1,0.7-1.8,0.7-2.5
		c0-0.4-0.1-0.7-0.3-0.8c-0.2-0.1-0.5-0.2-0.9-0.2c-0.2,0-0.3,0-0.5,0c-0.7,1.6-1.1,3-1.1,4.2c0,0.5,0.7,0.7,2,0.7
		c0.9,0,1.9-0.2,3.1-0.5l0.5,2.5c-1.4,0.3-2.6,0.5-3.7,0.5h-0.9c-0.9,0-1.8-0.3-2.6-0.8c-0.7-0.5-1-1.1-1-1.9c0-1.4,0.2-2.8,0.7-4.3
		l-0.7-2C35.6,21.2,37.2,21,38.8,21z"/>
	<path fill="#2C5679" d="M46.3,17l0.8,0.4c1.5-0.5,3.2-0.8,4.9-0.8c1,0,1.9,0.1,2.7,0.3c0.8,0.3,1.6,0.9,2.4,1.9
		c0.8,1.2,1.3,2.8,1.3,4.9v1.1c0,1.6-0.4,2.9-1.2,3.8c-1.2,1.6-2.9,2.3-5.1,2.3h-1.5c-1.9,0-3.5-0.4-4.6-1.3
		c-1.3-1.2-1.9-2.9-1.9-5.2C44.1,21.8,44.8,19.3,46.3,17z M50,28.9c0-0.8,0-1.5,0-2.1c-0.8,0.1-1.5,0.4-2.2,0.7l-0.7-2
		c1-0.3,1.9-0.6,2.8-0.8c0-0.2,0-0.3,0-0.5c-0.8,0-1.6-0.1-2.4-0.1l0.3-2c0.7,0,1.3,0,1.9,0c0-0.1,0-0.2,0-0.3
		c-0.8,0.1-1.7,0.1-2.5,0.2l-0.1-1.2c-0.4,1-0.6,2.1-0.6,3.2c0,2,0.3,3.3,1,3.9C48.2,28.5,49.1,28.8,50,28.9z M51.9,18.5
		c-1.2,0-2.6,0.3-4.2,1c-0.1,0.1-0.1,0.3-0.2,0.4c0.7-0.1,1.4-0.1,2.1-0.2c0-0.3,0-0.5-0.1-0.8l2.3-0.3c0,0.2,0.1,0.5,0.1,0.9
		c0.9,0,1.8-0.1,2.7-0.1C54,18.9,53.1,18.6,51.9,18.5z M54.8,19.7l0.2,1.9c-1,0-2,0-3,0.1c0,0.2,0,0.4,0,0.5c0.9,0,1.8,0.1,2.7,0.1
		l-0.2,2c-0.8,0-1.6-0.1-2.4-0.1c0,0.1,0,0.1,0,0.2c0,0,0.1,0,0.1,0c0.9,0,1.7,0.2,2.3,0.5c0.6,0.4,0.9,0.8,0.9,1.3v0.3
		c0,0.1,0,0.2,0,0.4c0.4-0.7,0.5-1.5,0.5-2.5c0-2-0.3-3.4-0.9-4.4C55,19.9,54.9,19.8,54.8,19.7z M54,28.4l-1.1-0.2
		c0.3-0.6,0.4-1.1,0.4-1.5c0-0.1-0.1-0.2-0.4-0.2c-0.2,0-0.4,0-0.7,0c0.1,1,0.1,1.8,0.1,2.3C53,28.8,53.6,28.6,54,28.4z"/>
	<path fill="#2C5679" d="M60.3,19.9c0.2,0,0.5,0,0.7,0c-0.1-0.6-0.1-1.2-0.2-1.8l2.5-0.3c0.1,0.7,0.1,1.4,0.2,2.2
		c0.4,0,0.8,0.1,1.3,0.1l0,0.4c0.4-0.1,0.7-0.3,1.1-0.3c0.2-0.7,0.4-1.5,0.6-2.3l2.6,0.5c-0.2,0.4-0.3,0.8-0.4,1.1
		c0.3,0,0.6-0.1,0.9-0.1c0.2-1,0.4-1.9,0.7-2.7l2.4,0.5c-0.2,0.8-0.4,1.6-0.6,2.4c0.5,0.1,1,0.3,1.3,0.5c0.8,0.6,1.2,1.3,1.2,2v0.5
		c-0.1,1.1-0.4,2-0.8,2.9l-2.5-0.4c0.5-1,0.7-1.8,0.7-2.4c0-0.4-0.2-0.7-0.5-0.8c-0.3,1.3-0.6,2.7-0.8,4l-2.4-0.5
		c0.3-1.3,0.5-2.5,0.8-3.6c-0.4,0-0.7,0.1-1.1,0.2c-0.3,1.3-0.4,2.7-0.4,4.1c0,0.6,0.1,1,0.4,1.3c0.3,0.3,0.6,0.4,1.1,0.4
		c0.8,0,2.2-0.3,4.2-0.9l0.6,2.6c-2.1,0.5-3.7,0.8-4.7,0.8h-0.5c-0.9,0-1.7-0.2-2.4-0.7c-0.7-0.6-1.1-1.4-1.3-2.5
		c-1.2,0.6-2.6,1-4.2,1.3l-0.6-2.3c0.5-0.1,1-0.2,1.4-0.4c-0.1-1.3-0.2-2.5-0.3-3.6c-0.4,0-0.8,0-1.2,0L60.3,19.9z M63.7,22.5
		c0.1,0.9,0.1,1.8,0.2,2.7c0.2-0.1,0.4-0.1,0.5-0.2l0.4,1.2c0-0.9,0.1-1.9,0.3-3.1c-0.2,0.1-0.5,0.2-0.7,0.3l-0.3-0.9
		C64,22.5,63.9,22.5,63.7,22.5z"/>
	<path fill="#2C5679" d="M78.3,17l0.8,0.4c1.5-0.5,3.2-0.8,4.9-0.8c1,0,1.9,0.1,2.7,0.3c0.8,0.3,1.6,0.9,2.4,1.9
		c0.8,1.2,1.3,2.8,1.3,4.9v1.1c0,1.6-0.4,2.9-1.2,3.8c-1.2,1.6-2.9,2.3-5.1,2.3h-1.5c-1.9,0-3.5-0.4-4.6-1.3
		c-1.3-1.2-1.9-2.9-1.9-5.2C76.1,21.8,76.8,19.3,78.3,17z M83.9,18.5c-0.5,0-1,0.1-1.5,0.2l0.5,0.2c-0.1,0.1-0.1,0.2-0.1,0.3
		c0.6-0.1,1.2-0.1,1.8-0.1c0.7,0,1.3,0.1,1.7,0.4c0.5,0.3,0.7,0.9,0.7,1.6c0,0.4-0.3,0.8-0.7,1.3c-0.1,0.1-0.2,0.2-0.3,0.3
		c0.6,0.1,1.1,0.2,1.7,0.3l-0.4,2.1c-1.3-0.2-2.5-0.4-3.7-0.5c-0.1,0.1-0.2,0.2-0.4,0.2c1,0.1,2,0.2,3,0.3l-0.2,1.9
		c-1.6-0.2-3.1-0.3-4.5-0.5l0.1-0.9c-0.4,0.2-0.7,0.4-1.1,0.7l-1.3-1.7c0.4-0.2,0.7-0.3,1-0.5c-0.1,0-0.3,0-0.5,0l0.4-2
		c1.1,0.1,2.2,0.2,3.2,0.3c0.2-0.1,0.4-0.3,0.6-0.4c0.3-0.2,0.5-0.3,0.5-0.5c0-0.3-0.1-0.5-0.4-0.5c-0.8,0.1-1.6,0.3-2.5,0.6
		c-0.1,0.2-0.1,0.3-0.2,0.4l-2-0.7c0.3-0.7,0.6-1.3,0.9-1.9c-0.2,0.1-0.3,0.1-0.5,0.2c-0.7,1.4-1.1,2.9-1.2,4.5c0,2,0.3,3.3,1,3.9
		c0.3,0.3,0.7,0.5,1.1,0.7l0.3-1.7c1.8,0.1,3.6,0.2,5.2,0.4L86,28.4c0.5-0.3,0.9-0.6,1.2-1c0.5-0.7,0.8-1.7,0.8-2.9
		c0-2-0.3-3.4-0.9-4.4C86.5,19.1,85.4,18.6,83.9,18.5z M83.8,28.9c-1-0.1-1.9-0.2-2.8-0.2c0.5,0.2,1,0.2,1.5,0.2H83.8z"/>
	<path fill="#2C5679" d="M105.5,25.5l0.3,2.3c-0.9,0-1.7,0-2.6,0c0.1,0.9,0.2,1.8,0.3,2.8l-2.4,0.3c-0.1-1.1-0.2-2.1-0.3-3
		c-1.1,0-2.3,0.1-3.5,0.2c0.3,0.6,0.6,1.2,1,1.8l-2.1,1c-0.5-0.7-0.9-1.4-1.2-2.3l1-0.4c-1,0.1-2.1,0.2-3.1,0.2l-0.3-2.3
		c2.5-0.2,5.1-0.4,7.8-0.5c0-0.3-0.1-0.6-0.1-0.9l2.4-0.3c0.1,0.4,0.1,0.7,0.1,1.1C103.8,25.5,104.7,25.5,105.5,25.5z M101.1,16.5
		c1.4,0,2.4,0.2,3.1,0.7c0.6,0.4,1,1.1,1,2c0,0.9-0.3,1.5-0.8,1.8c-0.6,0.4-1.6,0.7-3,0.7c-2.3,0-4.3,0-6-0.1
		c0.1,0.2,0.2,0.4,0.4,0.5c0.3,0.2,0.8,0.3,1.6,0.3c1.9,0,4.5-0.3,7.8-0.9l0.4,2.2c-2.9,0.6-5.7,0.9-8.3,0.9c-1.5,0-2.5-0.3-3.2-0.8
		c-0.7-0.5-1-1.2-1-2c0-1.5,0.2-3.2,0.6-5l1.6,0.2C97.2,16.7,99.2,16.5,101.1,16.5z M95.7,19.1c0,0.2-0.1,0.3-0.1,0.5
		c1.7,0.1,3.4,0.1,5.2,0.1c0.7,0,1.3,0,1.8-0.1c0.3-0.1,0.4-0.2,0.4-0.3c0-0.2-0.1-0.4-0.4-0.5c-0.3-0.1-1-0.2-1.9-0.2
		C99.3,18.6,97.6,18.7,95.7,19.1z"/>
	<path fill="#2C5679" d="M113.7,16.6l0.6,1.9c-1,0.3-2,0.5-3,0.8c0,0.1,0,0.1,0,0.2c0.5-0.1,0.9-0.2,1.3-0.2c0.6,0,1.1,0.2,1.5,0.5
		c0.4,0.4,0.7,1.2,0.7,2.4c0,2.4-0.2,5.2-0.6,8.6l-2.1-0.4c0.3-1.7,0.4-3.4,0.5-5c-0.6,0.1-1.3,0.2-1.9,0.3c0,0.2,0,0.3,0,0.5
		c0.6,0.1,1.1,0.2,1.5,0.4l-0.5,1.8c-0.4-0.1-0.7-0.3-1.1-0.4c0,0.7-0.1,1.4-0.1,2.1l-2.2-0.3c0-1.3,0-2.6,0.1-3.9
		c-0.1,0-0.1,0-0.2,0l-0.4-1.7c0.2,0,0.5,0,0.7-0.1c0.1-1.8,0.3-3.6,0.6-5.4l0.5,0.1l-0.3-1.1C110.8,17.3,112.3,16.9,113.7,16.6z
		 M110.8,23.8c0.7-0.1,1.3-0.2,1.9-0.3c0-0.3,0-0.6,0-0.8v-0.1l-0.3,0.9c-0.5-0.2-1-0.4-1.5-0.5l0.4-1.4c0.5,0.1,0.9,0.2,1.2,0.4
		c-0.1-0.4-0.3-0.6-0.6-0.6c-0.4,0-0.7,0.1-1,0.3C110.9,22.2,110.8,23,110.8,23.8z M115.3,21.6l1.5,0.1c0.2-0.1,0.4-0.1,0.7-0.2
		c0.5-0.1,1-0.2,1.4-0.2c0.7,0,1.4,0.2,1.9,0.6c0.5,0.4,0.8,1.1,0.8,2c0,0.2,0,0.4-0.1,0.7c-0.2,1.7-0.3,2.7-0.3,3
		c0,0.3,0,0.4,0.1,0.4c0.3,0,0.6-0.1,0.9-0.4l0.6,2.3c-0.5,0.2-1.2,0.4-2,0.4c-0.7,0-1.2-0.2-1.6-0.6c-0.4-0.4-0.5-0.9-0.5-1.5
		c0-0.6,0.1-1.8,0.4-3.5c0-0.2,0.1-0.4,0.1-0.6c0-0.2,0-0.3,0-0.4c0-0.1-0.1-0.1-0.1-0.1c-0.1,0-0.3,0-0.6,0.1
		c-0.2,0-0.5,0.1-0.8,0.3c-0.2,2-0.3,4.1-0.4,6.3l-2.4-0.3C114.7,27.1,115,24.3,115.3,21.6z M119.4,16.4c0.2,0.8,0.4,1.5,0.8,2.1
		c0.8,0.1,1.5,0.2,2.3,0.4l-0.5,2.4c-2.7-0.4-5-0.6-7-0.7l0.4-2.4c0.6,0,1.3,0,1.9,0c-0.1-0.3-0.2-0.6-0.3-0.9L119.4,16.4z"/>
	<path fill="#2C5679" d="M134.5,19.8c-2.9-0.3-5.8-0.5-8.7-0.8l0.4-2.5c3.8,0.3,7.4,0.6,11,1l-0.4,2.5c-0.6-0.1-1.2-0.1-1.7-0.2
		c0.1,0.8,0.2,1.7,0.4,2.6c0.8,0,1.7,0,2.5,0l0.3,2.6c-0.8,0-1.6,0-2.4,0c0.2,1.6,0.5,3.3,0.7,5l-2.7,0.3c-0.3-1.9-0.5-3.6-0.7-5.2
		c-1.4,0.1-2.8,0.2-4.1,0.3c-0.4,1.5-0.8,3-1.1,4.7l-2.7-0.6c0.2-1.3,0.5-2.5,0.8-3.8c-0.5,0.1-1,0.1-1.6,0.2l-0.3-2.6
		c0.9-0.1,1.7-0.2,2.6-0.3c0.4-1.1,0.7-2.1,1.2-3.1l2.7,0.6c-0.3,0.7-0.6,1.5-0.8,2.2c1-0.1,2-0.1,2.9-0.2c-0.1-0.9-0.2-1.7-0.3-2.5
		L134.5,19.8z"/>
	<path fill="#2C5679" d="M145.8,16.2l2.5,0.6c-0.4,1-0.8,2-1.2,3c0.2,0,0.4,0,0.7-0.1c0.7-0.1,1.4-0.2,2.3-0.3
		c-0.5-0.5-1.1-0.9-1.6-1.2l1.6-1.5c0.8,0.4,1.6,1,2.2,1.7l-0.8,0.8c0.7-0.1,1.4-0.2,2.1-0.3l0.4,2.4c-1.1,0.3-2.7,0.5-4.7,0.7
		c-1.2,0.2-2.3,0.3-3.1,0.3c-0.1,0.2-0.2,0.5-0.3,0.7c1.1-0.3,2.3-0.4,3.4-0.4c1.4,0,2.6,0.2,3.4,0.5c0.8,0.4,1.3,0.9,1.3,1.6
		c0,0.8-0.3,1.5-0.8,1.9c-0.3,0.3-0.6,0.5-0.9,0.8c0.9,0.2,1.7,0.3,2.6,0.4l-0.5,2.5c-1.8-0.2-3.5-0.5-5-0.9c-1.1,0.7-2.3,1.3-3.6,2
		l-1.1-2.1c0.5-0.3,1-0.6,1.5-0.9c-0.6-0.2-1.3-0.5-1.9-0.7c-0.3,1-0.7,2-1,3.1l-2.5-0.5c0.9-2.8,1.8-5.5,2.7-7.9
		c-0.8-0.1-1.5-0.3-2-0.7c-0.6-0.5-0.8-1.1-0.8-1.8c0-1,0.4-2,1.1-3l2.6,0.6c-0.5,0.5-0.8,1.1-1.1,1.9c0,0.4,0.3,0.7,1,0.7
		C144.8,18.6,145.3,17.4,145.8,16.2z M148.9,26.5c0.4-0.3,0.8-0.5,1.1-0.8c0.5-0.3,0.8-0.6,0.8-0.7c0-0.2-0.7-0.2-2-0.2
		c-1,0-2.1,0.2-3.3,0.6C146.6,25.9,147.7,26.2,148.9,26.5z"/>
	<path fill="#2C5679" d="M169.5,16.6l0.3,2.5c-1.1,0-2.3,0-3.4,0.1c0.4,0.2,0.9,0.4,1.3,0.7c0.9,0.5,1.3,1.1,1.3,1.8
		c0,0.5-0.1,0.8-0.4,1.1c0.7,0.8,1.1,1.5,1.1,2.2c0,0.9-0.5,1.4-1.4,1.7c-1.1,0.3-2.4,0.4-3.9,0.5c0.2,1.1,0.3,2.3,0.5,3.5l-3,0.3
		c-0.2-1.3-0.4-2.6-0.6-3.8c-1.3,0-2.3-0.2-3-0.4c-1.1-0.4-1.6-0.9-1.6-1.6c0-0.9,0.4-1.7,1.3-2.5c-0.2-0.3-0.3-0.5-0.3-0.9
		c0-0.4,0.3-0.9,1-1.5c0.3-0.2,0.6-0.4,0.9-0.6c-0.8,0.1-1.7,0.2-2.5,0.3l-0.3-2.5C161.2,17,165.4,16.7,169.5,16.6z M157.9,27.4
		l2.7,0.3c-0.3,1.1-0.5,2.1-0.5,3.1l-2.7-0.3C157.4,29.4,157.6,28.4,157.9,27.4z M160.2,23.6c-0.2,0.2-0.3,0.4-0.3,0.5
		c0,0.4,0.1,0.7,0.4,0.8c0.4,0.2,1.3,0.2,2.9,0.2c1.1,0,2-0.1,2.8-0.3c0.3-0.1,0.5-0.4,0.5-0.8c-0.1-0.1-0.2-0.3-0.3-0.5
		c-1.1,0.1-2.7,0.2-4.7,0.2C161,23.7,160.5,23.7,160.2,23.6z M161.5,21.7c2.2,0,3.7-0.1,4.3-0.3c0.2,0,0.3-0.1,0.3-0.2
		c0-0.2-1-0.7-2.9-1.3c-1.5,0.6-2.4,1-2.7,1.4C160.5,21.6,160.9,21.7,161.5,21.7z M166.1,27.3c1.5,0.2,2.9,0.5,4.2,0.8l-0.8,2.4
		c-1.4-0.4-2.8-0.6-4.2-0.8L166.1,27.3z"/>
	<path fill="#2C5679" d="M175.5,17.1l1.5,1.4c-1.3,1.1-2.1,1.8-2.4,2.2c-0.3,0.3-0.4,0.6-0.4,0.9c0,0.1,0.1,0.2,0.3,0.2
		c0,0,0.1,0,0.1,0c0.5-0.6,1.1-1.1,1.8-1.7l1.5,1.6c-1.1,0.7-2,1.6-2.5,2.8c0,0.3,0.1,0.5,0.4,0.5c0.3,0,0.8-0.2,1.5-0.5l0.5,2.3
		c-1.2,0.3-2.1,0.5-2.6,0.5l-0.2,0c-0.6,0-1.1-0.2-1.5-0.5c-0.3-0.3-0.5-0.8-0.5-1.3c0-0.5,0.1-1,0.3-1.6c-0.3-0.1-0.6-0.2-0.8-0.5
		c-0.4-0.4-0.6-0.9-0.6-1.5c0-0.5,0.2-1.2,0.7-2C173.3,18.9,174.3,18,175.5,17.1z M177.2,27.5l0.7,2.2c-1.3,0.5-2.8,0.8-4.4,1
		l-0.5-2.3C174.5,28.1,175.9,27.8,177.2,27.5z M182.5,16.3c0.3,0.8,0.6,1.4,1.1,2.1c1,0.1,1.9,0.1,2.9,0.2l-0.2,2.4
		c-0.8-0.1-1.5-0.1-2.3-0.1c1,0.8,1.8,1.7,2.5,2.8l-1.6,1.6c-0.2-0.2-0.4-0.5-0.6-0.7c-1.3,0.4-2.4,0.5-3.3,0.5l-0.4,0
		c-1.7,0-2.5-0.8-2.5-2.3c0-0.6,0.2-1.4,0.6-2.2c-0.4,0-0.7,0-1-0.1l0.4-2.4c0.9,0,1.7,0.1,2.5,0.1c-0.1-0.3-0.3-0.6-0.4-0.9
		L182.5,16.3z M178.6,25.3l2.5,0.3c-0.3,1.5-0.5,3.1-0.5,4.9l-2.5-0.2C178.1,28.4,178.3,26.8,178.6,25.3z M182.4,22.6
		c-0.2-0.2-0.4-0.4-0.7-0.6l1.1-1.2c-0.6,0-1.1-0.1-1.6-0.1c-0.3,0.5-0.6,1-0.7,1.5c0,0.4,0.1,0.6,0.4,0.6
		C181.3,22.8,181.8,22.7,182.4,22.6z M181.8,25.2l2.4,0.6c-0.3,0.7-0.5,1.3-0.5,1.8c0,0.2,0,0.3,0.1,0.4c0.1,0.2,0.2,0.3,0.3,0.3
		c0.6-0.1,1.2-0.2,1.7-0.4l0.4,2.3c-0.7,0.2-1.4,0.4-2.1,0.4h-0.4c-0.8,0-1.4-0.3-1.9-0.8c-0.4-0.4-0.6-1-0.6-1.8
		C181.3,26.9,181.5,26,181.8,25.2z"/>
</g>
</svg>
