<?xml version="1.0" encoding="utf-8"?>
<!-- Generator: Adobe Illustrator 16.0.0, SVG Export Plug-In . SVG Version: 6.00 Build 0)  -->
<svg version="1.2" baseProfile="tiny" xmlns="http://www.w3.org/2000/svg" xmlns:xlink="http://www.w3.org/1999/xlink" x="0px"
	 y="0px" width="1080px" height="1920px" viewBox="0 0 1080 1920" xml:space="preserve">
<g id="Back">
	<rect fill="#F6F5ED" stroke="#00A0E9" stroke-width="0.5" stroke-miterlimit="10" width="1080" height="1920"/>
</g>
<g id="Other">
	<path fill="#BBD78D" d="M621.8,1232.2l3.3,67.9c0,0-31.5,18.2-29.7,39c1.7,20.8,29.7,30.7,29.7,30.7v14.8h-17.9
		c0,0-33.2-39.4-41.6-41.9s-11.9-3.7-13.5-21.9c-1.6-18.1,3.1-48.5,21.1-59.3c18-10.8,39-29.2,39-29.2L621.8,1232.2L621.8,1232.2z"
		/>
	<path fill="#BBD78D" d="M559,1204.1c0,0-11.4,16.4-3.9,19.4c7.5,3,42.1,7,52.1-7c10-14-4.8-23.6-11.8-19.8
		C588.4,1200.4,572.8,1198.3,559,1204.1z"/>
	<rect x="347" y="1120.6" fill="#DAE000" width="24" height="36.5"/>
	<rect x="347" y="1167.1" fill="#DAE000" width="24" height="36.5"/>
	<path fill="#BBD78D" d="M488.5,1022.3c-4.2,8.8-11.2,15-17.7,14.4c-6.5-0.6-21-5.8-23,0s-4.7,49.9-4.7,49.9l4.7,38.1v15.3l4.8,64
		c0,0,2.5,27.6,9.8,32.1c7.3,4.5,13.7-26.1,13.7-26.1l5.7-46.1l6.7-23.9l4.3-17.4c0,0-0.3-10.5,11.3-8.7c11.6,1.8,37.6,3.1,37.6,3.1
		l10.6-39c0,0-3.2-12.8-2.2-22.6c0.8-7.6,12.7-18.6,12.7-18.6l5.8-22.4l-78.7,6.2"/>
	<path fill="none" stroke="#63D9F7" stroke-width="6" d="M180,1128.4c9.3,1.6,21.4,3.1,28.3,1.8c12.3-2.3,47.2-8.7,59.6-3.7
		c12.4,5,11.3-2,21,20.3c9.7,22.3,53.9,122,59.6,150.7c5.7,28.7,9.7,59,25,71c15.3,12,12.3,20.7,59.6,13
		c47.3-7.7,91.9-16.7,100.6-24.7c8.7-8,9-31,12-48.3c3-17.3,2.7-42.7,10.3-47.3s36.1-28.3,51.5-32.3s65-18.7,73-25.3
		c8-6.6,85.2-99.7,85.2-99.7s26.8-32.3,36.9-43.3c70.2-76.3,82-102.2,92.9-130.7c1.6-4.1,3.1-8.5,4.6-13.2"/>
	<path fill="#63D9F7" d="M568,1203.7c0,0-0.3,1,7-1.3c7.3-2.3,17.7-2.7,23.3,0c5.6,2.7,11.7,9.3,5,12c-6.7,2.7-11.7,5.3-18.3,5.3
		c-6.6,0-13.7-2.3-17-5.3c-3.3-3-7.3-5.4-3.7-8.1C567.9,1203.6,568,1203.7,568,1203.7z"/>
	<path fill="#BBD78D" d="M700.3,1285.8v-11.8c0,0,8.4-11.6,11.4-14.5c3-2.9,8.5-8.4,17.9-13.5c9.4-5.1,15.1-7.8,22-8.9
		c6.9-1.1,10.3-1.6,16.8-1.6c6.5,0,14.4,0.6,15.9,1c1.5,0.4,9.8,2.4,13.4,4.1c3.6,1.7,12.1,6.1,14.8,8.5c2.7,2.4,10.5,8.5,14,13.5
		s7.3,9,8.9,12.9c1.6,3.9,4,7.8,3.9,12c-0.1,4.2-7.6,142.5-7.6,142.5s-8.8,8.5-13.5,12c-4.7,3.5-12.1,7.9-17.1,10.3
		s-16.8,6-23.4,6.6c-6.6,0.6-24.8,0.8-33.1-1.6c-8.3-2.4-22.8-8.5-28.5-13.5c-5.7-5-9.9-7.5-14.5-12.9c-4.6-5.4-10.9-13-10.9-13
		L700.3,1285.8z"/>
	<rect x="657.5" y="1271.2" fill="#FAEE00" width="24" height="36.5"/>
	<rect x="726.4" y="1195.7" fill="#FFCE66" width="12.5" height="22.3"/>
	<rect x="745.4" y="1190.1" fill="#FFCE66" stroke="#FFCE66" stroke-miterlimit="10" width="12.5" height="27.9"/>
	<rect x="761.4" y="1190.1" fill="#FFCE66" width="12.5" height="27.9"/>
	<path fill="#BBD78D" stroke="#BBD78D" stroke-miterlimit="10" d="M625.7,375.1c4.2,52.5,4.4,117,4.4,117s7,70.5,12,77
		s87.4,13,87.4,13l28.5,4.5c21.5,7.1-8.5,73.5-12,85s-42.9,39-60.1,39c-17.2,0-38.7,1-29.3,14.3c9.5,13.3-10,27.8-10,27.8
		s-71.9,36.8-90.4,54.8c-18.5,18-19,31.5-11.5,44.5c7.5,13,35.5-19.6,35.5-19.6s18.5-27.8,40.5-31.3c22.1-3.5,25.9,116,25.9,116
		l-26.7,2l0.7,38.7l-13.5-0.5c0,0-35.1-5.7-54.8-8.2c-19.8-2.5-19.2-9.5-19.2-9.5l-2.5-72.5c-0.5-23-23-24-23-24l-41.6,2
		c0,0-46.5-3-55.8-1.5c-9.3,1.5,4.9-19.9,7.5-26.2c6.8-16.8,0-115.6-4.9-120.8c-2.8-3-15.5-6-15.5-6s-73.9-0.5-83.9,0
		c-10,0.5-16.5-7.5-16.5-7.5s3.5-17,0-22.5s-18-0.5-21,7.5s-36.4,12-36.4,12s7.1-126.4,36.4-187.9c14.3-30,74.8-76.9,132.9-117.1"/>
	<rect x="649.5" y="1369.7" fill="#FAEE00" width="24" height="36.5"/>
	<path fill="#BBD78D" d="M636,1043.7l49.8,0.9c0,0,10.6,3.2,11.3,15.2s-1,14.4-10.5,15.2c-9.5,0.8-47.9,1-47.9,1s-9-4.2-9.6-14.8
		c-0.6-10.7,1.7-17.5,4.3-17.5C636,1043.7,636,1043.7,636,1043.7z"/>
	<path fill="#BBD78D" d="M353,1269.4h18.4l6.3,47.1c0,0,5.6,18.5,12.3,23.9c6.7,5.5,54.2,7.6,54.2,7.6l47.6-3.5
		c0,0,37.9,1.4,23.3,11.8c-15.5,11-114.8,23-114.8,23s-30.2-9-36.4-41.3C357.5,1305.8,353,1269.4,353,1269.4z"/>
	<path fill="#BBD78D" d="M638.7,1160.9v16.5c0,0,19.8-0.6,27.1-3.6s21.5-6.9,22-8.9c0.5-2.1,1.3-4.6-5.3-4.5
		C675.8,1160.6,638.7,1160.9,638.7,1160.9z"/>
	<polygon fill="#BBD78D" points="555.5,1160.4 612.7,1160.4 612.8,1178.3 602.6,1184.1 555.5,1184.1 	"/>
	<path fill="#BBD78D" d="M559,959.2l-35.6-6.8l-19.3,10.4c0,0-9.2,4.2-9,7.2c0.2,3-1.8,9.7,2.4,8.5c4.2-1.2,16.5-3.5,21.5-4.2
		c5-0.7,48.4-0.3,60.9,1c12.5,1.3,31.7,3.3,31.7,3.3v-11.2L559,959.2z"/>
	<ellipse fill="#FFD679" cx="634.3" cy="1337.2" rx="24.3" ry="22"/>
	<g>
		<path fill="none" stroke="#FFCE66" stroke-width="5" stroke-miterlimit="10" d="M898,1544.8l-258.5-20l-397.2-27.3l-62.2-3.3"/>
		<path fill="none" stroke="#FFCE66" stroke-width="5" stroke-miterlimit="10" d="M895.3,1531.8l-258.5-20l-397.2-27.3l-59.5-3.1"/>
	</g>
	<polygon fill="none" stroke="#BB94E3" stroke-miterlimit="10" points="221.2,689.4 386.8,655 405.7,824.6 526.8,837.4 549.6,928.9 
		770.2,946.1 853.2,1019.9 855.4,1523.8 495.3,1497.6 508.9,1384.8 374,1396.7 221.2,1103.6 	"/>
	<path fill="none" stroke="#FFFFFF" stroke-width="5" stroke-miterlimit="10" d="M636.9,1359.4c0,0-24.8,0.3-24.8-21.7
		s22.8-22.7,22.8-22.7"/>
</g>
<g id="RoadLok">
	<g>
		<g>
			<path fill="#FFFFFF" d="M636.7,1511.1c0,0,0.3-6.8,0.7-17.1c0.4-10.3,0.9-23.9,1.3-37.6c0.2-6.8,0.3-13.7,0.3-20
				c0-1.6-0.1-3.1-0.1-4.7c-0.1-1.5-0.2-2.8-0.3-4.3c-0.3-2.9-0.6-5.7-0.9-8.3c-1.1-10.2-1.8-17.1-1.8-17.1l4.3-0.4
				c0,0,0.7,6.8,1.8,17c0.3,2.5,0.6,5.3,0.9,8.2c0.2,1.4,0.3,3.1,0.4,4.7c0,1.6,0.1,3.2,0.1,4.8c0,6.5-0.1,13.3-0.3,20.2
				c-0.3,13.7-0.9,27.4-1.3,37.6c-0.4,10.3-0.7,17.1-0.7,17.1L636.7,1511.1z"/>
			<path fill="none" stroke="#F7ECDE" stroke-width="0.545" stroke-miterlimit="10" d="M640.2,1401.7c0,0,0.7,6.8,1.8,17
				c0.3,2.5,0.6,5.3,0.9,8.2c0.2,1.4,0.3,3.1,0.4,4.7c0,1.6,0.1,3.2,0.1,4.8c0,6.5-0.1,13.3-0.3,20.2c-0.3,13.7-0.9,27.4-1.3,37.6
				c-0.4,10.3-0.7,17.1-0.7,17.1"/>
			<path fill="none" stroke="#F7ECDE" stroke-width="0.545" stroke-miterlimit="10" d="M635.9,1402.1c0,0,0.7,6.8,1.8,17.1
				c0.3,2.6,0.6,5.3,0.9,8.3c0.2,1.5,0.3,2.8,0.3,4.3c0,1.5,0.1,3.1,0.1,4.7c0,6.4-0.1,13.2-0.3,20c-0.3,13.7-0.9,27.3-1.3,37.6
				c-0.4,10.2-0.7,17.1-0.7,17.1"/>
		</g>
		<g>
			<path fill="#FFFFFF" d="M635.9,1402.2c-0.7-7.3-1.4-14.6-1.8-22c-0.1-3.9,0-7.4,0-11.1v-5.5v-1.4l0-0.8c0-0.4,0.1-0.9,0.2-1.3
				c0.5-1.7,2-2.9,3.8-3.1c5.7-0.8,11.4-3.1,15.3-7.1c1.9-2,3.3-4.4,4-7.1c0.8-2.7,0.8-5.6,0.5-8.4c-0.1-1.4-0.4-2.8-0.8-4.2
				c-0.4-1.3-1-2.6-1.7-3.8c-1.4-2.3-3.4-4.3-5.8-5.8c-2.4-1.5-5.1-2.4-8-3c-1.4-0.3-2.9-0.5-4.3-0.5l-0.5,0l-0.8,0
				c-0.7,0-1.4-0.2-2-0.5c-1.3-0.7-2-2-2.1-3.5l-2-67.7l4.4-0.1l2,67.2c0,0.1,0,0.2,0.1,0.2c0,0,0.1,0,0.1,0l0.4,0l0.6,0
				c1.7,0.1,3.3,0.3,4.9,0.6c3.2,0.6,6.5,1.8,9.4,3.5c2.9,1.7,5.5,4.3,7.3,7.3c0.9,1.5,1.6,3.1,2.1,4.7c0.5,1.6,0.8,3.3,1,5
				c0.3,3.3,0.3,6.7-0.7,10c-0.9,3.3-2.7,6.5-5.1,8.9c-2.4,2.5-5.3,4.4-8.3,5.7c-3,1.3-6.2,2.3-9.5,2.7c-0.1,0-0.2,0.1-0.2,0.2
				c0,0,0,0,0,0.1v0.6v1.4v5.5c0,3.6,0,7.5,0,10.9c0.3,7.2,1.1,14.5,1.8,21.8L635.9,1402.2z"/>
			<path fill="none" stroke="#F7ECDE" stroke-width="0.545" stroke-miterlimit="10" d="M634.3,1245.5l2,67.2c0,0.1,0,0.2,0.1,0.2
				c0,0,0.1,0,0.1,0l0.4,0l0.6,0c1.7,0.1,3.3,0.3,4.9,0.6c3.2,0.6,6.5,1.8,9.4,3.5c2.9,1.7,5.5,4.3,7.3,7.3c0.9,1.5,1.6,3.1,2.1,4.7
				c0.5,1.6,0.8,3.3,1,5c0.3,3.3,0.3,6.7-0.7,10c-0.9,3.3-2.7,6.5-5.1,8.9c-2.4,2.5-5.3,4.4-8.3,5.7c-3,1.3-6.2,2.3-9.5,2.7
				c-0.1,0-0.2,0.1-0.2,0.2c0,0,0,0,0,0.1v0.6v1.4v5.5c0,3.6,0,7.5,0,10.9c0.3,7.2,1.1,14.5,1.8,21.8"/>
			<path fill="none" stroke="#F7ECDE" stroke-width="0.545" stroke-miterlimit="10" d="M630,1245.6l2,67.7c0,1.4,0.8,2.8,2.1,3.5
				c0.6,0.4,1.3,0.5,2,0.5l0.8,0l0.5,0c1.4,0.1,2.9,0.2,4.3,0.5c2.8,0.6,5.6,1.5,8,3c2.4,1.4,4.4,3.4,5.8,5.8
				c0.7,1.2,1.2,2.5,1.7,3.8c0.4,1.3,0.7,2.7,0.8,4.2c0.3,2.9,0.2,5.8-0.5,8.4c-0.7,2.7-2.1,5.1-4,7.1c-3.8,4-9.6,6.3-15.3,7.1
				c-1.7,0.2-3.3,1.4-3.8,3.1c-0.1,0.4-0.2,0.8-0.2,1.3l0,0.8v1.4v5.5c0,3.7,0,7.2,0,11.1c0.4,7.4,1.1,14.7,1.8,22"/>
		</g>
		<g>
			<path fill="#FFFFFF" d="M630,1245.7c0,0-0.6-18.6-1.4-46.5c-0.1-1.7-0.1-3.5-0.2-5.3c0-0.5,0-0.9,0-1.4c0-0.3,0-0.8,0.1-1.2
				c0.1-0.4,0.3-0.8,0.4-1.2c0.4-0.7,1-1.4,1.7-1.8c0.4-0.2,0.8-0.4,1.2-0.5l0.7-0.2c3.6-0.9,7.4-1.9,11.2-3
				c7.7-2.1,15.8-4.4,24.1-7c4.1-1.3,8.3-2.6,12.5-4.1c4.2-1.5,8.4-3,12.5-4.9c2-0.9,4-1.9,5.7-3l0.6-0.4l0.7-0.5l1.3-1.1
				c0.9-0.7,1.8-1.4,2.6-2.2c3.4-3,6.5-6.3,9.3-9.8c1.4-1.8,2.7-3.6,3.8-5.5c0.3-0.5,0.6-0.9,0.8-1.4l0.6-1.4c0.4-1,0.7-2,0.9-3.1
				c1-4.3,1.6-8.8,1.4-13c-0.1-1.1-0.2-2.1-0.4-3.1c-0.1-0.5-0.2-1-0.4-1.5c-0.1-0.4-0.3-1-0.5-1.6c-0.7-2.2-1.4-4.4-2.1-6.5
				c-1.2-4.3-2.5-8.6-3.6-12.8c-0.5-2.1-1.1-4.2-1.6-6.3c-0.3-1-0.5-2.1-0.8-3.1c-0.2-1.1-0.4-2.1-0.7-3.1c-0.4-2.1-0.9-4.1-1.3-6.2
				c-0.2-2.1-0.5-4.1-0.7-6.1c-1-8-1.6-15.5-2.3-22.5c-0.7-7-1.2-13.3-1.6-19c-0.5-5.7-0.9-10.6-1.2-14.7c-0.1-1-0.1-2-0.2-2.9
				c0-0.5,0-0.9-0.1-1.3l0-0.3c0,0.1,0-0.1,0-0.1c0,0,0,0,0,0l0,0l0,0c0-0.1,0-0.2-0.1-0.3c-0.3-0.8-0.9-1.4-1.6-1.9
				c-0.7-0.4-1.3-0.6-1.7-0.8c-0.4-0.1-0.7-0.2-0.7-0.2l1-4.2c0,0,0.3,0.1,1,0.3c0.6,0.2,1.6,0.5,2.8,1.3c1.2,0.7,2.7,2,3.4,4.3
				c0.1,0.3,0.2,0.6,0.2,0.9l0,0.3l0,0.2l0,0.1c0,0.1,0-0.1,0,0l0,0.3c0,0.4,0,0.9,0.1,1.3c0.1,0.9,0.1,1.8,0.2,2.9
				c0.3,4,0.7,8.9,1.2,14.6c0.5,5.6,1,12,1.6,18.9c0.6,6.9,1.2,14.5,2.2,22.3c0.2,2,0.5,4,0.7,6c0.4,2,0.8,4,1.3,6
				c0.2,1,0.4,2,0.6,3c0.3,1,0.5,2,0.8,3.1c0.5,2.1,1.1,4.1,1.6,6.2c1.1,4.2,2.4,8.4,3.6,12.7c0.7,2.1,1.3,4.2,2,6.4
				c0.2,0.5,0.3,1.1,0.5,1.7c0.2,0.6,0.3,1.2,0.5,1.9c0.3,1.2,0.4,2.5,0.4,3.7c0.2,4.9-0.4,9.6-1.5,14.3c-0.3,1.2-0.6,2.3-1.1,3.6
				c-0.3,0.6-0.5,1.2-0.8,1.8c-0.3,0.6-0.6,1.1-0.9,1.6c-1.3,2.1-2.7,4.1-4.2,6c-3,3.7-6.3,7.2-9.8,10.4c-0.9,0.8-1.8,1.5-2.7,2.3
				l-1.4,1.1l-0.7,0.6l-0.8,0.6c-2.1,1.4-4.3,2.4-6.4,3.4c-4.3,1.9-8.6,3.5-12.9,5c-4.3,1.5-8.5,2.9-12.7,4.2
				c-8.4,2.6-16.5,4.9-24.2,7c-3.9,1.1-7.6,2-11.3,3l-0.6,0.2c0,0,0,0-0.1,0c-0.1,0-0.1,0.1-0.2,0.2c0,0,0,0.1,0,0.1c0,0,0,0,0,0
				c0,0,0,0,0,0.1c0,0.5,0,0.9,0,1.4c0.1,1.8,0.1,3.6,0.2,5.3c0.8,27.9,1.4,46.5,1.4,46.5L630,1245.7z"/>
			<path fill="none" stroke="#F7ECDE" stroke-width="0.545" stroke-miterlimit="10" d="M700.4,1008.8c0,0,0.3,0.1,1,0.3
				c0.6,0.2,1.6,0.5,2.8,1.3c1.2,0.7,2.7,2,3.4,4.3c0.1,0.3,0.2,0.6,0.2,0.9l0,0.3l0,0.2l0,0.1c0,0.1,0-0.1,0,0l0,0.3
				c0,0.4,0,0.9,0.1,1.3c0.1,0.9,0.1,1.8,0.2,2.9c0.3,4,0.7,8.9,1.2,14.6c0.5,5.6,1,12,1.6,18.9c0.6,6.9,1.2,14.5,2.2,22.3
				c0.2,2,0.5,4,0.7,6c0.4,2,0.8,4,1.3,6c0.2,1,0.4,2,0.6,3c0.3,1,0.5,2,0.8,3.1c0.5,2.1,1.1,4.1,1.6,6.2c1.1,4.2,2.4,8.4,3.6,12.7
				c0.7,2.1,1.3,4.2,2,6.4c0.2,0.5,0.3,1.1,0.5,1.7c0.2,0.6,0.3,1.2,0.5,1.9c0.3,1.2,0.4,2.5,0.4,3.7c0.2,4.9-0.4,9.6-1.5,14.3
				c-0.3,1.2-0.6,2.3-1.1,3.6c-0.3,0.6-0.5,1.2-0.8,1.8c-0.3,0.6-0.6,1.1-0.9,1.6c-1.3,2.1-2.7,4.1-4.2,6c-3,3.7-6.3,7.2-9.8,10.4
				c-0.9,0.8-1.8,1.5-2.7,2.3l-1.4,1.1l-0.7,0.6l-0.8,0.6c-2.1,1.4-4.3,2.4-6.4,3.4c-4.3,1.9-8.6,3.5-12.9,5
				c-4.3,1.5-8.5,2.9-12.7,4.2c-8.4,2.6-16.5,4.9-24.2,7c-3.9,1.1-7.6,2-11.3,3l-0.6,0.2c0,0,0,0-0.1,0c-0.1,0-0.1,0.1-0.2,0.2
				c0,0,0,0.1,0,0.1c0,0,0,0,0,0c0,0,0,0,0,0.1c0,0.5,0,0.9,0,1.4c0.1,1.8,0.1,3.6,0.2,5.3c0.8,27.9,1.4,46.5,1.4,46.5"/>
			<path fill="none" stroke="#F7ECDE" stroke-width="0.545" stroke-miterlimit="10" d="M699.3,1013c0,0,0.2,0.1,0.7,0.2
				c0.4,0.1,1.1,0.4,1.7,0.8c0.7,0.4,1.3,1.1,1.6,1.9c0,0.1,0.1,0.2,0.1,0.3l0,0l0,0c0,0,0,0,0,0c0-0.1,0,0.2,0,0.1l0,0.3
				c0,0.4,0,0.9,0.1,1.3c0.1,0.9,0.1,1.9,0.2,2.9c0.3,4.1,0.7,9,1.2,14.7c0.5,5.6,1,12,1.6,19c0.7,7,1.2,14.5,2.3,22.5
				c0.2,2,0.5,4,0.7,6.1c0.4,2,0.9,4.1,1.3,6.2c0.2,1,0.4,2.1,0.7,3.1c0.3,1,0.5,2.1,0.8,3.1c0.5,2.1,1.1,4.2,1.6,6.3
				c1.1,4.2,2.4,8.5,3.6,12.8c0.7,2.2,1.4,4.3,2.1,6.5c0.2,0.6,0.4,1.1,0.5,1.6c0.2,0.5,0.3,1,0.4,1.5c0.2,1,0.3,2,0.4,3.1
				c0.2,4.3-0.4,8.7-1.4,13c-0.3,1.1-0.6,2.1-0.9,3.1l-0.6,1.4c-0.2,0.5-0.5,0.9-0.8,1.4c-1.1,1.9-2.4,3.7-3.8,5.5
				c-2.8,3.5-5.9,6.8-9.3,9.8c-0.8,0.8-1.7,1.4-2.6,2.2l-1.3,1.1l-0.7,0.5l-0.6,0.4c-1.7,1.1-3.7,2.1-5.7,3
				c-4.1,1.8-8.3,3.4-12.5,4.9c-4.2,1.5-8.4,2.8-12.5,4.1c-8.3,2.6-16.4,4.9-24.1,7c-3.8,1-7.6,2-11.2,3l-0.7,0.2
				c-0.4,0.1-0.8,0.3-1.2,0.5c-0.7,0.5-1.3,1.1-1.7,1.8c-0.2,0.4-0.3,0.8-0.4,1.2c-0.1,0.4-0.1,0.9-0.1,1.2c0,0.5,0,0.9,0,1.4
				c0.1,1.8,0.1,3.6,0.2,5.3c0.8,27.9,1.4,46.5,1.4,46.5"/>
		</g>
		<g>
			
				<rect x="570.5" y="1062.5" transform="matrix(-2.498502e-002 -0.9997 0.9997 -2.498502e-002 -424.301 1715.6281)" fill="#FFFFFF" width="108" height="4.4"/>
			<line fill="none" stroke="#F7ECDE" stroke-width="0.545" stroke-miterlimit="10" x1="623.7" y1="1118.8" x2="621" y2="1010.8"/>
			<line fill="none" stroke="#F7ECDE" stroke-width="0.545" stroke-miterlimit="10" x1="628" y1="1118.7" x2="625.3" y2="1010.7"/>
		</g>
		<g>
			<path fill="#FFFFFF" d="M623.2,984.9c0,0,0.6,6.3,1.2,12.7c0.5,6.3,1.1,12.7,1.1,12.7l-4.3,0.4c0,0-0.5-6.3-1.1-12.6
				c-0.6-6.3-1.2-12.6-1.2-12.6L623.2,984.9z"/>
			<path fill="none" stroke="#F7ECDE" stroke-width="0.545" stroke-miterlimit="10" d="M621.1,1010.5c0,0-0.5-6.3-1.1-12.6
				c-0.6-6.3-1.2-12.6-1.2-12.6"/>
			<path fill="none" stroke="#F7ECDE" stroke-width="0.545" stroke-miterlimit="10" d="M625.5,1010.2c0,0-0.5-6.3-1.1-12.7
				c-0.6-6.3-1.2-12.7-1.2-12.7"/>
		</g>
		<g>
			<path fill="#FFFFFF" d="M322.4,893.5c0,0,0.1,0.9,0.3,2.6c0.2,1.7,0.4,4.2,0.8,7.4c0.4,3.2,0.8,7.1,1.6,11.4
				c0.1,0.5,0.2,1.1,0.3,1.6c0.1,0.5,0.2,1.1,0.4,1.6c0.3,1,0.7,2,1.2,3c1.1,1.9,2.6,3.8,4.5,5.4c0.5,0.4,1,0.8,1.5,1.1
				c0.1,0.1,0.2,0.2,0.3,0.2c0.1,0,0.2,0.1,0.3,0.1c0.2,0.1,0.5,0.2,0.7,0.2c0.3,0.1,0.6,0.1,0.8,0.2c0.3,0,0.5,0,0.7,0.1
				c0.7,0,1.5,0,2.2-0.1c3-0.1,6.1-0.2,9.2-0.2c6.3-0.2,13-0.3,19.9-0.5c13.8-0.4,28.5-0.7,43.3-1.1c14.7-0.3,29.5-0.7,43.3-1
				c6.9-0.2,13.6-0.3,19.9-0.5c3.2-0.1,6.3-0.1,9.2-0.2c3.3,0,6.3,0.7,9.1,1.5c5.5,1.8,10.2,4.2,14.2,6.4c4,2.3,7.3,4.5,10,6.3
				c5.3,3.7,8.3,5.8,8.3,5.8l-2.4,3.6c0,0-3-2.1-8.3-5.8c-2.6-1.8-5.9-4-9.7-6.1c-3.8-2.2-8.2-4.5-13.2-6c-2.5-0.7-5.2-1.3-7.8-1.3
				c-3,0.1-6,0.1-9.2,0.2c-6.3,0.1-13,0.3-19.9,0.5c-13.8,0.3-28.5,0.6-43.3,1c-14.7,0.4-29.5,0.8-43.3,1.1
				c-6.9,0.2-13.6,0.4-19.9,0.5c-3.2,0.1-6.2,0.2-9.2,0.2c-0.7,0-1.5,0-2.2,0.1c-0.4,0-1,0-1.4-0.1c-0.4-0.1-0.9-0.1-1.3-0.3
				c-0.4-0.1-0.8-0.2-1.3-0.4l-0.7-0.3c-0.2-0.1-0.4-0.3-0.6-0.4c-0.7-0.4-1.3-0.9-1.9-1.4c-2.4-1.9-4.2-4.2-5.6-6.7
				c-0.6-1.3-1.2-2.5-1.5-3.8c-0.2-0.7-0.3-1.2-0.4-1.8c-0.1-0.6-0.2-1.2-0.3-1.8c-0.8-4.6-1.3-8.4-1.6-11.7
				c-0.4-3.2-0.6-5.7-0.8-7.5c-0.2-1.7-0.3-2.6-0.3-2.6L322.4,893.5z"/>
			<path fill="none" stroke="#F7ECDE" stroke-width="0.545" stroke-miterlimit="10" d="M522,948.4c0,0-3-2.1-8.3-5.8
				c-2.6-1.8-5.9-4-9.7-6.1c-3.8-2.2-8.2-4.5-13.2-6c-2.5-0.7-5.2-1.3-7.8-1.3c-3,0.1-6,0.1-9.2,0.2c-6.3,0.1-13,0.3-19.9,0.5
				c-13.8,0.3-28.5,0.6-43.3,1c-14.7,0.4-29.5,0.8-43.3,1.1c-6.9,0.2-13.6,0.4-19.9,0.5c-3.2,0.1-6.2,0.2-9.2,0.2
				c-0.7,0-1.5,0-2.2,0.1c-0.4,0-1,0-1.4-0.1c-0.4-0.1-0.9-0.1-1.3-0.3c-0.4-0.1-0.8-0.2-1.3-0.4l-0.7-0.3c-0.2-0.1-0.4-0.3-0.6-0.4
				c-0.7-0.4-1.3-0.9-1.9-1.4c-2.4-1.9-4.2-4.2-5.6-6.7c-0.6-1.3-1.2-2.5-1.5-3.8c-0.2-0.7-0.3-1.2-0.4-1.8
				c-0.1-0.6-0.2-1.2-0.3-1.8c-0.8-4.6-1.3-8.4-1.6-11.7c-0.4-3.2-0.6-5.7-0.8-7.5c-0.2-1.7-0.3-2.6-0.3-2.6"/>
			<path fill="none" stroke="#F7ECDE" stroke-width="0.545" stroke-miterlimit="10" d="M524.5,944.8c0,0-3-2.1-8.3-5.8
				c-2.7-1.8-6-4-10-6.3c-4-2.3-8.6-4.7-14.2-6.4c-2.8-0.8-5.8-1.5-9.1-1.5c-3,0.1-6.1,0.1-9.2,0.2c-6.3,0.1-13,0.3-19.9,0.5
				c-13.8,0.3-28.6,0.6-43.3,1c-14.7,0.4-29.5,0.8-43.3,1.1c-6.9,0.2-13.6,0.4-19.9,0.5c-3.2,0.1-6.2,0.2-9.2,0.2
				c-0.7,0-1.5,0-2.2,0.1c-0.3,0-0.5,0-0.7-0.1c-0.3-0.1-0.6-0.1-0.8-0.2c-0.2-0.1-0.6-0.1-0.7-0.2c-0.1,0-0.2-0.1-0.3-0.1
				c-0.1,0-0.2-0.1-0.3-0.2c-0.5-0.3-1-0.7-1.5-1.1c-1.9-1.6-3.4-3.5-4.5-5.4c-0.5-1-0.9-2-1.2-3c-0.2-0.5-0.2-1.1-0.4-1.6
				c-0.1-0.5-0.2-1.1-0.3-1.6c-0.7-4.3-1.2-8.2-1.6-11.4c-0.4-3.2-0.6-5.7-0.8-7.4c-0.2-1.7-0.3-2.6-0.3-2.6"/>
		</g>
		<g>
			<path fill="#FFFFFF" d="M524.6,944.8c0,0,0.3,0.2,0.8,0.5c0.1,0.1,0.3,0.2,0.4,0.3c0.2,0.1,0.4,0.2,0.6,0.3
				c0.1,0.1,0.2,0.1,0.3,0.2c0.1,0.1,0.2,0.1,0.3,0.2c0.1,0,0.2,0.1,0.2,0.1c0.1,0,0.3,0.1,0.4,0.1c1.1,0.4,2.7,0.8,4.5,1.2
				c1.8,0.4,3.9,0.9,6.1,1.4c9,1.9,21.2,4.2,33.4,6.4c24.4,4.4,48.8,8.4,48.8,8.4l-0.7,4.3c0,0-24.5-4-48.8-8.4
				c-12.2-2.2-24.4-4.5-33.5-6.4c-2.3-0.5-4.4-1-6.2-1.4c-1.9-0.4-3.5-0.9-4.9-1.4c-0.2-0.1-0.3-0.1-0.5-0.2
				c-0.2-0.1-0.4-0.2-0.6-0.3c-0.2-0.1-0.4-0.2-0.5-0.3c-0.1-0.1-0.3-0.2-0.4-0.2c-0.2-0.1-0.5-0.3-0.7-0.4
				c-0.2-0.1-0.4-0.3-0.6-0.4c-0.7-0.5-1-0.7-1-0.7L524.6,944.8z"/>
			<path fill="none" stroke="#F7ECDE" stroke-width="0.545" stroke-miterlimit="10" d="M619.7,968.3c0,0-24.5-4-48.8-8.4
				c-12.2-2.2-24.4-4.5-33.5-6.4c-2.3-0.5-4.4-1-6.2-1.4c-1.9-0.4-3.5-0.9-4.9-1.4c-0.2-0.1-0.3-0.1-0.5-0.2
				c-0.2-0.1-0.4-0.2-0.6-0.3c-0.2-0.1-0.4-0.2-0.5-0.3c-0.1-0.1-0.3-0.2-0.4-0.2c-0.2-0.1-0.5-0.3-0.7-0.4
				c-0.2-0.1-0.4-0.3-0.6-0.4c-0.7-0.5-1-0.7-1-0.7"/>
			<path fill="none" stroke="#F7ECDE" stroke-width="0.545" stroke-miterlimit="10" d="M620.4,964c0,0-24.4-4-48.8-8.4
				c-12.2-2.2-24.3-4.5-33.4-6.4c-2.3-0.5-4.3-0.9-6.1-1.4c-1.8-0.4-3.4-0.9-4.5-1.2c-0.1,0-0.3-0.1-0.4-0.1c-0.1,0-0.2-0.1-0.2-0.1
				c-0.1,0-0.2-0.1-0.3-0.2c-0.1-0.1-0.2-0.1-0.3-0.2c-0.2-0.1-0.4-0.2-0.6-0.3c-0.2-0.1-0.3-0.2-0.4-0.3c-0.5-0.4-0.8-0.5-0.8-0.5"
				/>
		</g>
		<g>
			<path fill="#FFFFFF" d="M620.4,963.9c0,0,1.3,0.2,3.7,0.6c1.2,0.2,2.6,0.4,4.2,0.7c0.8,0.1,1.6,0.2,2.8,0.5
				c0.3,0.1,0.5,0.1,0.8,0.2c0.2,0.1,0.5,0.1,0.7,0.2c0.5,0.1,1,0.3,1.5,0.4c8,2.4,18.4,6,28.8,9.6c5.2,1.8,10.4,3.6,15.3,5.3
				c2.4,0.8,4.8,1.7,7,2.4c2.2,0.8,4.4,1.5,6.3,2.1c3.8,1.1,7.2,1.8,9.5,2.3c2.3,0.5,3.7,0.8,3.7,0.8l-0.9,4.3c0,0-1.3-0.3-3.7-0.8
				c-2.4-0.5-5.7-1.2-9.9-2.4c-2.1-0.6-4.1-1.4-6.4-2.1c-2.2-0.8-4.6-1.6-7-2.4c-4.9-1.7-10.1-3.5-15.3-5.3
				c-10.4-3.6-20.8-7.2-28.6-9.5c-0.5-0.1-1-0.3-1.4-0.4c-0.2-0.1-0.5-0.1-0.7-0.2c-0.2,0-0.4-0.1-0.6-0.1c-0.7-0.2-1.7-0.3-2.5-0.5
				c-1.7-0.3-3.1-0.5-4.3-0.7c-2.4-0.4-3.8-0.6-3.8-0.6L620.4,963.9z"/>
			<path fill="none" stroke="#F7ECDE" stroke-width="0.545" stroke-miterlimit="10" d="M703.9,993.3c0,0-1.3-0.3-3.7-0.8
				c-2.4-0.5-5.7-1.2-9.9-2.4c-2.1-0.6-4.1-1.4-6.4-2.1c-2.2-0.8-4.6-1.6-7-2.4c-4.9-1.7-10.1-3.5-15.3-5.3
				c-10.4-3.6-20.8-7.2-28.6-9.5c-0.5-0.1-1-0.3-1.4-0.4c-0.2-0.1-0.5-0.1-0.7-0.2c-0.2,0-0.4-0.1-0.6-0.1c-0.7-0.2-1.7-0.3-2.5-0.5
				c-1.7-0.3-3.1-0.5-4.3-0.7c-2.4-0.4-3.8-0.6-3.8-0.6"/>
			<path fill="none" stroke="#F7ECDE" stroke-width="0.545" stroke-miterlimit="10" d="M704.8,989c0,0-1.3-0.3-3.7-0.8
				c-2.3-0.5-5.7-1.2-9.5-2.3c-1.9-0.5-4-1.3-6.3-2.1c-2.2-0.8-4.6-1.6-7-2.4c-4.9-1.7-10.1-3.5-15.3-5.3
				c-10.4-3.6-20.8-7.2-28.8-9.6c-0.5-0.1-1-0.3-1.5-0.4c-0.2-0.1-0.5-0.1-0.7-0.2c-0.3-0.1-0.5-0.1-0.8-0.2
				c-1.2-0.3-1.9-0.3-2.8-0.5c-1.6-0.3-3.1-0.5-4.2-0.7c-2.4-0.4-3.7-0.6-3.7-0.6"/>
		</g>
		<g>
			<path fill="#FFFFFF" d="M704.7,989c0,0,1.4,0.3,3.8,0.7c2.4,0.5,5.8,1.1,9.9,1.8c2.1,0.4,4.3,0.8,6.6,1.1
				c1.2,0.2,2.4,0.4,3.6,0.6c1.2,0.2,2.4,0.3,3.7,0.4c1.3,0.2,2.4,0.1,3.5,0c1.1-0.2,2.3-0.5,3.4-0.9c1.2-0.5,2.3-1,3.5-1.7
				c0.6-0.3,1.3-0.7,1.9-1l1.2-0.5l0.3-0.1l0.1-0.1c0.1,0,0.1,0,0.3-0.1c0.9-0.5,2-1.4,3-2.2c1-0.9,2-1.8,3-2.7
				c2-1.8,3.9-3.7,5.8-5.5c0.5-0.5,1-0.9,1.4-1.4c0.3-0.3,0.3-0.4,0.5-0.5l0.4-0.6c0.6-0.9,1.2-1.9,1.7-2.9c1-2.1,1.9-4.1,2.6-6
				c0.4-1,0.7-1.9,1-2.7c0.3-0.8,0.4-1.6,0.6-2.4c0.2-0.7,0.3-1.5,0.4-2.2c0.1-0.7,0.2-1.4,0.3-2c0.3-2.4,0.5-3.8,0.5-3.8l4.3,0.5
				c0,0-0.2,1.4-0.5,3.9c-0.1,0.6-0.2,1.3-0.3,2c-0.1,0.8-0.2,1.5-0.4,2.5c-0.2,0.9-0.3,1.9-0.7,2.9c-0.3,1-0.7,1.9-1,2.9
				c-0.8,2-1.7,4.2-2.8,6.4c-0.6,1.1-1.2,2.3-2,3.5c-0.2,0.3-0.5,0.6-0.7,0.9c-0.3,0.3-0.7,0.7-0.8,0.9c-0.5,0.4-0.9,0.9-1.4,1.3
				c-1.9,1.8-3.8,3.7-5.9,5.6c-1,0.9-2.1,1.9-3.2,2.8c-1.1,0.9-2.2,1.8-3.7,2.7c-0.2,0.1-0.5,0.2-0.7,0.3l-0.6,0.2l-0.8,0.3
				c-0.6,0.3-1.1,0.6-1.8,0.9c-1.2,0.7-2.6,1.3-3.9,1.9c-1.4,0.6-2.9,1-4.4,1.2c-1.5,0.2-3.2,0.2-4.4,0c-1.3-0.2-2.7-0.3-4-0.5
				c-1.3-0.2-2.5-0.4-3.7-0.6c-2.4-0.3-4.6-0.7-6.7-1.1c-4.2-0.7-7.6-1.4-10-1.8c-2.4-0.5-3.8-0.7-3.8-0.7L704.7,989z"/>
			<path fill="none" stroke="#F7ECDE" stroke-width="0.545" stroke-miterlimit="10" d="M772,954.7c0,0-0.2,1.4-0.5,3.9
				c-0.1,0.6-0.2,1.3-0.3,2c-0.1,0.8-0.2,1.5-0.4,2.5c-0.2,0.9-0.3,1.9-0.7,2.9c-0.3,1-0.7,1.9-1,2.9c-0.8,2-1.7,4.2-2.8,6.4
				c-0.6,1.1-1.2,2.3-2,3.5c-0.2,0.3-0.5,0.6-0.7,0.9c-0.3,0.3-0.7,0.7-0.8,0.9c-0.5,0.4-0.9,0.9-1.4,1.3c-1.9,1.8-3.8,3.7-5.9,5.6
				c-1,0.9-2.1,1.9-3.2,2.8c-1.1,0.9-2.2,1.8-3.7,2.7c-0.2,0.1-0.5,0.2-0.7,0.3l-0.6,0.2l-0.8,0.3c-0.6,0.3-1.1,0.6-1.8,0.9
				c-1.2,0.7-2.6,1.3-3.9,1.9c-1.4,0.6-2.9,1-4.4,1.2c-1.5,0.2-3.2,0.2-4.4,0c-1.3-0.2-2.7-0.3-4-0.5c-1.3-0.2-2.5-0.4-3.7-0.6
				c-2.4-0.3-4.6-0.7-6.7-1.1c-4.2-0.7-7.6-1.4-10-1.8c-2.4-0.5-3.8-0.7-3.8-0.7"/>
			<path fill="none" stroke="#F7ECDE" stroke-width="0.545" stroke-miterlimit="10" d="M767.7,954.2c0,0-0.2,1.4-0.5,3.8
				c-0.1,0.6-0.2,1.3-0.3,2c-0.1,0.7-0.2,1.5-0.4,2.2c-0.2,0.8-0.3,1.6-0.6,2.4c-0.3,0.9-0.6,1.8-1,2.7c-0.7,1.9-1.6,4-2.6,6
				c-0.5,1-1.1,2.1-1.7,2.9l-0.4,0.6c-0.2,0.1-0.2,0.2-0.5,0.5c-0.5,0.5-1,0.9-1.4,1.4c-1.9,1.8-3.8,3.7-5.8,5.5c-1,0.9-2,1.8-3,2.7
				c-1,0.8-2.1,1.7-3,2.2c-0.1,0.1-0.2,0.1-0.3,0.1l-0.1,0.1l-0.3,0.1l-1.2,0.5c-0.7,0.3-1.4,0.7-1.9,1c-1.2,0.7-2.4,1.2-3.5,1.7
				c-1.1,0.5-2.3,0.8-3.4,0.9c-1.1,0.1-2.2,0.2-3.5,0c-1.3-0.2-2.5-0.2-3.7-0.4c-1.2-0.2-2.4-0.4-3.6-0.6c-2.4-0.3-4.6-0.7-6.6-1.1
				c-4.1-0.7-7.5-1.3-9.9-1.8c-2.4-0.5-3.8-0.7-3.8-0.7"/>
		</g>
		<g>
			<path fill="#FFFFFF" d="M356.7,1108.6c0,0-12.2,0-30.5,0c-9.2,0-19.8,0-31.3,0c-1.5,0-2.9,0-4.4-0.1c-0.7,0-1.5-0.1-2.2-0.1
				c-0.8-0.1-1.5-0.2-2.3-0.2c-3-0.3-6-0.9-9-1.6c-3-0.7-5.9-1.4-8.9-2.1c-1.5-0.4-3-0.7-4.4-1.1c-1.5-0.4-2.9-0.7-4.5-1.1
				c-3.1-0.8-6.1-1.9-9-3.3c-2.9-1.5-5.7-3.3-7.9-5.9c-1.1-1.3-2.1-2.7-2.8-4.5c-0.1-0.4-0.4-1.1-0.4-1.5l-0.1-1.2
				c-0.1-0.8-0.1-1.6-0.1-2.4c0-3,0-5.9,0-8.7c0-11.4,0-22.1,0-31.3c0-18.3,0-30.5,0-30.5h4.4c0,0,0,12.2,0,30.5
				c0,9.2,0,19.8,0,31.3c0,2.9,0,5.7,0,8.7c0,0.7,0,1.4,0.1,2l0.1,1c0,0.4,0.1,0.4,0.2,0.7c0.4,1,1.1,2.1,1.9,3.1
				c1.7,2,4.1,3.5,6.6,4.8c2.5,1.3,5.3,2.3,8.1,3c1.4,0.4,2.9,0.8,4.4,1.1c1.5,0.4,3,0.7,4.4,1.1c2.9,0.7,5.9,1.4,8.8,2.1
				c2.9,0.6,5.7,1.2,8.6,1.5c0.7,0.1,1.4,0.2,2.1,0.2c0.7,0,1.4,0.1,2.1,0.1c1.4,0.1,2.8,0.1,4.2,0.1c11.4,0,22.1,0,31.2,0
				c18.3,0,30.5,0,30.5,0V1108.6z"/>
			<path fill="none" stroke="#F7ECDE" stroke-width="0.545" stroke-miterlimit="10" d="M243.3,1012.8c0,0,0,12.2,0,30.5
				c0,9.2,0,19.8,0,31.3c0,2.9,0,5.7,0,8.7c0,0.7,0,1.4,0.1,2l0.1,1c0,0.4,0.1,0.4,0.2,0.7c0.4,1,1.1,2.1,1.9,3.1
				c1.7,2,4.1,3.5,6.6,4.8c2.5,1.3,5.3,2.3,8.1,3c1.4,0.4,2.9,0.8,4.4,1.1c1.5,0.4,3,0.7,4.4,1.1c2.9,0.7,5.9,1.4,8.8,2.1
				c2.9,0.6,5.7,1.2,8.6,1.5c0.7,0.1,1.4,0.2,2.1,0.2c0.7,0,1.4,0.1,2.1,0.1c1.4,0.1,2.8,0.1,4.2,0.1c11.4,0,22.1,0,31.2,0
				c18.3,0,30.5,0,30.5,0"/>
			<path fill="none" stroke="#F7ECDE" stroke-width="0.545" stroke-miterlimit="10" d="M239,1012.8c0,0,0,12.2,0,30.5
				c0,9.2,0,19.8,0,31.3c0,2.9,0,5.8,0,8.7c0,0.8,0,1.6,0.1,2.4l0.1,1.2c0,0.3,0.2,1.1,0.4,1.5c0.7,1.8,1.6,3.2,2.8,4.5
				c2.2,2.6,5,4.4,7.9,5.9c2.9,1.5,5.9,2.5,9,3.3c1.5,0.4,3,0.8,4.5,1.1c1.5,0.4,3,0.7,4.4,1.1c2.9,0.7,5.9,1.5,8.9,2.1
				c3,0.6,6,1.3,9,1.6c0.8,0.1,1.5,0.2,2.3,0.2c0.7,0,1.5,0.1,2.2,0.1c1.5,0.1,3,0.1,4.4,0.1c11.5,0,22.1,0,31.3,0
				c18.3,0,30.5,0,30.5,0"/>
		</g>
		<g>
			<path fill="none" stroke="#FFFFE0" stroke-miterlimit="10" d="M356.8,1109.4"/>
		</g>
		<g>
			
				<rect x="358.4" y="1029.4" transform="matrix(-2.157525e-002 -0.9998 0.9998 -2.157525e-002 -643.8629 1433.0391)" fill="#FFFFFF" width="41.7" height="4.4"/>
			
				<line fill="none" stroke="#F7ECDE" stroke-width="0.545" stroke-miterlimit="10" x1="377.6" y1="1052.5" x2="376.7" y2="1010.8"/>
			<line fill="none" stroke="#F7ECDE" stroke-width="0.545" stroke-miterlimit="10" x1="381.9" y1="1052.4" x2="381" y2="1010.7"/>
		</g>
		<g>
			
				<rect x="353.1" y="1077" transform="matrix(-2.045863e-002 -0.9998 0.9998 -2.045863e-002 -690.923 1481.4994)" fill="#FFFFFF" width="54.4" height="4.4"/>
			<line fill="none" stroke="#F7ECDE" stroke-width="0.545" stroke-miterlimit="10" x1="378.7" y1="1106.5" x2="377.5" y2="1052"/>
			<line fill="none" stroke="#F7ECDE" stroke-width="0.545" stroke-miterlimit="10" x1="383" y1="1106.4" x2="381.9" y2="1052"/>
		</g>
		<g>
			<path fill="#FFFFFF" d="M382.9,1106.3c0,0,0.8,37.4,1.5,74.8c0.5,37.4,1.1,74.8,1.1,74.8l-4.4,0.1c0,0-0.5-37.4-1.1-74.8
				c-0.8-37.4-1.5-74.8-1.5-74.8L382.9,1106.3z"/>
			<path fill="none" stroke="#F7ECDE" stroke-width="0.545" stroke-miterlimit="10" d="M381.2,1256c0,0-0.5-37.4-1.1-74.8
				c-0.8-37.4-1.5-74.8-1.5-74.8"/>
			<path fill="none" stroke="#F7ECDE" stroke-width="0.545" stroke-miterlimit="10" d="M385.5,1255.9c0,0-0.5-37.4-1.1-74.8
				c-0.8-37.4-1.5-74.8-1.5-74.8"/>
		</g>
		<g>
			<polygon fill="#FFFFFF" points="385.5,1255.9 385.6,1263 381.3,1263 381.2,1255.9 			"/>
			<line fill="none" stroke="#F7ECDE" stroke-width="0.545" stroke-miterlimit="10" x1="381.3" y1="1263" x2="381.2" y2="1255.9"/>
			<line fill="none" stroke="#F7ECDE" stroke-width="0.545" stroke-miterlimit="10" x1="385.6" y1="1263" x2="385.5" y2="1255.9"/>
		</g>
		<g>
			<path fill="#FFFFFF" d="M385.7,1263c0,0,0.1,10.6,0.2,26.4c0,4,0.1,8.3,0.1,12.8c0,1.1,0,2.3,0,3.4c0,1.1,0.1,2.2,0.2,3.3
				c0.2,2.2,0.6,4.5,1.3,6.6c1.4,4.4,4.1,8.4,7.6,11.8c3.5,3.4,7.9,6,12.6,8.1c1.2,0.5,2.3,1,3.5,1.5c1.2,0.5,2.4,0.9,3.5,1.2
				c2.3,0.6,4.8,0.9,7.3,1.1c5,0.3,10.1,0.3,15,0.1c9.8-0.4,18.9-1.4,26.7-2.5c1.9-0.3,3.8-0.5,5.6-0.8c0.4-0.1,0.9-0.1,1.3-0.2
				c0.5-0.1,0.9-0.1,1.3-0.2c0.9-0.1,1.8-0.2,2.6-0.3c3.3-0.2,6.2-0.2,8.6-0.1c2.4,0,4.2,0.3,5.4,0.3c1.3,0.1,1.9,0.2,1.9,0.2
				l-0.4,4.3c0,0-0.6-0.1-1.9-0.1c-1.2-0.1-3-0.3-5.3-0.3c-2.3-0.1-5-0.1-8.1,0.1c-0.8,0.1-1.5,0.2-2.3,0.3c-0.4,0-0.8,0.1-1.2,0.1
				c-0.4,0.1-0.9,0.1-1.3,0.2c-1.8,0.3-3.7,0.6-5.7,0.8c-7.9,1.1-17.1,2.1-27.1,2.5c-5,0.2-10.2,0.3-15.5-0.1
				c-2.7-0.2-5.4-0.5-8.2-1.2c-1.5-0.4-2.7-0.9-3.9-1.4c-1.3-0.5-2.5-1-3.8-1.6c-4.9-2.3-9.8-5.1-13.8-8.9c-0.5-0.5-1-1-1.5-1.4
				l-1.4-1.6l-0.7-0.8c-0.2-0.3-0.4-0.6-0.6-0.8l-1.2-1.7c-0.4-0.6-0.7-1.2-1-1.8c-0.3-0.6-0.7-1.2-1-1.8c-0.3-0.6-0.5-1.2-0.8-1.9
				c-0.3-0.6-0.5-1.2-0.7-1.9c-0.8-2.5-1.3-5.1-1.5-7.6c-0.1-1.3-0.1-2.5-0.2-3.7c0-1.2,0-2.3,0-3.4c0-4.5-0.1-8.8-0.1-12.8
				c-0.1-15.8-0.2-26.4-0.2-26.4L385.7,1263z"/>
			<path fill="none" stroke="#F7ECDE" stroke-width="0.545" stroke-miterlimit="10" d="M490.2,1340.1c0,0-0.6-0.1-1.9-0.1
				c-1.2-0.1-3-0.3-5.3-0.3c-2.3-0.1-5-0.1-8.1,0.1c-0.8,0.1-1.5,0.2-2.3,0.3c-0.4,0-0.8,0.1-1.2,0.1c-0.4,0.1-0.9,0.1-1.3,0.2
				c-1.8,0.3-3.7,0.6-5.7,0.8c-7.9,1.1-17.1,2.1-27.1,2.5c-5,0.2-10.2,0.3-15.5-0.1c-2.7-0.2-5.4-0.5-8.2-1.2
				c-1.5-0.4-2.7-0.9-3.9-1.4c-1.3-0.5-2.5-1-3.8-1.6c-4.9-2.3-9.8-5.1-13.8-8.9c-0.5-0.5-1-1-1.5-1.4l-1.4-1.6l-0.7-0.8
				c-0.2-0.3-0.4-0.6-0.6-0.8l-1.2-1.7c-0.4-0.6-0.7-1.2-1-1.8c-0.3-0.6-0.7-1.2-1-1.8c-0.3-0.6-0.5-1.2-0.8-1.9
				c-0.3-0.6-0.5-1.2-0.7-1.9c-0.8-2.5-1.3-5.1-1.5-7.6c-0.1-1.3-0.1-2.5-0.2-3.7c0-1.2,0-2.3,0-3.4c0-4.5-0.1-8.8-0.1-12.8
				c-0.1-15.8-0.2-26.4-0.2-26.4"/>
			<path fill="none" stroke="#F7ECDE" stroke-width="0.545" stroke-miterlimit="10" d="M490.7,1335.8c0,0-0.7-0.1-1.9-0.2
				c-1.3-0.1-3.1-0.3-5.4-0.3c-2.4-0.1-5.2-0.1-8.6,0.1c-0.8,0.1-1.7,0.2-2.6,0.3c-0.4,0.1-0.9,0.1-1.3,0.2
				c-0.4,0.1-0.9,0.1-1.3,0.2c-1.8,0.3-3.6,0.6-5.6,0.8c-7.8,1.1-16.9,2.1-26.7,2.5c-4.9,0.2-10,0.3-15-0.1c-2.5-0.2-5-0.5-7.3-1.1
				c-1.1-0.3-2.3-0.8-3.5-1.2c-1.2-0.5-2.4-1-3.5-1.5c-4.6-2.1-9-4.7-12.6-8.1c-3.5-3.3-6.2-7.4-7.6-11.8c-0.7-2.2-1.1-4.4-1.3-6.6
				c-0.1-1.1-0.1-2.2-0.2-3.3c0-1.2,0-2.3,0-3.4c0-4.5-0.1-8.8-0.1-12.8c-0.1-15.8-0.2-26.4-0.2-26.4"/>
		</g>
		<g>
			<path fill="#FFFFFF" d="M490.5,1335.8c0,0,2.6,0.3,7.1,0.8c4.5,0.6,10.9,1.6,18.6,2.8c1.9,0.3,3.9,0.6,6,0.9
				c2.1,0.3,4.2,0.6,6.4,0.9c1.1,0.1,2.2,0.2,3.3,0.3c1.1,0.1,2.2,0.3,3.4,0.3c1.1,0.1,2.3,0.1,3.4,0.2c1.2,0.1,2.4,0.1,3.6,0.1
				c2.4,0.1,4.9,0.1,7.6,0.4c0.7,0.1,1.3,0.2,2,0.3c0.7,0.2,1.4,0.3,2.1,0.6c1.4,0.5,2.8,1.2,3.9,2.1c2.4,1.7,4.1,3.8,5.8,5.7
				c1.7,2,3.3,4,5,6c3.3,4,6.6,7.7,10.3,11.1c3.7,3.3,7.6,6.3,11.6,9c7.9,5.4,15.7,9.9,22.5,13.4c3.4,1.8,6.6,3.3,9.4,4.6
				c1.4,0.7,2.7,1.3,4,1.8c0.6,0.3,1.2,0.4,1.7,0.7c0.5,0.2,1.1,0.4,1.6,0.5c2,0.6,3.6,0.7,4.7,0.8c1.1,0,1.6,0,1.5,0l0.5,4.3
				c-0.1,0-0.9,0.1-2.2,0c-1.3,0-3.3-0.3-5.7-0.9c-1.2-0.3-2.5-0.8-3.8-1.3c-1.3-0.6-2.6-1.2-4.1-1.8c-2.9-1.3-6.1-2.9-9.6-4.7
				c-7-3.6-14.9-8.1-23-13.7c-4-2.8-8.1-5.9-12-9.4c-1.9-1.8-3.8-3.6-5.6-5.6l-1.4-1.5l-1.3-1.5l-2.5-3c-1.7-2-3.3-4-5-5.9
				c-1.7-1.9-3.3-3.8-5.1-5.1c-0.9-0.7-1.8-1.1-2.8-1.5c-0.5-0.2-1-0.3-1.6-0.4l-1.7-0.3c-2.3-0.3-4.8-0.3-7.2-0.4
				c-1.2,0-2.4,0-3.6-0.1c-1.2-0.1-2.4-0.1-3.6-0.2c-1.2,0-2.4-0.2-3.5-0.3c-1.2-0.1-2.3-0.2-3.4-0.4c-2.2-0.3-4.4-0.6-6.5-0.9
				c-2.1-0.3-4.1-0.6-6-0.9c-7.7-1.2-14-2.2-18.5-2.8c-4.4-0.5-7-0.8-7-0.8L490.5,1335.8z"/>
			<path fill="none" stroke="#F7ECDE" stroke-width="0.545" stroke-miterlimit="10" d="M636.4,1403.3c-0.1,0-0.9,0.1-2.2,0
				c-1.3,0-3.3-0.3-5.7-0.9c-1.2-0.3-2.5-0.8-3.8-1.3c-1.3-0.6-2.6-1.2-4.1-1.8c-2.9-1.3-6.1-2.9-9.6-4.7c-7-3.6-14.9-8.1-23-13.7
				c-4-2.8-8.1-5.9-12-9.4c-1.9-1.8-3.8-3.6-5.6-5.6l-1.4-1.5l-1.3-1.5l-2.5-3c-1.7-2-3.3-4-5-5.9c-1.7-1.9-3.3-3.8-5.1-5.1
				c-0.9-0.7-1.8-1.1-2.8-1.5c-0.5-0.2-1-0.3-1.6-0.4l-1.7-0.3c-2.3-0.3-4.8-0.3-7.2-0.4c-1.2,0-2.4,0-3.6-0.1
				c-1.2-0.1-2.4-0.1-3.6-0.2c-1.2,0-2.4-0.2-3.5-0.3c-1.2-0.1-2.3-0.2-3.4-0.4c-2.2-0.3-4.4-0.6-6.5-0.9c-2.1-0.3-4.1-0.6-6-0.9
				c-7.7-1.2-14-2.2-18.5-2.8c-4.4-0.5-7-0.8-7-0.8"/>
			<path fill="none" stroke="#F7ECDE" stroke-width="0.545" stroke-miterlimit="10" d="M635.9,1399c0.1,0-0.4,0-1.5,0
				c-1.1,0-2.7-0.2-4.7-0.8c-0.5-0.1-1-0.3-1.6-0.5c-0.5-0.2-1.1-0.4-1.7-0.7c-1.2-0.5-2.6-1.1-4-1.8c-2.8-1.3-6-2.9-9.4-4.6
				c-6.8-3.5-14.6-8-22.5-13.4c-3.9-2.7-7.8-5.7-11.6-9c-3.7-3.3-7-7-10.3-11.1c-1.7-2-3.3-4-5-6c-1.7-2-3.5-4-5.8-5.7
				c-1.1-0.9-2.6-1.6-3.9-2.1c-0.7-0.2-1.4-0.4-2.1-0.6c-0.7-0.1-1.4-0.2-2-0.3c-2.7-0.3-5.1-0.3-7.6-0.4c-1.2,0-2.4,0-3.6-0.1
				c-1.2-0.1-2.3-0.1-3.4-0.2c-1.1,0-2.3-0.2-3.4-0.3c-1.1-0.1-2.2-0.2-3.3-0.3c-2.2-0.3-4.3-0.6-6.4-0.9c-2.1-0.3-4-0.6-6-0.9
				c-7.6-1.2-14.1-2.2-18.6-2.8c-4.5-0.5-7.1-0.8-7.1-0.8"/>
		</g>
		<g>
			<polygon fill="#FFFFFF" points="528.9,1207.2 512.1,1260.9 508,1259.6 524.8,1205.9 			"/>
			<line fill="none" stroke="#F7ECDE" stroke-width="0.545" stroke-miterlimit="10" x1="508" y1="1259.6" x2="524.8" y2="1205.9"/>
			
				<line fill="none" stroke="#F7ECDE" stroke-width="0.545" stroke-miterlimit="10" x1="512.1" y1="1260.9" x2="528.9" y2="1207.2"/>
		</g>
		<g>
			<path fill="#FFFFFF" d="M512.1,1260.9c0,0-5.9,18.8-11.8,37.7c-1.5,4.7-3,9.4-4.4,13.8c-0.7,2.2-1.4,4.4-1.9,6.3
				c-0.1,0.5-0.3,1-0.4,1.4c-0.1,0.5-0.2,1-0.3,1.4c-0.2,0.9-0.4,1.8-0.4,2.7c-0.5,3.5-0.5,6.6-0.6,8.7c0,1.1,0,1.9,0,2.4
				c0,0.5,0,0.8,0,0.8l-4.4,0.2c0,0,0-0.3,0-0.9c0-0.6,0-1.5,0-2.6c0-2.2,0.1-5.4,0.6-9.2c0.1-1,0.3-1.9,0.5-3
				c0.1-0.5,0.2-1,0.3-1.6c0.1-0.5,0.3-1.1,0.4-1.6c0.6-2.3,1.3-4.3,2-6.5c1.4-4.4,2.9-9.1,4.3-13.8c5.9-18.8,11.8-37.7,11.8-37.7
				L512.1,1260.9z"/>
			<path fill="none" stroke="#F7ECDE" stroke-width="0.545" stroke-miterlimit="10" d="M488.1,1336.4c0,0,0-0.3,0-0.9
				c0-0.6,0-1.5,0-2.6c0-2.2,0.1-5.4,0.6-9.2c0.1-1,0.3-1.9,0.5-3c0.1-0.5,0.2-1,0.3-1.6c0.1-0.5,0.3-1.1,0.4-1.6
				c0.6-2.3,1.3-4.3,2-6.5c1.4-4.4,2.9-9.1,4.3-13.8c5.9-18.8,11.8-37.7,11.8-37.7"/>
			<path fill="none" stroke="#F7ECDE" stroke-width="0.545" stroke-miterlimit="10" d="M492.4,1336.2c0,0,0-0.3,0-0.8
				c0-0.6,0-1.4,0-2.4c0-2.1,0.1-5.1,0.6-8.7c0.1-0.9,0.3-1.8,0.4-2.7c0.1-0.5,0.2-0.9,0.3-1.4c0.1-0.5,0.3-0.9,0.4-1.4
				c0.4-1.9,1.2-4.1,1.9-6.3c1.4-4.4,2.9-9.1,4.4-13.8c5.9-18.8,11.8-37.7,11.8-37.7"/>
		</g>
		<g>
			<polygon fill="#FFFFFF" points="447.7,1299.4 456.1,1269.2 460.3,1270.4 451.9,1300.5 			"/>
			
				<line fill="none" stroke="#F7ECDE" stroke-width="0.545" stroke-miterlimit="10" x1="460.3" y1="1270.4" x2="451.9" y2="1300.5"/>
			
				<line fill="none" stroke="#F7ECDE" stroke-width="0.545" stroke-miterlimit="10" x1="456.1" y1="1269.2" x2="447.7" y2="1299.4"/>
		</g>
		<g>
			<path fill="#FFFFFF" d="M456.2,1269.3c0,0,1.2-4,2.9-10.1c0.4-1.5,1-3.2,1.6-5c0.3-0.9,0.6-1.8,0.9-2.7c0.4-1,1-2.1,1.9-3.1
				c0.9-1,2.2-1.9,3.7-2.2c0.4-0.1,0.8-0.1,1.2-0.1c0.4,0,1,0.1,1.2,0.1c0.5,0.1,1,0.3,1.6,0.4c2.1,0.5,4.1,1.1,6.1,1.7
				c16.1,4.6,32.2,9.2,32.2,9.2l-1.2,4.2c0,0-16.1-4.6-32.2-9.2c-2-0.6-4.1-1.2-5.9-1.6c-0.5-0.1-0.9-0.2-1.4-0.4
				c-0.3-0.1-0.2-0.1-0.4-0.1c-0.1,0-0.2,0-0.3,0c-0.4,0.1-0.9,0.4-1.3,0.8c-0.4,0.5-0.8,1.1-1.1,1.8c-0.3,0.8-0.6,1.7-0.8,2.5
				c-0.5,1.7-1.1,3.2-1.5,4.7c-1.7,6-2.9,10-2.9,10L456.2,1269.3z"/>
			<path fill="none" stroke="#F7ECDE" stroke-width="0.545" stroke-miterlimit="10" d="M508.3,1261.8c0,0-16.1-4.6-32.2-9.2
				c-2-0.6-4.1-1.2-5.9-1.6c-0.5-0.1-0.9-0.2-1.4-0.4c-0.3-0.1-0.2-0.1-0.4-0.1c-0.1,0-0.2,0-0.3,0c-0.4,0.1-0.9,0.4-1.3,0.8
				c-0.4,0.5-0.8,1.1-1.1,1.8c-0.3,0.8-0.6,1.7-0.8,2.5c-0.5,1.7-1.1,3.2-1.5,4.7c-1.7,6-2.9,10-2.9,10"/>
			<path fill="none" stroke="#F7ECDE" stroke-width="0.545" stroke-miterlimit="10" d="M509.5,1257.6c0,0-16.1-4.6-32.2-9.2
				c-2-0.6-4-1.2-6.1-1.7c-0.5-0.1-1-0.3-1.6-0.4c-0.2-0.1-0.8-0.2-1.2-0.1c-0.4,0-0.8,0-1.2,0.1c-1.5,0.3-2.8,1.2-3.7,2.2
				c-0.9,1-1.5,2.1-1.9,3.1c-0.4,1-0.6,1.8-0.9,2.7c-0.6,1.8-1.2,3.5-1.6,5c-1.7,6.1-2.9,10.1-2.9,10.1"/>
		</g>
		<g>
			<path fill="#FFFFFF" d="M456.4,1271.6c0,0-4.5-0.7-11.1-1.7c-1.7-0.3-3.5-0.5-5.4-0.8c-1.9-0.2-3.7-0.4-5.9-0.6
				c-4.2-0.3-8.7-0.6-13.1-0.9c-17.9-1.1-35.9-1.9-35.9-1.9l0.2-4.4c0,0,18,0.9,36,1.9c4.5,0.3,9,0.5,13.2,0.9
				c2.1,0.1,4.3,0.4,6.2,0.6c1.9,0.3,3.7,0.6,5.4,0.8c6.7,1,11.1,1.7,11.1,1.7L456.4,1271.6z"/>
			<path fill="none" stroke="#F7ECDE" stroke-width="0.545" stroke-miterlimit="10" d="M385.2,1261.4c0,0,18,0.9,36,1.9
				c4.5,0.3,9,0.5,13.2,0.9c2.1,0.1,4.3,0.4,6.2,0.6c1.9,0.3,3.7,0.6,5.4,0.8c6.7,1,11.1,1.7,11.1,1.7"/>
			<path fill="none" stroke="#F7ECDE" stroke-width="0.545" stroke-miterlimit="10" d="M385,1265.8c0,0,18,0.8,35.9,1.9
				c4.5,0.3,9,0.5,13.1,0.9c2.1,0.1,4,0.4,5.9,0.6c1.9,0.3,3.7,0.6,5.4,0.8c6.7,1,11.1,1.7,11.1,1.7"/>
		</g>
		<g>
			<path fill="#FFFFFF" d="M864.6,1134.9c0,0-17.4-2.1-43.5-5.2c-3.3-0.4-6.7-0.8-10.2-1.1c-3.5-0.3-7.2-0.6-10.9-0.9
				c-7.5-0.5-15.4-0.9-23.5-0.5c-2,0.1-4,0.3-5.9,0.6c-1,0.2-1.9,0.4-2.7,0.7l-0.5,0.2c-0.2,0.1-0.3,0.2-0.4,0.3
				c-0.1,0.1-0.3,0.2-0.5,0.4l-0.5,0.4c-2.9,2.6-5.8,5.9-8.5,9.1c-5.6,6.5-11,13.4-16.4,20.3c-5.4,6.9-10.7,13.9-15.8,20.8
				c-5.1,6.9-10.2,13.8-14.8,20.5c-0.6,0.8-1.1,1.7-1.7,2.5c-0.4,0.6-1.2,1.9-2,2.8c-0.8,0.8-1.5,1.6-2.3,2.3l-1.2,1l-1.2,1
				c-3.2,2.5-6.4,4.8-9.6,6.9c-6.4,4.2-12.5,7.8-18.4,11.1c-1.4,0.8-2.9,1.6-4.3,2.3c-1.3,0.7-2.7,1.4-4,2.2
				c-2.6,1.5-5.1,2.9-7.4,4.2c-4.7,2.6-8.9,4.8-12.4,6.5c-3.5,1.7-6.4,2.8-8.6,3.5c-0.6,0.1-1.1,0.3-1.5,0.4
				c-0.4,0.1-0.9,0.1-1.2,0.2c-0.7,0.1-1,0.1-1,0.1v-4.4c0,0,0.2,0,0.6-0.1c0.2,0,0.4,0,0.8-0.1c0.3-0.1,0.7-0.2,1.2-0.3
				c1.8-0.5,4.5-1.6,7.9-3.2c3.4-1.6,7.5-3.8,12.1-6.4c2.3-1.3,4.8-2.7,7.4-4.2c1.3-0.7,2.6-1.5,4.1-2.3c1.4-0.7,2.8-1.4,4.2-2.2
				c5.7-3.2,11.8-6.8,18.1-10.9c3.1-2.1,6.3-4.2,9.3-6.6l1.1-0.9l1.1-0.9c0.7-0.6,1.3-1.3,2-1.9c0.3-0.3,0.5-0.6,0.7-1
				c0.2-0.2,0.5-0.8,0.8-1.3c0.6-0.9,1.2-1.8,1.7-2.6c4.7-6.8,9.8-13.7,14.9-20.6c5.2-7,10.5-14,15.9-20.9
				c5.4-6.9,10.9-13.8,16.5-20.5c2.9-3.3,5.6-6.6,9-9.6l0.7-0.6c0.2-0.2,0.4-0.4,0.8-0.6c0.3-0.2,0.6-0.4,0.9-0.6l0.9-0.4
				c1.2-0.4,2.3-0.7,3.4-0.9c2.2-0.4,4.3-0.6,6.5-0.7c8.4-0.4,16.4,0.1,24,0.6c3.8,0.3,7.5,0.6,11,0.9c3.5,0.3,6.9,0.7,10.2,1.1
				c26.2,3.1,43.7,5.2,43.7,5.2L864.6,1134.9z"/>
			<path fill="none" stroke="#F7ECDE" stroke-width="0.545" stroke-miterlimit="10" d="M633.8,1243c0,0,0.2,0,0.6-0.1
				c0.2,0,0.4,0,0.8-0.1c0.3-0.1,0.7-0.2,1.2-0.3c1.8-0.5,4.5-1.6,7.9-3.2c3.4-1.6,7.5-3.8,12.1-6.4c2.3-1.3,4.8-2.7,7.4-4.2
				c1.3-0.7,2.6-1.5,4.1-2.3c1.4-0.7,2.8-1.4,4.2-2.2c5.7-3.2,11.8-6.8,18.1-10.9c3.1-2.1,6.3-4.2,9.3-6.6l1.1-0.9l1.1-0.9
				c0.7-0.6,1.3-1.3,2-1.9c0.3-0.3,0.5-0.6,0.7-1c0.2-0.2,0.5-0.8,0.8-1.3c0.6-0.9,1.2-1.8,1.7-2.6c4.7-6.8,9.8-13.7,14.9-20.6
				c5.2-7,10.5-14,15.9-20.9c5.4-6.9,10.9-13.8,16.5-20.5c2.9-3.3,5.6-6.6,9-9.6l0.7-0.6c0.2-0.2,0.4-0.4,0.8-0.6
				c0.3-0.2,0.6-0.4,0.9-0.6l0.9-0.4c1.2-0.4,2.3-0.7,3.4-0.9c2.2-0.4,4.3-0.6,6.5-0.7c8.4-0.4,16.4,0.1,24,0.6
				c3.8,0.3,7.5,0.6,11,0.9c3.5,0.3,6.9,0.7,10.2,1.1c26.2,3.1,43.7,5.2,43.7,5.2"/>
			<path fill="none" stroke="#F7ECDE" stroke-width="0.545" stroke-miterlimit="10" d="M633.8,1247.4c0,0,0.3,0,1-0.1
				c0.3,0,0.8-0.1,1.2-0.2c0.4-0.1,0.9-0.2,1.5-0.4c2.2-0.6,5.1-1.8,8.6-3.5c3.5-1.7,7.7-3.9,12.4-6.5c2.3-1.3,4.8-2.7,7.4-4.2
				c1.3-0.7,2.7-1.5,4-2.2c1.4-0.7,2.9-1.5,4.3-2.3c5.8-3.2,12-6.9,18.4-11.1c3.2-2.1,6.4-4.3,9.6-6.9l1.2-1l1.2-1
				c0.8-0.7,1.6-1.5,2.3-2.3c0.7-0.8,1.6-2.1,2-2.8c0.5-0.8,1.1-1.7,1.7-2.5c4.6-6.7,9.7-13.6,14.8-20.5
				c5.1-6.9,10.4-13.9,15.8-20.8c5.4-6.9,10.8-13.8,16.4-20.3c2.8-3.2,5.6-6.5,8.5-9.1l0.5-0.4c0.2-0.1,0.4-0.3,0.5-0.4
				c0.1-0.1,0.3-0.2,0.4-0.3l0.5-0.2c0.8-0.3,1.7-0.5,2.7-0.7c1.9-0.3,3.9-0.5,5.9-0.6c8-0.4,16,0.1,23.5,0.5
				c3.7,0.3,7.4,0.5,10.9,0.9c3.5,0.3,7,0.7,10.2,1.1c26.1,3.1,43.5,5.2,43.5,5.2"/>
		</g>
		<g>
			<path fill="#FFFFFF" d="M523.4,947.9c0,0-0.1,0.1-0.2,0.3c-0.1,0.2-0.3,0.4-0.5,0.7c-0.4,0.6-1.1,1.5-2,2.6
				c-0.4,0.5-1,1.1-1.6,1.7c-0.6,0.6-1.3,1.2-2.1,1.8c-0.8,0.6-1.7,1.2-2.6,1.8c-0.5,0.3-1,0.5-1.5,0.8c-0.5,0.3-1,0.6-1.6,0.8
				c-2.5,0.9-4.9,1.4-7.4,1.8c-2.6,0.4-5.3,0.8-8.1,1.1c-5.6,0.6-11.5,1.2-17.5,1.6c-2.8,0.2-5.6,0.4-8.3,0.6
				c-0.1,0-0.2,0.1-0.2,0.1c0,0,0,0.4,0,1.1c0,1.4,0.1,2.8,0.1,4.2c0,1.4,0.1,2.8,0.1,4.2c0,0.3,0,0.7,0,1c0,0.3,0,0.6,0,0.9
				c0,0.6,0,1.2,0.2,1.7c0.3,2.2,1.2,4,2.4,5.5c1.2,1.5,2.6,2.5,4,3.3c1.4,0.8,2.8,1.3,3.9,1.7c1.1,0.4,2.1,0.6,2.7,0.7
				c0.6,0.1,1,0.2,1,0.2l-0.9,4.3c0,0-0.4-0.1-1.1-0.2c-0.7-0.2-1.8-0.4-3.1-0.9c-1.3-0.4-2.9-1-4.7-2c-1.7-1-3.7-2.4-5.3-4.4
				c-1.6-2-2.9-4.7-3.3-7.5c-0.2-0.7-0.2-1.4-0.2-2.2c0-0.4,0-0.8-0.1-1.1c0-0.3,0-0.7,0-1c0-1.3,0-2.7-0.1-4.1
				c0-1.4-0.1-2.8-0.1-4.3c0-0.7-0.1-1.8,0.3-3.1l0.2-0.5l0.3-0.4c0.2-0.3,0.4-0.5,0.6-0.7c0.5-0.4,1.1-0.7,1.8-0.8
				c1.4-0.3,1.9-0.2,2.7-0.3c0.7-0.1,1.5-0.1,2.2-0.2c1.5-0.1,3-0.2,4.4-0.3c5.9-0.4,11.8-1,17.3-1.6c2.7-0.3,5.4-0.7,7.8-1.1
				c2.4-0.4,4.8-0.9,6.5-1.5c0.4-0.1,0.9-0.4,1.3-0.6c0.4-0.2,0.8-0.4,1.2-0.6c0.7-0.5,1.5-1,2.1-1.5c0.6-0.6,1.2-1,1.7-1.5
				c0.5-0.5,1-1,1.4-1.4c1.6-1.8,2.2-3,2.2-2.9L523.4,947.9z"/>
			<path fill="none" stroke="#F7ECDE" stroke-width="0.545" stroke-miterlimit="10" d="M483.4,992.6c0,0-0.4-0.1-1.1-0.2
				c-0.7-0.2-1.8-0.4-3.1-0.9c-1.3-0.4-2.9-1-4.7-2c-1.7-1-3.7-2.4-5.3-4.4c-1.6-2-2.9-4.7-3.3-7.5c-0.2-0.7-0.2-1.4-0.2-2.2
				c0-0.4,0-0.8-0.1-1.1c0-0.3,0-0.7,0-1c0-1.3,0-2.7-0.1-4.1c0-1.4-0.1-2.8-0.1-4.3c0-0.7-0.1-1.8,0.3-3.1l0.2-0.5l0.3-0.4
				c0.2-0.3,0.4-0.5,0.6-0.7c0.5-0.4,1.1-0.7,1.8-0.8c1.4-0.3,1.9-0.2,2.7-0.3c0.7-0.1,1.5-0.1,2.2-0.2c1.5-0.1,3-0.2,4.4-0.3
				c5.9-0.4,11.8-1,17.3-1.6c2.7-0.3,5.4-0.7,7.8-1.1c2.4-0.4,4.8-0.9,6.5-1.5c0.4-0.1,0.9-0.4,1.3-0.6c0.4-0.2,0.8-0.4,1.2-0.6
				c0.7-0.5,1.5-1,2.1-1.5c0.6-0.6,1.2-1,1.7-1.5c0.5-0.5,1-1,1.4-1.4c1.6-1.8,2.2-3,2.2-2.9"/>
			<path fill="none" stroke="#F7ECDE" stroke-width="0.545" stroke-miterlimit="10" d="M484.3,988.3c0,0-0.3-0.1-1-0.2
				c-0.6-0.2-1.6-0.4-2.7-0.7c-1.1-0.4-2.5-0.9-3.9-1.7c-1.4-0.8-2.9-1.9-4-3.3c-1.2-1.5-2.1-3.3-2.4-5.5c-0.1-0.5-0.1-1.1-0.2-1.7
				c0-0.3,0-0.6,0-0.9c0-0.3,0-0.7,0-1c0-1.4,0-2.7-0.1-4.2c0-1.4-0.1-2.8-0.1-4.2c0-0.8,0-1.2,0-1.1c0-0.1,0.1-0.1,0.2-0.1
				c2.7-0.2,5.5-0.4,8.3-0.6c5.9-0.4,11.9-1,17.5-1.6c2.8-0.3,5.5-0.7,8.1-1.1c2.6-0.5,5-0.9,7.4-1.8c0.6-0.2,1.1-0.5,1.6-0.8
				c0.5-0.3,1-0.5,1.5-0.8c0.9-0.6,1.8-1.2,2.6-1.8c0.7-0.7,1.5-1.2,2.1-1.8c0.6-0.6,1.2-1.1,1.6-1.7c0.9-1.1,1.6-2,2-2.6
				c0.2-0.3,0.4-0.6,0.5-0.7c0.1-0.2,0.2-0.3,0.2-0.3"/>
		</g>
		<g>
			
				<rect x="381.3" y="1050" transform="matrix(0.9998 2.057746e-002 -2.057746e-002 0.9998 21.7349 -7.838)" fill="#FFFFFF" width="20.8" height="4.4"/>
			
				<line fill="none" stroke="#F7ECDE" stroke-width="0.545" stroke-miterlimit="10" x1="381.4" y1="1049.8" x2="402.2" y2="1050.2"/>
			
				<line fill="none" stroke="#F7ECDE" stroke-width="0.545" stroke-miterlimit="10" x1="381.3" y1="1054.2" x2="402.1" y2="1054.6"/>
		</g>
		<g>
			<path fill="#FFFFFF" d="M239.1,1014.6V904.8c-0.1-9.2,0.2-18.3,0.2-27.5l0.4-27.4l0.7-54.9l0.4-27.4l0.2-13.7l0.1-6.9l0.1-3.5
				l0.2-3.4l1.4-27.4l0.3-6.8l0-0.9l0-0.4c0-0.1,0-0.5,0.1-0.7c0.1-1,0.6-1.9,1.1-2.5c1.1-1.4,2.4-2,3.6-2.6c2.4-1.1,4.8-1.6,7.1-2
				c2.4-0.4,4.7-0.6,7-0.8c2.3-0.2,4.7-0.2,7-0.3c1.1,0,2.3,0,3.5,0.1c1.2,0.1,2.4,0.1,3.6,0.2c1.2,0.1,2.3,0.2,3.5,0.4
				c1.2,0.2,2.3,0.4,3.5,0.6l1.5,0.2c0.5,0.1,1,0.1,1.5,0.1c0.5,0.1,1.1,0,1.7,0h1.7H317h27.4h13.7h3.4h0.9h0.4l0.5,0
				c0.7,0,1.4,0.1,2.1,0.3c1.4,0.3,2.9,1.2,4,2.3c0.5,0.6,1,1.3,1.3,2c0.2,0.4,0.3,0.7,0.4,1.1c0.1,0.2,0.1,0.4,0.2,0.6
				c0,0.2,0.1,0.4,0.1,0.7l0-0.2c0.4,2.5,0.3,4.8,0.4,7l0.2,6.6l0.4,13.3l0.8,26.6l1.5,53.1l0.4,13.3l0.2,13.4l0.2,13.4
				c0,0.5-0.1,1.2-0.1,1.9c-0.1,0.7-0.3,1.3-0.4,1.9c-0.4,1.2-0.9,2.4-1.5,3.5c-1.2,2.2-2.8,4-4.4,5.7c-1.7,1.7-3.5,3.1-5.3,4.5
				c-1.9,1.4-3.8,2.6-5.9,3.7c-2,1.1-4.1,2.1-6.4,2.9c-2.2,0.7-4.5,1.3-6.7,1.7c-4.4,0.9-8.9,1.6-13.3,2.1c-4.4,0.5-8.9,1-13.3,1.3
				l-0.3-4.4c4.4-0.3,8.8-0.7,13.1-1.3c4.4-0.5,8.7-1.2,12.9-2c2.1-0.4,4.2-1,6.2-1.6c1.9-0.6,3.8-1.6,5.7-2.6
				c1.9-1,3.7-2.1,5.4-3.4c1.7-1.2,3.4-2.6,4.8-4c1.5-1.5,2.7-3.1,3.7-4.8c0.5-0.8,0.9-1.7,1.1-2.6c0.1-0.4,0.3-0.9,0.3-1.3
				c0.1-0.4,0.1-0.8,0.1-1.4l-0.2-13.2l-0.2-13.2l-0.4-13.3l-1.5-53.1l-0.8-26.6l-0.4-13.3l-0.2-6.6c-0.1-2.2-0.1-4.4-0.3-6.3l0-0.2
				c0,0.1,0-0.1,0-0.1l-0.1-0.3c-0.1-0.2-0.1-0.3-0.2-0.5c-0.2-0.3-0.4-0.6-0.6-0.9c-0.5-0.5-1.1-0.9-1.8-1
				c-0.4-0.1-0.8-0.2-1.3-0.2l-0.3,0h-0.4h-0.9h-3.4h-13.7H317h-27.4c-1.2,0-2.2,0-3.5,0c-0.6,0-1.3-0.1-1.9-0.1l-1.9-0.3
				c-1.1-0.2-2.2-0.4-3.3-0.6c-1.1-0.2-2.2-0.3-3.3-0.4c-1.1-0.2-2.2-0.1-3.3-0.2l-1.6-0.1c-0.6,0-1.1,0-1.7,0
				c-2.3,0-4.5,0.1-6.7,0.2c-2.2,0.2-4.4,0.4-6.6,0.7c-2.1,0.4-4.3,0.9-6,1.6c-0.9,0.4-1.6,0.9-2,1.3c-0.2,0.2-0.2,0.4-0.3,0.5
				c0,0.1,0,0,0,0.2l0,0.4l0,0.9l-0.3,6.9l-1.4,27.5l-0.2,3.4l-0.1,3.3l-0.1,6.8l-0.2,13.7l-0.4,27.4L244,850l-0.4,27.4
				c-0.1,9.1-0.3,18.3-0.2,27.4v109.8H239.1z"/>
			<path fill="none" stroke="#F7ECDE" stroke-width="0.545" stroke-miterlimit="10" d="M318,875.5c4.4-0.3,8.8-0.7,13.1-1.3
				c4.4-0.5,8.7-1.2,12.9-2c2.1-0.4,4.2-1,6.2-1.6c1.9-0.6,3.8-1.6,5.7-2.6c1.9-1,3.7-2.1,5.4-3.4c1.7-1.2,3.4-2.6,4.8-4
				c1.5-1.5,2.7-3.1,3.7-4.8c0.5-0.8,0.9-1.7,1.1-2.6c0.1-0.4,0.3-0.9,0.3-1.3c0.1-0.4,0.1-0.8,0.1-1.4l-0.2-13.2l-0.2-13.2
				l-0.4-13.3l-1.5-53.1l-0.8-26.6l-0.4-13.3l-0.2-6.6c-0.1-2.2-0.1-4.4-0.3-6.3l0-0.2c0,0.1,0-0.1,0-0.1l-0.1-0.3
				c-0.1-0.2-0.1-0.3-0.2-0.5c-0.2-0.3-0.4-0.6-0.6-0.9c-0.5-0.5-1.1-0.9-1.8-1c-0.4-0.1-0.8-0.2-1.3-0.2l-0.3,0h-0.4h-0.9h-3.4
				h-13.7H317h-27.4c-1.2,0-2.2,0-3.5,0c-0.6,0-1.3-0.1-1.9-0.1l-1.9-0.3c-1.1-0.2-2.2-0.4-3.3-0.6c-1.1-0.2-2.2-0.3-3.3-0.4
				c-1.1-0.2-2.2-0.1-3.3-0.2l-1.6-0.1c-0.6,0-1.1,0-1.7,0c-2.3,0-4.5,0.1-6.7,0.2c-2.2,0.2-4.4,0.4-6.6,0.7c-2.1,0.4-4.3,0.9-6,1.6
				c-0.9,0.4-1.6,0.9-2,1.3c-0.2,0.2-0.2,0.4-0.3,0.5c0,0.1,0,0,0,0.2l0,0.4l0,0.9l-0.3,6.9l-1.4,27.5l-0.2,3.4l-0.1,3.3l-0.1,6.8
				l-0.2,13.7l-0.4,27.4L244,850l-0.4,27.4c-0.1,9.1-0.3,18.3-0.2,27.4v109.8"/>
			<path fill="none" stroke="#F7ECDE" stroke-width="0.545" stroke-miterlimit="10" d="M318.3,879.8c4.5-0.3,8.9-0.8,13.3-1.3
				c4.4-0.5,8.9-1.2,13.3-2.1c2.2-0.4,4.4-1,6.7-1.7c2.3-0.8,4.4-1.8,6.4-2.9c2-1.1,4-2.3,5.9-3.7c1.9-1.4,3.7-2.8,5.3-4.5
				c1.7-1.7,3.2-3.5,4.4-5.7c0.6-1.1,1.1-2.2,1.5-3.5c0.2-0.6,0.4-1.2,0.4-1.9c0.1-0.7,0.2-1.4,0.1-1.9l-0.2-13.4l-0.2-13.4
				l-0.4-13.3l-1.5-53.1l-0.8-26.6l-0.4-13.3l-0.2-6.6c-0.1-2.2,0-4.4-0.4-7l0,0.2c0-0.3-0.1-0.5-0.1-0.7c0-0.2-0.1-0.4-0.2-0.6
				c-0.1-0.4-0.3-0.7-0.4-1.1c-0.3-0.7-0.8-1.4-1.3-2c-1.1-1.2-2.6-2-4-2.3c-0.7-0.2-1.4-0.3-2.1-0.3l-0.5,0h-0.4h-0.9h-3.4h-13.7
				H317h-27.4h-1.7c-0.6,0-1.2,0-1.7,0c-0.5,0-1-0.1-1.5-0.1l-1.5-0.2c-1.1-0.2-2.3-0.4-3.5-0.6c-1.2-0.2-2.3-0.3-3.5-0.4
				c-1.2-0.2-2.4-0.2-3.6-0.2c-1.2-0.1-2.4-0.1-3.5-0.1c-2.3,0-4.6,0.1-7,0.3c-2.3,0.2-4.7,0.4-7,0.8c-2.4,0.4-4.7,0.9-7.1,2
				c-1.2,0.6-2.5,1.2-3.6,2.6c-0.5,0.7-1,1.6-1.1,2.5c0,0.2-0.1,0.5-0.1,0.7l0,0.4l0,0.9l-0.3,6.8l-1.4,27.4l-0.2,3.4L241,747
				l-0.1,6.9l-0.2,13.7l-0.4,27.4l-0.7,54.9l-0.4,27.4c-0.1,9.1-0.3,18.3-0.2,27.5v109.8"/>
		</g>
		<g>
			<path fill="#FFFFFF" d="M318.2,879.7c0,0-0.3,0-0.8,0c-0.5,0-1.3,0-2.3-0.1c-2-0.2-4.9-0.7-8.2-2c-1.6-0.6-3.3-1.5-5-2.5
				c-1.7-1-3.4-2.3-5-3.6c-1.6-1.4-3.2-2.9-4.7-4.5l-1.1-1.2l-0.6-0.6l-0.7-0.8l-0.3-0.4l-0.3-0.4l-0.5-0.8
				c-0.3-0.5-0.6-1.1-0.8-1.6c-1.9-4.3-2.7-8.7-3.5-12.8c-0.2-1-0.3-2.1-0.5-3c-0.1-1.1-0.3-2.1-0.3-3.1c0-1-0.1-1.9-0.1-2.8
				c0-0.9,0-1.7,0-2.5c-0.1-6.5-0.1-10.8-0.1-10.8l4.4-0.1c0,0,0.1,4.3,0.1,10.8c0,0.8,0,1.7,0,2.5c0,0.9,0,1.8,0.1,2.6
				c0,0.9,0.2,1.7,0.2,2.6c0.1,1,0.3,1.9,0.5,2.9c0.7,3.9,1.6,8.1,3.2,11.7c0.2,0.4,0.4,0.9,0.6,1.3l0.4,0.6l0.2,0.3l0.2,0.2
				l0.4,0.5l0.6,0.6l1.1,1.2c1.5,1.5,2.9,2.9,4.4,4.2c1.5,1.2,3,2.3,4.5,3.2c1.5,0.9,3,1.6,4.4,2.1c2.8,1.1,5.3,1.5,7,1.7
				c0.9,0.1,1.6,0.1,2,0.1c0.5,0,0.7,0,0.7,0L318.2,879.7z"/>
			<path fill="none" stroke="#F7ECDE" stroke-width="0.545" stroke-miterlimit="10" d="M287.8,826.2c0,0,0.1,4.3,0.1,10.8
				c0,0.8,0,1.7,0,2.5c0,0.9,0,1.8,0.1,2.6c0,0.9,0.2,1.7,0.2,2.6c0.1,1,0.3,1.9,0.5,2.9c0.7,3.9,1.6,8.1,3.2,11.7
				c0.2,0.4,0.4,0.9,0.6,1.3l0.4,0.6l0.2,0.3l0.2,0.2l0.4,0.5l0.6,0.6l1.1,1.2c1.5,1.5,2.9,2.9,4.4,4.2c1.5,1.2,3,2.3,4.5,3.2
				c1.5,0.9,3,1.6,4.4,2.1c2.8,1.1,5.3,1.5,7,1.7c0.9,0.1,1.6,0.1,2,0.1c0.5,0,0.7,0,0.7,0"/>
			<path fill="none" stroke="#F7ECDE" stroke-width="0.545" stroke-miterlimit="10" d="M283.5,826.3c0,0,0.1,4.3,0.1,10.8
				c0,0.8,0,1.7,0,2.5c0,0.9,0,1.8,0.1,2.8c0,1,0.2,2,0.3,3.1c0.1,0.9,0.3,2,0.5,3c0.7,4.1,1.6,8.4,3.5,12.8
				c0.3,0.5,0.5,1.1,0.8,1.6l0.5,0.8l0.3,0.4l0.3,0.4l0.7,0.8l0.6,0.6l1.1,1.2c1.5,1.6,3.1,3.1,4.7,4.5c1.6,1.4,3.3,2.6,5,3.6
				c1.7,1,3.4,1.9,5,2.5c3.3,1.3,6.2,1.8,8.2,2c1,0.1,1.8,0.1,2.3,0.1c0.5,0,0.8,0,0.8,0"/>
		</g>
		<g>
			
				<rect x="243.1" y="783.7" transform="matrix(1.249753e-002 0.9999 -0.9999 1.249753e-002 1067.3354 490.9267)" fill="#FFFFFF" width="84" height="4.4"/>
			<line fill="none" stroke="#F7ECDE" stroke-width="0.545" stroke-miterlimit="10" x1="286.8" y1="743.8" x2="287.8" y2="827.8"/>
			<line fill="none" stroke="#F7ECDE" stroke-width="0.545" stroke-miterlimit="10" x1="282.4" y1="743.9" x2="283.5" y2="827.9"/>
		</g>
		<g>
			
				<rect x="262.2" y="721.1" transform="matrix(-8.853721e-003 1 -1 -8.853721e-003 1010.5475 444.8847)" fill="#FFFFFF" width="45.2" height="4.4"/>
			<line fill="none" stroke="#F7ECDE" stroke-width="0.545" stroke-miterlimit="10" x1="287.2" y1="700.7" x2="286.8" y2="745.9"/>
			<line fill="none" stroke="#F7ECDE" stroke-width="0.545" stroke-miterlimit="10" x1="282.8" y1="700.7" x2="282.4" y2="745.8"/>
		</g>
		<g>
			<rect x="286.8" y="824" fill="#FFFFFF" width="16.3" height="4.4"/>
			<line fill="none" stroke="#F7ECDE" stroke-width="0.545" stroke-miterlimit="10" x1="286.8" y1="824" x2="303.1" y2="824"/>
			<line fill="none" stroke="#F7ECDE" stroke-width="0.545" stroke-miterlimit="10" x1="286.8" y1="828.4" x2="303.1" y2="828.4"/>
		</g>
		<g>
			<rect x="285.6" y="741.7" fill="#FFFFFF" width="18.8" height="4.4"/>
			<line fill="none" stroke="#F7ECDE" stroke-width="0.545" stroke-miterlimit="10" x1="285.6" y1="741.7" x2="304.4" y2="741.7"/>
			<line fill="none" stroke="#F7ECDE" stroke-width="0.545" stroke-miterlimit="10" x1="285.6" y1="746" x2="304.4" y2="746"/>
		</g>
		<g>
			<path fill="#FFFFFF" d="M699.2,1013.1c0,0-0.2,0-0.6-0.1c-0.2-0.1-0.5-0.1-0.8-0.1c-0.2,0-0.3,0-0.5,0c-0.2,0-0.5,0-0.7,0
				c-2.1,0.1-5,0.1-8.5,0.2c-7.1,0.2-16.5,0.5-25.9,0.7c-18.8,0.5-37.6,1.1-37.6,1.1l-0.1-4.4c0,0,18.9-0.5,37.7-1.1
				c9.4-0.3,18.9-0.5,25.9-0.7c3.5-0.1,6.5-0.2,8.5-0.2c0.3,0,0.5,0,0.7,0c0.3,0,0.5,0,0.8,0c0.5,0,0.9,0,1.2,0.1
				c0.7,0.1,1.1,0.2,1.1,0.2L699.2,1013.1z"/>
			<path fill="none" stroke="#F7ECDE" stroke-width="0.545" stroke-miterlimit="10" d="M624.4,1010.7c0,0,18.9-0.5,37.7-1.1
				c9.4-0.3,18.9-0.5,25.9-0.7c3.5-0.1,6.5-0.2,8.5-0.2c0.3,0,0.5,0,0.7,0c0.3,0,0.5,0,0.8,0c0.5,0,0.9,0,1.2,0.1
				c0.7,0.1,1.1,0.2,1.1,0.2"/>
			<path fill="none" stroke="#F7ECDE" stroke-width="0.545" stroke-miterlimit="10" d="M624.6,1015c0,0,18.8-0.5,37.6-1.1
				c9.4-0.3,18.8-0.5,25.9-0.7c3.5-0.1,6.5-0.2,8.5-0.2c0.3,0,0.5,0,0.7,0c0.2,0,0.4,0,0.5,0c0.3,0,0.6,0,0.8,0.1
				c0.4,0.1,0.6,0.1,0.6,0.1"/>
		</g>
		<g>
			
				<rect x="611.5" y="973.9" transform="matrix(-2.676589e-002 -0.9996 0.9996 -2.676589e-002 -338.2829 1622.8372)" fill="#FFFFFF" width="18.7" height="4.4"/>
			<line fill="none" stroke="#F7ECDE" stroke-width="0.545" stroke-miterlimit="10" x1="618.9" y1="985.5" x2="618.4" y2="966.8"/>
			<line fill="none" stroke="#F7ECDE" stroke-width="0.545" stroke-miterlimit="10" x1="623.3" y1="985.4" x2="622.8" y2="966.7"/>
		</g>
		<g>
			
				<rect x="692.9" y="999.3" transform="matrix(-8.467481e-002 0.9964 -0.9964 -8.467481e-002 1759.511 386.5455)" fill="#FFFFFF" width="18.6" height="4.4"/>
			<line fill="none" stroke="#F7ECDE" stroke-width="0.545" stroke-miterlimit="10" x1="705.2" y1="992.3" x2="703.6" y2="1010.9"/>
			<line fill="none" stroke="#F7ECDE" stroke-width="0.545" stroke-miterlimit="10" x1="700.8" y1="992" x2="699.2" y2="1010.5"/>
		</g>
		<g>
			<path fill="#FFFFFF" d="M483.8,988.3c0,0,0.1,0,0.2,0c0,0,0.2,0,0.3,0c0.1,0,0.3,0,0.5,0c0.8-0.1,2.2-0.3,4-0.6
				c3.6-0.8,8.7-2.2,14.9-4c3.1-0.9,6.4-2,9.9-3.1c1.8-0.6,3.6-1.2,5.4-1.8c0.9-0.3,1.8-0.6,2.8-0.9c0.5-0.2,0.9-0.3,1.4-0.5
				c0.4-0.1,0.9-0.2,1.2-0.2l0.8-0.1c2.2-0.1,4.2,0,6.3,0c2.1,0.1,4.2,0.2,6.3,0.2c4.2,0.2,8.6,0.4,12.9,0.7
				c17.2,1,34.4,2.3,47.3,3.2c12.9,1,21.5,1.6,21.5,1.6l-0.3,4.3c0,0-8.6-0.6-21.5-1.6c-12.9-0.9-30.1-2.2-47.2-3.2
				c-4.3-0.3-8.6-0.5-12.8-0.7c-2.1-0.1-4.2-0.2-6.3-0.2c-2,0-4.1-0.1-6,0l-0.7,0c-0.2,0-0.2,0-0.3,0c-0.5,0.2-0.9,0.3-1.4,0.5
				c-0.9,0.3-1.9,0.6-2.8,0.9c-1.9,0.6-3.7,1.2-5.4,1.8c-3.5,1.1-6.9,2.2-10,3.1c-6.2,1.9-11.4,3.3-15.2,4.1
				c-1.9,0.4-3.4,0.6-4.6,0.7c-0.3,0-0.6,0-0.8,0c-0.2,0-0.4,0-0.7,0c-0.4-0.1-0.6-0.1-0.6-0.1L483.8,988.3z"/>
			<path fill="none" stroke="#F7ECDE" stroke-width="0.545" stroke-miterlimit="10" d="M619.2,987.2c0,0-8.6-0.6-21.5-1.6
				c-12.9-0.9-30.1-2.2-47.2-3.2c-4.3-0.3-8.6-0.5-12.8-0.7c-2.1-0.1-4.2-0.2-6.3-0.2c-2,0-4.1-0.1-6,0l-0.7,0c-0.2,0-0.2,0-0.3,0
				c-0.5,0.2-0.9,0.3-1.4,0.5c-0.9,0.3-1.9,0.6-2.8,0.9c-1.9,0.6-3.7,1.2-5.4,1.8c-3.5,1.1-6.9,2.2-10,3.1
				c-6.2,1.9-11.4,3.3-15.2,4.1c-1.9,0.4-3.4,0.6-4.6,0.7c-0.3,0-0.6,0-0.8,0c-0.2,0-0.4,0-0.7,0c-0.4-0.1-0.6-0.1-0.6-0.1"/>
			<path fill="none" stroke="#F7ECDE" stroke-width="0.545" stroke-miterlimit="10" d="M619.5,982.9c0,0-8.6-0.7-21.5-1.6
				c-12.9-0.9-30.1-2.2-47.3-3.2c-4.3-0.3-8.6-0.5-12.9-0.7c-2.1-0.1-4.2-0.2-6.3-0.2c-2.1,0-4.1-0.1-6.3,0l-0.8,0.1
				c-0.3,0-0.8,0.1-1.2,0.2c-0.5,0.2-0.9,0.3-1.4,0.5c-0.9,0.3-1.9,0.6-2.8,0.9c-1.8,0.6-3.6,1.2-5.4,1.8c-3.5,1.1-6.8,2.2-9.9,3.1
				c-6.1,1.9-11.3,3.3-14.9,4c-1.8,0.4-3.2,0.6-4,0.6c-0.2,0-0.4,0-0.5,0c-0.1,0-0.3,0-0.3,0c-0.1,0-0.2,0-0.2,0"/>
		</g>
		<g>
			<path fill="#FFFFFF" d="M378.9,1009.8c0,0,0.4,0,1.2,0c0.8,0,2,0.1,3.5,0.1c1.5,0,3.4,0,5.4-0.1c1.1,0,2.1-0.2,3.2-0.3
				c1.2-0.1,2.5-0.3,3.9-0.5c10.6-0.9,24.6-1.6,38.7-2.3c1.8-0.1,3.5-0.1,5.3-0.2c1.8-0.1,3.6-0.1,5.3-0.1c3.4-0.1,6.8-0.2,10.1-0.3
				c1.6-0.1,3.2-0.2,4.8-0.3c1.6-0.1,3.1-0.3,4.6-0.4c1.4-0.2,2.9-0.3,4.2-0.6c1.3-0.3,2.7-0.5,3.5-0.8c1.8-0.8,3.3-2.4,4.3-4
				c1.1-1.6,1.8-3.2,2.4-4.5c0.5-1.3,0.9-2.4,1.1-3.2c0.1-0.4,0.2-0.6,0.2-0.8c0-0.2,0.1-0.3,0.1-0.3l4.3,1c0,0,0,0.1-0.1,0.4
				c-0.1,0.2-0.2,0.6-0.3,1c-0.2,0.8-0.6,2.1-1.3,3.6c-0.6,1.5-1.5,3.3-2.8,5.3c-0.4,0.5-0.7,1-1.1,1.5c-0.4,0.5-0.8,1-1.4,1.5
				c-1,1-2.3,1.9-3.8,2.6c-1.7,0.7-3,0.8-4.5,1.1c-1.5,0.3-2.9,0.4-4.5,0.6c-1.5,0.1-3.1,0.3-4.7,0.4c-1.6,0.1-3.2,0.2-4.9,0.3
				c-3.3,0.2-6.7,0.3-10.2,0.3c-1.8,0-3.4,0.1-5.2,0.1c-1.7,0.1-3.5,0.1-5.2,0.2c-14,0.7-28.1,1.4-38.5,2.3
				c-1.3,0.1-2.5,0.3-3.6,0.4c-1.3,0.2-2.5,0.3-3.6,0.3c-2.2,0.1-4.1,0.1-5.7,0.1c-1.6,0-2.8-0.1-3.6-0.1c-0.8,0-1.3,0-1.3,0
				L378.9,1009.8z"/>
			<path fill="none" stroke="#F7ECDE" stroke-width="0.545" stroke-miterlimit="10" d="M484.9,992.2c0,0,0,0.1-0.1,0.4
				c-0.1,0.2-0.2,0.6-0.3,1c-0.2,0.8-0.6,2.1-1.3,3.6c-0.6,1.5-1.5,3.3-2.8,5.3c-0.4,0.5-0.7,1-1.1,1.5c-0.4,0.5-0.8,1-1.4,1.5
				c-1,1-2.3,1.9-3.8,2.6c-1.7,0.7-3,0.8-4.5,1.1c-1.5,0.3-2.9,0.4-4.5,0.6c-1.5,0.1-3.1,0.3-4.7,0.4c-1.6,0.1-3.2,0.2-4.9,0.3
				c-3.3,0.2-6.7,0.3-10.2,0.3c-1.8,0-3.4,0.1-5.2,0.1c-1.7,0.1-3.5,0.1-5.2,0.2c-14,0.7-28.1,1.4-38.5,2.3
				c-1.3,0.1-2.5,0.3-3.6,0.4c-1.3,0.2-2.5,0.3-3.6,0.3c-2.2,0.1-4.1,0.1-5.7,0.1c-1.6,0-2.8-0.1-3.6-0.1c-0.8,0-1.3,0-1.3,0"/>
			<path fill="none" stroke="#F7ECDE" stroke-width="0.545" stroke-miterlimit="10" d="M480.6,991.3c0,0,0,0.1-0.1,0.3
				c-0.1,0.2-0.1,0.5-0.2,0.8c-0.2,0.7-0.6,1.8-1.1,3.2c-0.5,1.3-1.3,2.9-2.4,4.5c-1.1,1.6-2.5,3.2-4.3,4c-0.8,0.3-2.2,0.6-3.5,0.8
				c-1.3,0.2-2.8,0.4-4.2,0.6c-1.5,0.1-3,0.3-4.6,0.4c-1.6,0.1-3.2,0.2-4.8,0.3c-3.3,0.2-6.6,0.3-10.1,0.3c-1.7,0-3.5,0.1-5.3,0.1
				c-1.8,0.1-3.5,0.1-5.3,0.2c-14.1,0.7-28.1,1.4-38.7,2.3c-1.4,0.2-2.7,0.3-3.9,0.5c-1.1,0.1-2.1,0.3-3.2,0.3
				c-2.1,0.1-3.9,0.1-5.4,0.1c-1.5,0-2.7,0-3.5-0.1c-0.8,0-1.2,0-1.2,0"/>
		</g>
		<g>
			<polygon fill="#FFFFFF" points="321,879 322.5,894.8 318.2,895.2 316.7,879.4 			"/>
			<line fill="none" stroke="#F7ECDE" stroke-width="0.545" stroke-miterlimit="10" x1="318.2" y1="895.2" x2="316.7" y2="879.4"/>
			<line fill="none" stroke="#F7ECDE" stroke-width="0.545" stroke-miterlimit="10" x1="322.5" y1="894.8" x2="321" y2="879"/>
		</g>
		<g>
			
				<rect x="321" y="883.4" transform="matrix(0.9869 -0.1611 0.1611 0.9869 -137.8595 71.2988)" fill="#FFFFFF" width="99.3" height="4.4"/>
			<line fill="none" stroke="#F7ECDE" stroke-width="0.545" stroke-miterlimit="10" x1="321.3" y1="891.5" x2="419.3" y2="875.5"/>
			<line fill="none" stroke="#F7ECDE" stroke-width="0.545" stroke-miterlimit="10" x1="322" y1="895.8" x2="420" y2="879.8"/>
		</g>
		<g>
			<path fill="#FFFFFF" d="M242.5,1012.5c0,0,34.1-0.6,68.2-1.1c17-0.3,34.1-0.6,46.9-0.8c1.6,0,3.1-0.1,4.6-0.1
				c1.5,0,2.8-0.1,4.2,0c2.6,0.1,4.9,0.1,6.8,0.2c3.7,0.1,5.8,0.2,5.8,0.2l-0.1,4.4c0,0-2.2-0.1-5.9-0.2c-1.8-0.1-4.1-0.1-6.7-0.2
				c-1.2-0.1-2.6,0-4.1,0c-1.5,0-3,0-4.6,0.1c-12.8,0.2-29.8,0.5-46.9,0.8c-34.1,0.6-68.2,1.1-68.2,1.1L242.5,1012.5z"/>
			<path fill="none" stroke="#F7ECDE" stroke-width="0.545" stroke-miterlimit="10" d="M378.8,1015.2c0,0-2.2-0.1-5.9-0.2
				c-1.8-0.1-4.1-0.1-6.7-0.2c-1.2-0.1-2.6,0-4.1,0c-1.5,0-3,0-4.6,0.1c-12.8,0.2-29.8,0.5-46.9,0.8c-34.1,0.6-68.2,1.1-68.2,1.1"/>
			<path fill="none" stroke="#F7ECDE" stroke-width="0.545" stroke-miterlimit="10" d="M378.9,1010.8c0,0-2.1-0.1-5.8-0.2
				c-1.9-0.1-4.2-0.1-6.8-0.2c-1.4-0.1-2.7,0-4.2,0c-1.5,0-3,0-4.6,0.1c-12.8,0.2-29.8,0.5-46.9,0.8c-34.1,0.6-68.2,1.1-68.2,1.1"/>
		</g>
		<g>
			<polygon fill="#FFFFFF" points="378.9,1108.5 355.5,1108.8 355.5,1104.4 378.8,1104.2 			"/>
			
				<line fill="none" stroke="#F7ECDE" stroke-width="0.545" stroke-miterlimit="10" x1="355.5" y1="1104.4" x2="378.8" y2="1104.2"/>
			
				<line fill="none" stroke="#F7ECDE" stroke-width="0.545" stroke-miterlimit="10" x1="355.5" y1="1108.8" x2="378.9" y2="1108.5"/>
		</g>
		<g>
			
				<rect x="327.7" y="1075.5" transform="matrix(4.129459e-002 0.9991 -0.9991 4.129459e-002 1417.6074 678.0245)" fill="#FFFFFF" width="55.6" height="4.4"/>
			
				<line fill="none" stroke="#F7ECDE" stroke-width="0.545" stroke-miterlimit="10" x1="356.5" y1="1049.8" x2="358.8" y2="1105.4"/>
			<line fill="none" stroke="#F7ECDE" stroke-width="0.545" stroke-miterlimit="10" x1="352.2" y1="1050" x2="354.5" y2="1105.6"/>
		</g>
		<g>
			<path fill="#FFFFFF" d="M381.7,1257.1c0,0-0.2,0-0.6,0c-0.4,0-0.9,0-1.5-0.1c-0.7-0.1-1.5-0.1-2.5-0.3c-0.5-0.1-1-0.2-1.6-0.3
				c-0.6-0.2-1.2-0.3-1.9-0.5c-2.7-1.1-5.2-2.8-7.8-5.1c-2.6-2.2-5.3-4.9-8.1-7.9c-5.6-6-11.7-13.4-17.6-21.8
				c-1.5-2.1-2.9-4.3-4.3-6.6c-1.2-2.4-2.5-4.8-3.6-7.3c-0.5-1.2-1.1-2.5-1.6-3.7c-0.5-1.2-1-2.5-1.5-3.8c-1-2.5-2-5-3-7.6
				c-2-5.1-3.8-10.1-5.6-15.1c-0.9-2.5-1.8-5-2.7-7.4c-0.5-1.2-0.9-2.4-1.4-3.6c-0.4-1.3-0.9-2.6-1.3-3.8
				c-2.8-9.9-4.8-19.1-6.5-27.1c-0.4-2-0.8-3.9-1.2-5.7c-0.1-0.5-0.2-0.9-0.3-1.4c-0.1-0.5-0.1-1-0.2-1.5c0-0.2-0.1-0.5-0.1-0.7
				l0-0.7c0-0.4-0.1-0.9-0.1-1.3c-0.2-3.4-0.2-6.3-0.2-8.7c0-4.8,0.1-7.5,0.1-7.5l4.4,0.2c0,0-0.1,2.7-0.1,7.4c0,2.3,0,5.2,0.2,8.4
				c0,0.4,0.1,0.8,0.1,1.2l0,0.6l0.1,0.6c0.1,0.4,0.1,0.8,0.2,1.2c0.1,0.4,0.2,0.9,0.3,1.3c0.4,1.8,0.8,3.7,1.2,5.7
				c1.7,7.9,3.7,17.2,6.4,26.8c0.4,1.2,0.8,2.3,1.1,3.5c0.5,1.2,0.9,2.4,1.4,3.7c0.9,2.4,1.8,4.9,2.7,7.4c1.8,5,3.7,10.1,5.6,15.1
				c1,2.5,1.9,5,2.9,7.5c0.5,1.2,1,2.5,1.5,3.7c0.5,1.2,1.1,2.4,1.6,3.6c1,2.5,2.2,4.7,3.4,6.9c1.3,2.2,2.6,4.3,4.1,6.3
				c5.7,8.2,11.8,15.4,17.2,21.3c2.7,2.9,5.3,5.5,7.8,7.5c2.4,2.1,4.7,3.6,6.4,4.3c0.4,0.2,0.9,0.3,1.4,0.4c0.5,0.1,0.9,0.2,1.3,0.2
				c0.8,0.1,1.6,0.2,2.1,0.2c0.6,0,1,0.1,1.3,0.1c0.3,0,0.4,0,0.4,0V1257.1z"/>
			<path fill="none" stroke="#F7ECDE" stroke-width="0.545" stroke-miterlimit="10" d="M311.1,1108c0,0-0.1,2.7-0.1,7.4
				c0,2.3,0,5.2,0.2,8.4c0,0.4,0.1,0.8,0.1,1.2l0,0.6l0.1,0.6c0.1,0.4,0.1,0.8,0.2,1.2c0.1,0.4,0.2,0.9,0.3,1.3
				c0.4,1.8,0.8,3.7,1.2,5.7c1.7,7.9,3.7,17.2,6.4,26.8c0.4,1.2,0.8,2.3,1.1,3.5c0.5,1.2,0.9,2.4,1.4,3.7c0.9,2.4,1.8,4.9,2.7,7.4
				c1.8,5,3.7,10.1,5.6,15.1c1,2.5,1.9,5,2.9,7.5c0.5,1.2,1,2.5,1.5,3.7c0.5,1.2,1.1,2.4,1.6,3.6c1,2.5,2.2,4.7,3.4,6.9
				c1.3,2.2,2.6,4.3,4.1,6.3c5.7,8.2,11.8,15.4,17.2,21.3c2.7,2.9,5.3,5.5,7.8,7.5c2.4,2.1,4.7,3.6,6.4,4.3c0.4,0.2,0.9,0.3,1.4,0.4
				c0.5,0.1,0.9,0.2,1.3,0.2c0.8,0.1,1.6,0.2,2.1,0.2c0.6,0,1,0.1,1.3,0.1c0.3,0,0.4,0,0.4,0"/>
			<path fill="none" stroke="#F7ECDE" stroke-width="0.545" stroke-miterlimit="10" d="M306.7,1107.9c0,0-0.1,2.7-0.1,7.5
				c0,2.4,0,5.3,0.2,8.7c0,0.4,0.1,0.9,0.1,1.3l0,0.7c0,0.2,0.1,0.5,0.1,0.7c0.1,0.5,0.1,1,0.2,1.5c0.1,0.5,0.2,0.9,0.3,1.4
				c0.4,1.8,0.8,3.7,1.2,5.7c1.8,7.9,3.7,17.2,6.5,27.1c0.4,1.3,0.8,2.5,1.3,3.8c0.4,1.2,0.9,2.4,1.4,3.6c0.9,2.4,1.8,4.9,2.7,7.4
				c1.8,5,3.7,10.1,5.6,15.1c1,2.5,1.9,5.1,3,7.6c0.5,1.3,1,2.5,1.5,3.8c0.5,1.2,1.1,2.5,1.6,3.7c1,2.5,2.3,4.9,3.6,7.3
				c1.4,2.3,2.8,4.5,4.3,6.6c5.9,8.4,12,15.7,17.6,21.8c2.8,3,5.5,5.6,8.1,7.9c2.6,2.2,5.1,4,7.8,5.1c0.7,0.2,1.3,0.4,1.9,0.5
				c0.6,0.1,1.1,0.2,1.6,0.3c1,0.1,1.8,0.2,2.5,0.3c0.7,0,1.2,0.1,1.5,0.1c0.4,0,0.6,0,0.6,0"/>
		</g>
	</g>
</g>
<g id="Road">
	<path fill="none" d="M637.9,1402.3c1,10.6,2.2,21.5,2.9,26.5c1.3,10.3-2,82.7-2,82.7"/>
	<path fill="none" d="M632.1,1245.7l2,67.7c0,1.1,1,2,2.1,1.9c0,0,24-0.8,24,22.4c0,19.7-22,21.8-22,21.8c-1.1,0.1-2,1.1-2,2.2v15.3
		c-0.2,3.1,0.7,13.9,1.8,25.2"/>
	<path fill="none" d="M699.8,1011.1c5.7,1.4,5.7,5.2,5.7,5.2c0,1.1,0.1,2.9,0.2,4c0,0,4.1,52.3,5.8,62.5
		c1.7,10.2,7.8,31.5,10.3,38.8s0,18.8-1.5,22.8s-8.5,14.1-19.8,22.7c-11.3,8.6-68.1,22.9-68.1,22.9c-1.1,0.3-1.9,1.4-1.9,2.5
		l1.6,53.3"/>
	<path fill="none" d="M621.3,1012.8c0,0,67.8-1.9,76-1.9c0.9,0,1.8,0.1,2.5,0.3"/>
	<line fill="none" x1="625.8" y1="1118.9" x2="623.1" y2="1010.9"/>
	<line fill="none" x1="620.8" y1="985.6" x2="619.8" y2="962.9"/>
	<line fill="none" x1="622.1" y1="1012.2" x2="620.8" y2="985.6"/>
	<path fill="none" d="M320.2,893.9c-1-9.9-1.8-18.8-1.8-18.8"/>
	<path fill="none" d="M523.2,946.8c-8.1-5.5-26.2-19.7-40.4-19.7c-16,0-147,3.6-147,3.6c-1.1,0-2.8-0.4-3.7-0.9
		c0,0-6.6-3.7-8.6-11.4c-1-3.8-2.3-14.7-3.3-24.5"/>
	<path fill="none" d="M620,966.3c-25.2-4.1-89.2-15.1-94.2-17.9c-0.7-0.4-1.6-0.9-2.6-1.7"/>
	<path fill="none" d="M704.3,991.3c-6.1-1.3-11.6-2.5-14.5-3.5c-8.3-2.7-54.3-19.2-60-20c-1-0.1-4.6-0.7-9.8-1.6"/>
	<path fill="none" d="M769.8,954.6c0,0-0.8,7.5-1.5,10c-0.7,2.5-4.3,12-6.8,14.3s-11.7,11.7-14.7,12.7s-7.3,4.8-13.3,4.5
		c-3.9-0.2-17.8-2.5-29.3-4.8"/>
	<line fill="none" x1="318.1" y1="893.8" x2="416.1" y2="877.8"/>
	<path fill="none" d="M356.7,1106.6c14.7,0,26.1,0,26.1,0"/>
	<path fill="none" d="M241.1,1014.8v68.3c0,1.1,0.1,2.9,0.3,4c0,0,1.4,9,19.9,13.5s22.5,6,35.5,6c7.8,0,37.6,0,59.9,0"/>
	<path fill="none" d="M356.8,1109.6"/>
	<line fill="none" x1="354.3" y1="1050.1" x2="356.8" y2="1109.6"/>
	<path fill="none" d="M309.3,1104.1c0,0-1,19.5,0,24s6.4,30.5,9.2,37.5c2.8,7,13.3,37.8,19.3,48.2c6,10.4,25,36.3,35.5,39.8
		s13,2.5,13,2.5"/>
	<line fill="none" x1="379.7" y1="1052.6" x2="378.8" y2="1010.9"/>
	<line fill="none" x1="380.8" y1="1106.6" x2="379.7" y2="1052.6"/>
	<path fill="none" d="M383.3,1256.1c-0.5-38.4-1.2-83.4-1.2-83.4l-1.4-66.2"/>
	<path fill="none" d="M383.4,1263.2c0-2.3-0.1-4.7-0.1-7.1"/>
	<path fill="none" d="M490.4,1338.1c-7.2-0.7-13.8-0.9-19.2,0c-18,3-48,5.7-58.3,2c-10.3-3.7-29-12-29-34c0-7.1-0.2-23.7-0.4-42.9"
		/>
	<path fill="none" d="M640.8,1402.6c0,0-9-0.8-14.7-3.2c-5.7-2.4-39.3-17.6-55.3-36.3s-13-18.3-31.7-18.7c-13-0.2-32.2-4.7-48.8-6.3
		"/>
	<path fill="none" d="M510,1260.4c8.5-27.1,16.8-53.7,16.8-53.7"/>
	<path fill="none" d="M490.5,1340.4c0,0-0.9-15.3,1.9-24c1.4-4.2,9.6-30.3,17.6-56"/>
	<path fill="none" d="M458.2,1270c-3.9,13.6-8.4,30.1-8.4,30.1"/>
	<path fill="none" d="M512.5,1261.1l-39.7-11.5c-1.1-0.3-2.8-0.8-3.9-1c0,0-3.4-0.8-5.4,4.2c-0.8,1.9-2.9,9-5.2,17.3"/>
	<path fill="none" d="M380.8,1263.1c0,0,53.3,3,59.3,4s20.7,3.3,20.7,3.3"/>
	<path fill="none" d="M629,1246.4c0,0,4.5-0.7,9.8-3.3c5.3-2.6,64-33.5,68-40.5s52-72,60-76s42.5-0.5,48.5,0s50,6,50,6"/>
	<path fill="none" d="M483.8,990.6c-5-1-16-4-16-16s-1.3-12.7,2.2-13s32.8-2.2,39.8-5.3c7-3.1,9.2-3.5,10.7-5.3c1.5-1.8,4-6.3,4-6.3
		"/>
	<path fill="none" d="M621.3,985.6c0,0-92.5-7.5-97-6s-35.5,12-40.5,11"/>
	<path fill="none" d="M378.8,1013.2c-6.3-0.1-10.1-0.3-10.1-0.3c-1.1-0.1-2.9-0.1-4-0.1l-126.5,2.1"/>
	<path fill="none" d="M484.3,987.8c0,0-4.5,17.9-12.2,19.8c-7.7,1.9-25.2,2.2-28.5,2.2c-3.3,0-44.6,1.9-50.6,3
		c-2.8,0.5-8.7,0.6-14.2,0.4"/>
	<line fill="none" x1="377.3" y1="1052.6" x2="402.1" y2="1052.6"/>
	<line fill="none" x1="704.8" y1="989" x2="699.3" y2="1013.5"/>
	<path fill="none" d="M318.1,877.8c0,0,25.3-1.7,34.7-5.7s20.3-12.3,20.7-20.7c0.4-8.4-3.9-142.7-3.9-142.7c0-1.1-0.1-2.9-0.3-4
		c0,0-0.5-5-6.5-5s-76.3,0-76.3,0c-1.1,0-2.9-0.2-4-0.4c0,0-6-1.3-12-1.3s-25,0.3-25.3,6.7c-0.3,6.4-2,39.4-2,39.4
		c-0.1,1.1-0.1,2.9-0.1,4l-1.9,148.7c0,1.1,0,2.9,0,4v114"/>
	<path fill="none" d="M285.6,826.4l0.2,14.9c0,1.1,0.1,2.9,0.3,4c0,0,1.8,14.3,5.9,18.6c4.2,4.3,12,13.7,26.2,13.8"/>
	<line fill="none" x1="284.8" y1="743.1" x2="285.6" y2="826.4"/>
	<line fill="none" x1="284.3" y1="697.1" x2="284.8" y2="743.1"/>
	<line fill="none" x1="283.3" y1="826.4" x2="303.1" y2="826.4"/>
	<line fill="none" x1="282.3" y1="743.1" x2="301.2" y2="743.1"/>
</g>
<g id="Architecture_1_">
	<g id="Architecture">
		<polygon fill="#E8DDCE" points="670.4,1324.9 667.4,1356 689.4,1357.7 691.7,1326.7 		"/>
		<polygon fill="#E8DDCE" points="472,1254.8 458.1,1300.2 476.2,1305.3 479.2,1298.2 490.3,1299.2 502.2,1262.5 		"/>
		<polygon fill="#E8DDCE" points="478,1224.7 473.2,1238.7 506.2,1248.7 509.9,1235.2 505.7,1232.8 514.7,1202 508.9,1200.7 
			509.9,1193.5 521.5,1194.3 524,1183 498.6,1177.8 494.7,1189.2 500,1189.7 498.6,1197.7 485.3,1195.3 482.9,1211.5 495.5,1214.7 
			491.9,1227.2 		"/>
		<polygon fill="#E8DDCE" points="390.2,1201.8 390.2,1218.3 408.5,1218.3 408.5,1214.1 411.7,1214.1 411.7,1225.1 397.7,1225.1 
			397.7,1241.4 429.3,1241.4 433.8,1236.9 433.8,1230.6 428.2,1225 428.2,1211.4 442.7,1211.4 442.7,1195.5 423.3,1195.5 
			423.3,1199.5 405.6,1199.5 405.5,1201.9 		"/>
		<polygon fill="#E8DDCE" points="388.5,1152.9 388.5,1170.3 406.7,1170.3 406.7,1165.9 442.7,1165.9 442.7,1152.9 		"/>
		<polygon fill="#E8DDCE" points="490.1,1167.8 516.6,1167 516.6,1151.9 522,1151.9 522,1138.1 530.2,1138.1 530.2,1121.8 
			500.5,1121.8 500.5,1134.6 493.2,1134.6 493.2,1150.5 490.1,1150.5 		"/>
		<polygon fill="#E8DDCE" points="388.5,1098 388.5,1110.5 444.7,1110.5 443.7,1098 		"/>
		<polygon fill="#E8DDCE" points="388.5,1059 388.5,1070 442.7,1069 442.7,1059 		"/>
		<polygon fill="#E8DDCE" points="399,1017 399,1028.8 439.2,1028.8 439.2,1015.7 		"/>
		<polygon fill="#E8DDCE" points="444.7,1015.8 444.7,1028.8 482.2,1027.3 482.2,1014.7 		"/>
		<polygon fill="#E8DDCE" points="495,1001.4 495.9,1012.7 515.2,1013.6 515.2,1003.5 568.7,1001.4 568.7,989.8 514,991.5 
			513.2,1001.4 		"/>
		<polygon fill="#E8DDCE" points="571.5,1022.2 573,1034.8 618,1032.6 616,1021.7 		"/>
		<polygon fill="#E8DDCE" points="554,1051 554,1062.8 618,1061.6 618,1049.3 591.7,1049.3 590.5,1046 579,1046 579,1051 		"/>
		<polygon fill="#E8DDCE" points="540.7,1140.8 540.7,1151.3 568.7,1150.3 568.7,1143.5 612,1143 613.2,1150 642.5,1148.5 
			642.5,1140.8 684.2,1139.5 684.2,1148.5 713.2,1147 713.2,1130.8 705.7,1130.8 706,1135 683.5,1135.5 683,1125.6 573,1130.5 
			572.5,1136.8 552.7,1136.8 551.2,1140.3 		"/>
		<polygon fill="#E8DDCE" points="278,1051 278,1098 331,1100.3 331,1051 		"/>
		<polygon fill="#E8DDCE" points="323.4,1018.3 324.7,1046 369.6,1044 369.6,1018.3 		"/>
		<polygon fill="#E8DDCE" points="281.4,1020.3 311,1020.3 311,1040 302.4,1040 296.3,1046.1 286.4,1046.1 286.4,1033.2 
			281.4,1033.2 		"/>
		<polygon fill="#E8DDCE" points="290,945.5 290,957.4 287,957.4 287,980.3 289,982.2 289,998 317.4,998 317.4,945.5 		"/>
		<polygon fill="#E8DDCE" points="326.7,943.7 326.7,961.7 356.7,962.7 356.7,943.7 		"/>
		<polygon fill="#E8DDCE" points="367.4,943.7 369.6,960.7 399,960.7 399,942 		"/>
		<polygon fill="#E8DDCE" points="406,942 407.7,959.3 439.2,957.4 439.2,940 		"/>
		<polygon fill="#E8DDCE" points="449.4,940 449.4,953.2 480,953.2 480,938 		"/>
		<polygon fill="#E8DDCE" points="325.4,980.3 325.4,989.8 458.7,985 458.7,973.3 		"/>
		<polygon fill="#E8DDCE" points="349,904 350.4,921.2 378.7,919.7 379.6,904 		"/>
		<polygon fill="#E8DDCE" points="393.2,901.9 393.2,920.5 426,919.4 426,902.6 		"/>
		<polygon fill="#E8DDCE" points="440.5,903 441.5,917 471.2,916 471.2,903 		"/>
		<polygon fill="#E8DDCE" points="482.2,904 482.2,917 511.4,917 510.1,904 		"/>
		<polygon fill="#E8DDCE" points="298.8,755 298.8,773.3 355,773.3 355,767.3 360.7,767.3 360.7,753.7 		"/>
		<polygon fill="#E8DDCE" points="302.2,795.7 302.2,814.7 358.7,814.7 358.7,809.3 365.7,809.3 365.7,793.7 		"/>
		<polygon fill="#E8DDCE" points="301.1,837.3 301.1,853 356.7,853 367.4,853 367.4,837.3 		"/>
		<rect x="298.8" y="712" fill="#E8DDCE" width="63.6" height="15"/>
		<polygon fill="#E8DDCE" points="418.4,866 421.6,888.8 504.7,887 503,861 		"/>
		<polygon fill="#E8DDCE" points="633.7,979.7 633.7,1004.3 688,1004.3 688,997 642.7,997 642.7,979.7 		"/>
		<polygon fill="#E8DDCE" points="631.7,1018.3 631.7,1030.7 690.7,1030.7 690.7,1017 		"/>
		<polygon fill="#E8DDCE" points="726,1017 732.7,1017 732.7,1010 724.4,1010 722.7,1011.7 714.6,1019.8 714.6,1075.7 773.7,1075.7 
			773.7,1068.7 776.4,1068.7 776.4,1046.1 772.4,1046.1 772.4,1041 785,1041 785,1017 751.7,1017 751.7,1023.8 725.4,1023.8 		"/>
		<polygon fill="#E8DDCE" points="774.2,968.5 769.7,986.5 809.7,997 816.2,985.9 779.2,976.3 781.2,967.2 		"/>
		<polygon fill="#E8DDCE" points="813.7,1010 804.2,1038.5 816.2,1042.8 820.7,1023.8 833.2,1026.4 837.2,1015.7 		"/>
		<polygon fill="#E8DDCE" points="833.2,1051 833.2,1062.8 827.7,1062.8 827.7,1080.5 833.2,1080.5 833.2,1112.5 852.7,1112.5 
			852.7,1116.5 865.2,1116.5 865.2,1113 875.2,1113 875.2,1104.3 865.2,1104.3 865.2,1100.3 855.2,1100.3 855.2,1104.3 
			844.2,1104.3 844.2,1070 849.2,1070 849.2,1064.5 846.2,1064.5 846.2,1051 		"/>
		<polygon fill="#E8DDCE" points="867.2,1125.6 865.2,1151.3 877.2,1151.3 879.7,1125.6 		"/>
		<polygon fill="#E8DDCE" points="793,1144.8 790.2,1200.5 796.7,1207.6 799.7,1214.7 842.7,1218.4 845.7,1213.2 851.5,1207.6 
			854.7,1151.3 851.5,1148 847.7,1138.4 804.2,1136.5 801.2,1141 		"/>
	</g>
</g>
<g id="ArchitectureLook" >
	
		
</g>
<g id="Name">
	<text transform="matrix(1 0 0 1 762.0371 1344.4863)" fill="#231815" font-family="'DengXian-Regular'" font-size="8"></text>
	<text transform="matrix(1 0 0 1 762.0371 1355.2871)" fill="#231815" font-family="'DengXian-Regular'" font-size="8"></text>
	<text transform="matrix(1 0 0 1 814.3711 1171.4863)" fill="#231815" font-family="'DengXian-Regular'" font-size="8"></text>
	<text transform="matrix(1 0 0 1 725.8711 1056.1523)" fill="#231815" font-family="'DengXian-Regular'" font-size="8"></text>
	<text transform="matrix(1 0 0 1 332.5386 1030.3203)" fill="#231815" font-family="'DengXian-Regular'" font-size="8"></text>
	<text transform="matrix(1 0 0 1 613.4336 1134.9766)" fill="#231815" font-family="'DengXian-Regular'" font-size="8">1</text>
	<text transform="matrix(1 0 0 1 283.7837 973.6465)" fill="#231815" font-family="'DengXian-Regular'" font-size="8"></text>
	<text transform="matrix(1 0 0 1 773.8711 965.2969)" fill="#231815" font-family="'DengXian-Regular'" font-size="8"></text>
	<text transform="matrix(1 0 0 1 395.4136 1213.8184)" fill="#231815" font-family="'DengXian-Regular'" font-size="8"></text>
	<text transform="matrix(1 0 0 1 406.0972 1159.8184)" fill="#231815" font-family="'DengXian-Regular'" font-size="8">4</text>
	<text transform="matrix(1 0 0 1 481.022 1212.8184)" fill="#231815" font-family="'DengXian-Regular'" font-size="8"></text>
	<text transform="matrix(1 0 0 1 287.7837 1059.0547)" fill="#231815" font-family="'DengXian-Regular'" font-size="8"></text>
	<text transform="matrix(1 0 0 1 287.7837 1069.8555)" fill="#231815" font-family="'DengXian-Regular'" font-size="8"></text>
	<text transform="matrix(1 0 0 1 404.2046 1022.6563)" fill="#231815" font-family="'DengXian-Regular'" font-size="8"></text>
	<text transform="matrix(1 0 0 1 457.6196 1275.6563)" fill="#231815" font-family="'DengXian-Regular'" font-size="8"></text>
	<text transform="matrix(1 0 0 1 532.5122 998.5234)" fill="#231815" font-family="'DengXian-Regular'" font-size="8">3</text>
	<text transform="matrix(1 0 0 1 576.2051 1056.1523)" fill="#231815" font-family="'DengXian-Regular'" font-size="8"></text>
	<text transform="matrix(1 0 0 1 499.1396 1143.4805)" fill="#231815" font-family="'DengXian-Regular'" font-size="8"></text>
	<text transform="matrix(1 0 0 1 351.5557 1143.9805)" fill="#231815" font-family="'DengXian-Regular'" font-size="8"></text>
	<text transform="matrix(1 0 0 1 351.5557 1190.4375)" fill="#231815" font-family="'DengXian-Regular'" font-size="8"></text>
	<text transform="matrix(1 0 0 1 662.8711 1291.6484)" fill="#231815" font-family="'DengXian-Regular'" font-size="8"></text>
	<text transform="matrix(1 0 0 1 453.4009 475.9785)" fill="#231815" font-family="'DengXian-Regular'" font-size="8"></text>
	<text transform="matrix(1 0 0 1 653.2051 1390.1484)" fill="#231815" font-family="'DengXian-Regular'" font-size="8"></text>
	<text transform="matrix(1 0 0 1 576.1523 1304.6348)" fill="#231815" font-family="'DengXian-Regular'" font-size="8"></text>
	<text transform="matrix(1 0 0 1 411.5381 1359.832)" fill="#231815" font-family="'DengXian-Regular'" font-size="8"></text>
	<text transform="matrix(1 0 0 1 653.2031 1170.6484)" fill="#231815" font-family="'DengXian-Regular'" font-size="8"></text>
	<text transform="matrix(1 0 0 1 565.1787 1222.8164)" fill="#231815" font-family="'DengXian-Regular'" font-size="8"></text>
	<text transform="matrix(1 0 0 1 485.4321 1080.9824)" fill="#231815" font-family="'DengXian-Regular'" font-size="8"></text>
	<text transform="matrix(1 0 0 1 541.7021 967.2969)" fill="#231815" font-family="'DengXian-Regular'" font-size="8"></text>
	<text transform="matrix(1 0 0 1 490.2046 612.082)" fill="#231815" font-family="'DengXian-Regular'" font-size="8"></text>
	<text transform="matrix(1 0 0 1 669.7227 1344.4863)" fill="#231815" font-family="'DengXian-Regular'" font-size="8"></text>
	<text transform="matrix(1 0 0 1 606.4004 1506.6426)" fill="#231815" font-family="'DengXian-Regular'" font-size="8"></text>
	<text transform="matrix(1 0 0 1 676.2871 1140.1113)" fill="#231815" font-family="'DengXian-Regular'" font-size="8"></text>
	<text transform="matrix(1 0 0 1 401.6011 1104.4863)" fill="#231815" font-family="'DengXian-Regular'" font-size="8">10#</text>
	<text transform="matrix(1 0 0 1 404.2046 1064.6523)" fill="#231815" font-family="'DengXian-Regular'" font-size="8"></text>
	<text transform="matrix(1 0 0 1 439.3716 1507.4863)" fill="#231815" font-family="'DengXian-Regular'" font-size="8"></text>
	<text transform="matrix(1 0 0 1 735.8711 1069.1523)" fill="#231815" font-family="'DengXian-Regular'" font-size="8"></text>
	<text transform="matrix(1 0 0 1 724.1484 1044.9863)" fill="#231815" font-family="'DengXian-Regular'" font-size="8"></text>
	<text transform="matrix(1 0 0 1 720.1484 1032.9863)" fill="#231815" font-family="'DengXian-Regular'" font-size="8"></text>
	<text transform="matrix(1 0 0 1 720.1484 1021.3496)" fill="#231815" font-family="'DengXian-Regular'" font-size="8"></text>
	<text transform="matrix(1 0 0 1 583.7461 1441.5586)" fill="#231815" font-family="'DengXian-Regular'" font-size="8"></text>
	<text transform="matrix(1 0 0 1 445.2515 876.25)" fill="#231815" font-family="'DengXian-Regular'" font-size="8">5</text>
	<text transform="matrix(1 0 0 1 306.9175 720.6699)" fill="#231815" font-family="'DengXian-Regular'" font-size="8">4</text>
	<text transform="matrix(1 0 0 1 309.2515 766.25)" fill="#231815" font-family="'DengXian-Regular'" font-size="8">3</text>
	<text transform="matrix(1 0 0 1 309.2515 808.916)" fill="#231815" font-family="'DengXian-Regular'" font-size="8">2</text>
	<text transform="matrix(1 0 0 1 311.7515 848.582)" fill="#231815" font-family="'DengXian-Regular'" font-size="8">1</text>
	<text transform="matrix(1 0 0 1 660.7637 1026.2813)" fill="#231815" font-family="'DengXian-Regular'" font-size="8">9</text>
	<text transform="matrix(1 0 0 1 451.6392 945.8203)" fill="#231815" font-family="'DengXian-Regular'" font-size="8">1</text>
	<text transform="matrix(1 0 0 1 410.1548 951.7441)" fill="#231815" font-family="'DengXian-Regular'" font-size="8">2</text>
	<text transform="matrix(1 0 0 1 372.6743 955.3203)" fill="#231815" font-family="'DengXian-Regular'" font-size="8">3</text>
	<text transform="matrix(1 0 0 1 325.9565 954.7441)" fill="#231815" font-family="'DengXian-Regular'" font-size="8">4</text>
	<text transform="matrix(1 0 0 1 485.6392 910.7988)" fill="#231815" font-family="'DengXian-Regular'" font-size="8">5</text>
	<text transform="matrix(1 0 0 1 441.7202 911.2988)" fill="#231815" font-family="'DengXian-Regular'" font-size="8">6</text>
	<text transform="matrix(1 0 0 1 395.9722 914.7715)" fill="#231815" font-family="'DengXian-Regular'" font-size="8">7</text>
	<text transform="matrix(1 0 0 1 349.4482 914.6328)" fill="#231815" font-family="'DengXian-Regular'" font-size="8">8</text>
	<text transform="matrix(1 0 0 1 655.6016 1063.459)" fill="#231815" font-family="'DengXian-Regular'" font-size="8"></text>
	<text transform="matrix(1 0 0 1 417.3892 1448.9063)" fill="#231815" font-family="'DengXian-Regular'" font-size="8"></text>
	<text transform="matrix(1 0 0 1 530.6196 1542.416)" fill="#231815" font-family="'DengXian-Regular'" font-size="8"></text>
	<text transform="matrix(1 0 0 1 617.2012 1544.916)" fill="#231815" font-family="'DengXian-Regular'" font-size="8"></text>
	<text transform="matrix(1 0 0 1 747.7461 1555.166)" fill="#231815" font-family="'DengXian-Regular'" font-size="8"></text>
	<text transform="matrix(1 0 0 1 806.3711 1567.582)" fill="#231815" font-family="'DengXian-Regular'" font-size="8"></text>
	<text transform="matrix(1 0 0 1 737.875 1491.248)" fill="#231815" font-family="'DengXian-Regular'" font-size="8"></text>
	<text transform="matrix(1 0 0 1 797.2461 1498.4863)" fill="#231815" font-family="'DengXian-Regular'" font-size="8"></text>
	<text transform="matrix(1 0 0 1 848.0781 1507.082)" fill="#231815" font-family="'DengXian-Regular'" font-size="8"></text>
	<text transform="matrix(1 0 0 1 607.9453 1491.4863)" fill="#231815" font-family="'DengXian-Regular'" font-size="8"></text>
	<text transform="matrix(1 0 0 1 554.1348 1493.4863)" fill="#231815" font-family="'DengXian-Regular'" font-size="8"></text>
	<text transform="matrix(1 0 0 1 523.1255 1484.332)" fill="#231815" font-family="'DengXian-Regular'" font-size="8"></text>
	<text transform="matrix(1 0 0 1 523.3857 1465.0977)" fill="#231815" font-family="'DengXian-Regular'" font-size="8"></text>
	<text transform="matrix(1 0 0 1 636.6152 1470.6953)" fill="#231815" font-family="'DengXian-Regular'" font-size="8"></text>
	<text transform="matrix(1 0 0 1 346.7061 1272.5078)" fill="#231815" font-family="'DengXian-Regular'" font-size="8"></text>
	<text transform="matrix(1 0 0 1 267.7466 686.832)" fill="#231815" font-family="'DengXian-Regular'" font-size="8"></text>
	<text transform="matrix(1 0 0 1 683.9961 1553.166)" fill="#231815" font-family="'DengXian-Regular'" font-size="8"></text>
	<text transform="matrix(1 0 0 1 607.9141 1190.4473)" fill="#231815" font-family="'DengXian-Regular'" font-size="8"></text>
	<text transform="matrix(1 0 0 1 626.2637 1026.1563)" fill="#231815" font-family="'DengXian-Regular'" font-size="8"></text>
	
		<text transform="matrix(0.352 0.936 -0.936 0.352 298.1309 1129.2373)" fill="#231815" font-family="'DengXian-Regular'" font-size="8"></text>
	<text transform="matrix(1 0 0 1 350.7061 1117.1875)" fill="#231815" font-family="'DengXian-Regular'" font-size="8"></text>
	<text transform="matrix(0 1 -1 0 239.502 792.9165)" fill="#231815" font-family="'DengXian-Regular'" font-size="8"></text>
	
		<text transform="matrix(0.6142 0.7892 -0.7892 0.6142 281.9653 856.6777)" fill="#231815" font-family="'DengXian-Regular'" font-size="8"></text>
	<text transform="matrix(0 1 -1 0 627.541 1238.3887)" fill="#231815" font-family="'DengXian-Regular'" font-size="8"></text>
	
		<text transform="matrix(0.611 -0.7916 0.7916 0.611 710.6797 1202.3818)" fill="#231815" font-family="'DengXian-Regular'" font-size="8"></text>
	
		<text transform="matrix(0.1926 0.9813 -0.9813 0.1926 698.9443 1043.3076)" fill="#231815" font-family="'DengXian-Regular'" font-size="8"></text>
</g>
</svg>
